<?xml version="1.0" standalone="no"?>
<svg version="1.0" xmlns="http://www.w3.org/2000/svg"
 width="6475.000000pt" height="1200.000000pt" viewBox="0 0 6475.000000 1200.000000"
 preserveAspectRatio="xMidYMid meet">
<g transform="translate(0.000000,1200.000000) scale(0.100000,-0.100000)"
fill="#ffffff" stroke="none">
<path d="M5625 11994 c-269 -21 -564 -59 -771 -100 -721 -142 -1391 -404
-2003 -782 -792 -488 -1475 -1171 -1963 -1963 -427 -690 -711 -1472 -828
-2272 -48 -332 -55 -445 -55 -877 0 -433 7 -541 56 -880 252 -1748 1297 -3323
2819 -4250 681 -414 1428 -686 2215 -805 345 -52 461 -60 910 -60 447 1 557 8
900 60 1446 219 2769 965 3705 2090 722 868 1179 1896 1334 3005 44 313 51
425 51 840 0 415 -7 527 -51 840 -294 2091 -1667 3873 -3618 4696 -545 230
-1088 368 -1736 440 -137 15 -830 28 -965 18z m925 -89 c653 -63 1298 -232
1880 -494 1360 -613 2449 -1727 3032 -3102 635 -1496 621 -3219 -37 -4704
-502 -1134 -1332 -2067 -2415 -2715 -140 -84 -475 -256 -631 -324 -1106 -481
-2335 -615 -3519 -385 -2113 410 -3854 1960 -4509 4014 -294 923 -358 1915
-185 2870 129 709 383 1378 757 2000 386 639 931 1240 1537 1691 925 689 2023
1092 3176 1164 198 12 719 4 914 -15z"/>
<path d="M5635 11804 c-22 -2 -96 -9 -165 -14 -390 -34 -839 -124 -1215 -243
-324 -103 -542 -192 -856 -349 -982 -490 -1796 -1240 -2372 -2185 -132 -217
-343 -640 -431 -863 -226 -577 -354 -1144 -397 -1754 -15 -223 -6 -789 16
-986 80 -723 255 -1332 559 -1955 299 -611 655 -1107 1136 -1585 726 -720
1610 -1226 2610 -1494 229 -61 543 -120 805 -151 137 -16 368 -34 373 -30 2 2
-39 28 -90 57 -92 54 -94 55 -213 67 -1187 120 -2353 644 -3235 1452 -134 122
-365 358 -467 474 -823 946 -1307 2118 -1394 3380 -13 191 -7 735 10 905 109
1067 476 2027 1097 2867 330 445 752 867 1197 1197 878 648 1909 1029 2999
1106 330 23 809 8 1143 -35 1460 -189 2805 -951 3728 -2112 726 -914 1148
-2006 1228 -3176 15 -221 7 -745 -15 -943 -155 -1440 -786 -2693 -1846 -3663
-894 -819 -2075 -1343 -3285 -1457 -61 -6 -82 -14 -163 -61 -51 -30 -92 -56
-90 -58 5 -4 236 14 373 30 991 116 1944 489 2740 1070 1069 781 1831 1876
2185 3140 105 374 169 746 201 1175 15 203 6 773 -16 975 -104 972 -420 1849
-956 2653 -414 620 -974 1180 -1594 1593 -721 480 -1521 791 -2365 918 -299
45 -414 53 -810 56 -212 2 -403 1 -425 -1z"/>
<path d="M5895 11459 c-101 -38 -133 -157 -71 -263 61 -105 224 -96 281 15 19
36 19 119 1 163 -30 71 -134 113 -211 85z"/>
<path d="M6810 11348 c-39 -20 -48 -31 -69 -83 -23 -59 -23 -60 -6 -114 21
-66 58 -106 114 -121 111 -30 211 48 211 165 0 134 -131 214 -250 153z"/>
<path d="M4895 11339 c-95 -55 -118 -164 -56 -265 39 -64 164 -85 229 -38 35
26 72 99 72 144 0 45 -37 118 -73 144 -32 24 -141 33 -172 15z"/>
<path d="M4235 11156 c-121 -53 -134 -238 -22 -306 130 -79 276 22 253 175
-16 106 -135 173 -231 131z"/>
<path d="M7537 11144 c-67 -21 -102 -74 -102 -159 0 -76 29 -125 93 -156 78
-38 158 -15 210 62 20 29 23 44 20 99 -4 79 -31 123 -92 151 -49 22 -65 22
-129 3z"/>
<path d="M5533 11098 c-17 -8 -23 -20 -23 -44 l0 -34 -222 -2 -223 -3 -3 -775
c-1 -454 2 -770 7 -765 5 6 50 89 100 186 l91 176 0 80 c0 78 -14 143 -30 143
-5 0 -14 -25 -20 -56 -9 -42 -17 -58 -36 -66 -38 -17 -54 4 -54 71 0 58 10 81
44 99 19 9 19 10 -2 21 -75 40 -83 201 -9 201 33 0 47 -13 61 -55 l14 -38 17
36 c33 71 96 34 81 -47 -4 -20 -22 -56 -42 -81 -33 -44 -34 -46 -18 -71 10
-14 22 -48 29 -76 l11 -51 26 44 c14 24 51 95 82 156 51 102 56 119 55 175 0
35 -5 78 -12 97 -13 38 -37 53 -37 24 0 -39 -22 -93 -42 -104 -56 -30 -81 110
-29 165 20 21 20 24 6 36 -31 26 -57 90 -50 123 19 89 94 90 122 2 l10 -30 7
33 c9 40 47 62 71 42 32 -27 5 -140 -45 -185 -18 -16 -18 -18 6 -62 13 -25 24
-58 24 -73 0 -15 3 -30 7 -33 3 -4 42 60 85 142 77 148 78 151 77 223 -1 122
-40 196 -53 100 -7 -57 -33 -87 -65 -77 -19 6 -21 14 -21 75 0 62 3 71 25 89
20 15 23 21 12 28 -15 9 -47 53 -47 65 0 5 48 8 106 8 l106 0 -22 -27 c-55
-73 -54 -69 -31 -116 12 -24 21 -52 21 -63 0 -21 16 -51 23 -44 7 7 127 249
127 255 0 3 -27 5 -60 5 l-60 0 0 30 c0 22 -6 33 -22 39 -27 10 -58 3 -65 -15
-4 -11 -9 -9 -22 6 -20 24 -59 32 -88 18z"/>
<path d="M6303 11076 c-19 -23 -20 -23 -31 -5 -24 38 -81 17 -85 -30 -1 -18
-8 -21 -54 -21 -28 0 -54 -4 -58 -10 -6 -10 108 -244 124 -255 6 -3 13 7 17
22 11 53 16 68 32 102 10 21 12 38 6 46 -34 46 -46 66 -42 71 3 2 47 3 99 2
l93 -3 -30 -34 -30 -34 22 -22 c40 -40 40 -146 -1 -161 -25 -10 -43 14 -55 72
-21 101 -59 36 -59 -101 0 -80 0 -80 72 -220 73 -142 97 -171 97 -118 0 16 11
51 24 78 l25 48 -34 48 c-37 55 -52 117 -35 148 20 39 61 15 76 -43 l7 -29 16
44 c20 54 59 73 91 44 38 -35 21 -142 -30 -178 -19 -13 -19 -14 4 -34 42 -37
43 -153 2 -161 -28 -6 -44 16 -56 74 -6 30 -15 54 -20 54 -15 0 -31 -63 -37
-140 -4 -61 -1 -85 16 -130 28 -71 123 -242 137 -247 7 -2 15 13 18 34 4 21
16 55 26 75 l19 37 -34 50 c-18 28 -36 63 -40 79 -8 39 10 82 34 82 22 0 51
-35 51 -63 0 -10 5 -15 10 -12 6 3 10 14 10 24 0 26 38 71 59 71 10 0 25 -8
34 -18 34 -37 11 -158 -34 -182 -16 -9 -15 -12 12 -39 24 -25 29 -38 29 -80 0
-98 -64 -103 -85 -6 -5 27 -15 50 -20 52 -19 6 -35 -61 -35 -145 l0 -81 82
-165 c45 -92 87 -166 95 -166 11 0 13 129 13 760 l0 760 -220 0 -220 0 0 23
c0 54 -73 76 -107 33z"/>
<path d="M5771 10599 c-94 -189 -171 -348 -171 -355 0 -42 44 -19 247 133
l113 84 136 -101 c170 -127 202 -146 217 -131 16 16 -11 77 -184 416 -112 220
-153 291 -168 293 -17 3 -45 -47 -190 -339z"/>
<path d="M3620 10838 c-79 -53 -102 -174 -49 -252 31 -46 74 -66 142 -66 103
0 161 66 155 177 -6 100 -58 154 -155 161 -48 3 -64 0 -93 -20z"/>
<path d="M8155 10815 c-96 -34 -130 -136 -81 -241 19 -41 33 -55 68 -73 24
-11 59 -21 76 -21 106 0 187 105 163 211 -13 57 -38 90 -91 117 -51 25 -79 27
-135 7z"/>
<path d="M4290 10763 c-14 -10 -47 -42 -75 -72 -27 -31 -111 -121 -185 -201
-75 -80 -168 -181 -208 -224 l-72 -80 0 -365 c1 -322 2 -362 15 -334 16 37 88
147 118 180 21 24 25 79 9 123 -8 22 -9 21 -30 -14 -23 -39 -61 -50 -64 -18
-3 34 3 68 18 110 l16 43 -37 40 c-31 35 -36 46 -31 73 14 72 102 75 108 4 3
-32 10 -35 28 -13 18 22 67 19 80 -4 19 -36 11 -68 -26 -108 -34 -36 -36 -41
-30 -87 3 -27 10 -54 15 -59 10 -10 147 141 162 180 5 14 7 41 3 60 -5 27 -10
33 -23 27 -57 -24 -80 -12 -88 43 -4 33 -1 45 16 62 l22 22 -21 28 c-41 58
-17 141 41 141 23 0 32 -6 40 -27 6 -16 8 -40 5 -55 -6 -28 2 -36 19 -19 18
17 66 0 76 -26 14 -38 11 -50 -22 -88 -29 -32 -31 -40 -25 -81 3 -25 8 -50 11
-55 3 -5 24 3 46 17 22 14 50 29 63 34 24 9 36 55 36 141 0 37 -1 39 -33 39
-45 0 -57 15 -57 70 0 50 21 80 54 80 14 0 17 5 11 23 -40 132 -24 187 55 187
29 0 43 -6 54 -22 20 -29 20 -95 1 -142 l-16 -37 29 -10 c45 -16 67 -83 42
-130 -8 -13 -21 -19 -45 -19 l-35 0 0 -75 c0 -83 2 -86 77 -130 l41 -25 16 40
c21 52 20 67 -4 97 -28 36 -26 79 5 99 21 14 31 15 50 6 24 -11 25 -10 25 24
0 51 15 74 49 74 36 0 51 -18 58 -68 4 -31 0 -44 -22 -70 -22 -27 -24 -33 -11
-38 21 -8 37 -69 26 -99 -13 -35 -47 -41 -82 -15 -16 12 -32 20 -34 17 -2 -2
-10 -29 -16 -60 l-12 -56 46 -48 c25 -26 57 -61 70 -77 47 -56 67 5 23 70 -29
43 -31 61 -9 92 19 28 51 28 81 0 l23 -21 0 31 c0 50 56 69 100 34 35 -28 30
-69 -15 -110 l-37 -34 21 -22 c39 -41 21 -126 -27 -126 -9 0 -29 12 -44 27
-24 23 -30 25 -38 13 -17 -26 -11 -70 14 -103 49 -66 137 -253 136 -291 0 -6
-17 21 -38 59 -75 140 -180 281 -285 381 -110 104 -185 154 -233 154 -51 0
-146 -83 -272 -238 -88 -108 -203 -315 -243 -437 -19 -60 -20 -73 -9 -104 16
-45 15 -82 -4 -119 -32 -61 -123 -67 -170 -11 -30 35 -33 73 -11 126 21 50 23
743 2 743 -16 0 -202 -123 -337 -223 -310 -229 -645 -555 -886 -863 -101 -129
-287 -406 -371 -554 -713 -1245 -795 -2779 -221 -4100 470 -1080 1358 -1955
2443 -2405 174 -72 426 -159 573 -196 l92 -24 0 -131 c0 -154 25 -271 84 -400
153 -331 550 -691 887 -804 146 -49 293 -14 514 123 276 172 508 422 631 681
63 133 84 231 84 396 l0 135 93 24 c456 115 1021 378 1427 663 980 689 1647
1706 1880 2868 237 1179 -4 2416 -665 3420 -309 468 -708 884 -1165 1213 -102
73 -373 247 -384 247 -3 0 -6 -171 -6 -381 l0 -381 25 -30 c46 -54 28 -141
-36 -174 -45 -23 -77 -18 -115 20 -30 30 -34 40 -34 84 0 39 6 57 25 80 l25
30 0 477 0 478 -168 171 c-92 94 -221 226 -287 294 -65 67 -122 122 -126 122
-4 0 -103 -105 -220 -232 -118 -128 -251 -272 -296 -321 l-83 -89 0 -322 0
-321 35 58 c19 31 58 88 85 125 46 60 51 70 45 102 -8 44 -14 50 -26 28 -17
-30 -41 -49 -58 -46 -21 5 -20 92 3 135 15 31 15 32 -19 66 -25 25 -35 44 -35
66 0 35 30 71 58 71 25 0 52 -31 52 -58 0 -26 8 -27 34 -7 29 22 53 18 71 -9
21 -31 12 -66 -26 -102 -24 -23 -29 -36 -29 -73 0 -77 10 -77 82 -3 36 37 73
78 82 92 21 31 22 110 2 110 -8 0 -18 -4 -21 -10 -9 -14 -48 -13 -63 2 -19 19
-14 82 8 110 19 25 19 26 0 43 -27 24 -28 105 -2 128 22 20 53 22 70 5 7 -7
12 -32 12 -55 0 -41 1 -43 20 -33 35 19 74 -8 78 -53 3 -32 -2 -43 -28 -67
-31 -29 -31 -30 -20 -85 6 -30 13 -55 15 -55 2 0 21 11 41 25 21 14 48 28 60
31 27 7 34 29 34 117 l0 67 -35 0 c-24 0 -37 6 -45 19 -25 48 -2 119 42 128
15 3 28 7 28 8 0 1 -7 22 -15 45 -19 55 -19 110 1 138 18 27 84 31 108 7 25
-25 30 -79 12 -131 -20 -60 -20 -64 2 -64 30 0 53 -34 54 -79 0 -50 -14 -69
-55 -73 -31 -3 -32 -4 -35 -59 -4 -74 9 -103 58 -134 67 -42 67 -42 85 20 17
56 17 57 -5 72 -17 12 -20 23 -18 60 4 57 23 73 68 56 l30 -11 0 38 c0 21 3
45 6 54 8 21 58 21 78 0 23 -22 21 -96 -3 -125 -19 -23 -19 -24 0 -48 35 -44
17 -121 -28 -121 -8 0 -28 9 -43 20 l-28 20 -11 -32 c-21 -59 -14 -88 32 -137
23 -25 52 -58 64 -73 11 -16 26 -28 32 -28 18 0 13 57 -9 92 -49 80 4 152 72
98 l26 -19 0 24 c0 14 5 32 12 40 18 21 66 19 90 -5 31 -31 25 -64 -20 -106
-38 -36 -39 -38 -20 -51 28 -20 36 -77 16 -108 -22 -33 -50 -32 -86 5 l-29 30
-10 -37 c-10 -34 -7 -42 28 -98 54 -85 96 -171 114 -232 9 -29 14 -53 12 -53
-2 0 -22 35 -46 78 -102 187 -233 350 -358 446 -72 55 -113 76 -150 76 -38 0
-133 -71 -211 -159 -116 -129 -282 -417 -319 -552 -16 -59 -16 -69 -3 -97 33
-68 -26 -152 -105 -152 -48 0 -93 44 -100 96 -3 23 -1 50 5 59 12 22 4 43 -88
225 -139 278 -294 511 -438 662 -148 154 -294 247 -365 234 -130 -25 -290
-160 -476 -401 -106 -136 -198 -291 -307 -512 -82 -167 -84 -172 -78 -225 7
-64 -3 -91 -49 -118 -48 -30 -83 -26 -123 14 -29 29 -34 41 -34 79 0 34 6 53
25 75 l25 30 0 465 0 464 -197 204 c-109 112 -247 255 -308 317 l-110 113 -25
-18z m1740 -1175 c47 -108 78 -168 87 -168 8 0 94 9 190 21 96 11 177 18 180
15 3 -3 -45 -73 -106 -155 -61 -83 -111 -154 -111 -159 0 -5 50 -75 110 -157
61 -82 110 -153 110 -158 0 -4 -15 -6 -32 -3 -52 9 -304 36 -331 36 -22 0 -32
-17 -99 -171 -41 -94 -78 -171 -83 -171 -5 0 -42 76 -82 168 -40 92 -75 169
-78 172 -4 5 -285 -23 -354 -35 -46 -8 -44 -4 79 162 56 75 103 142 106 149 3
7 -47 82 -110 167 -63 85 -113 155 -111 157 2 2 84 -6 184 -17 100 -12 187
-21 195 -21 7 0 32 46 56 103 82 194 110 251 119 241 5 -5 41 -84 81 -176z
m2729 -838 c169 -47 276 -123 353 -251 70 -115 83 -160 82 -289 0 -104 -2
-120 -27 -173 -15 -32 -32 -55 -37 -52 -12 7 -114 132 -148 180 -23 32 -23 37
-13 103 12 77 39 147 77 203 31 46 24 69 -22 69 -43 0 -93 -21 -118 -48 -17
-20 -17 -22 -2 -28 10 -4 28 -2 42 5 l24 11 -20 -28 c-24 -33 -60 -132 -60
-167 0 -14 -11 -37 -25 -50 -22 -23 -31 -25 -132 -26 -68 0 -132 -6 -174 -17
l-67 -18 29 27 c17 16 29 37 29 52 0 35 -41 91 -70 95 -43 6 -47 21 -14 47 28
22 30 28 25 62 -8 47 4 123 24 142 12 12 17 12 30 1 11 -9 19 -10 26 -3 32 32
-32 85 -76 65 -33 -15 -66 -95 -72 -172 -6 -77 -28 -114 -87 -150 -38 -24 -43
-25 -77 -12 -44 17 -124 4 -177 -28 -49 -30 -41 -46 41 -84 95 -44 213 -129
233 -167 9 -18 22 -53 30 -79 8 -27 22 -58 32 -70 17 -22 18 -21 17 38 0 96
49 143 132 127 43 -8 103 -63 103 -95 0 -12 4 -30 10 -40 8 -15 4 -22 -24 -39
-18 -12 -43 -21 -56 -21 -24 0 -23 -18 2 -34 21 -13 67 10 81 41 10 22 10 21
37 -15 15 -21 39 -46 54 -56 24 -15 26 -22 20 -49 -9 -40 -88 -189 -113 -211
-13 -12 -32 -16 -57 -14 -32 3 -42 9 -63 44 -14 22 -41 63 -58 89 -19 28 -33
62 -33 79 0 33 -15 64 -25 54 -4 -3 -23 5 -42 18 -34 23 -63 31 -63 18 0 -4
14 -31 31 -61 17 -30 27 -58 23 -62 -5 -5 -45 -21 -89 -36 -44 -16 -84 -32
-89 -37 -6 -5 3 -33 22 -72 39 -79 41 -129 8 -194 -32 -63 -49 -77 -75 -63
-48 26 -57 -4 -12 -41 16 -14 32 -34 35 -46 4 -12 19 -23 35 -27 31 -7 95 -85
139 -170 23 -45 25 -63 28 -177 2 -125 3 -129 34 -178 65 -102 59 -173 -23
-251 l-49 -47 -45 14 c-26 8 -60 14 -76 14 -20 0 -42 12 -69 36 -41 37 -64 40
-82 12 -8 -13 -7 -26 1 -48 6 -16 10 -30 8 -30 -2 0 -17 23 -35 50 -21 33 -41
52 -59 56 -14 3 -30 7 -35 8 -18 4 49 68 115 111 45 29 73 55 79 72 5 16 16
39 24 53 61 103 79 160 52 160 -9 0 -26 -21 -40 -47 -13 -27 -34 -68 -46 -93
-13 -25 -26 -52 -30 -60 -4 -8 -38 -32 -76 -53 -85 -47 -112 -71 -131 -120
-33 -81 -115 -113 -163 -62 -20 21 -22 28 -12 50 6 14 16 25 21 25 5 0 11 10
13 23 3 19 11 23 54 27 62 6 80 20 96 71 6 22 35 66 63 99 45 51 53 68 57 110
3 32 16 65 36 97 33 51 28 66 -14 38 -32 -20 -63 -88 -64 -135 0 -27 -10 -46
-46 -85 -24 -27 -56 -74 -69 -102 l-24 -53 -47 0 c-48 0 -94 -27 -94 -55 0 -6
-8 -28 -18 -48 -14 -29 -20 -35 -30 -25 -16 16 -15 44 3 72 15 22 14 24 -6 29
-34 9 -17 29 40 49 68 23 78 32 93 80 8 26 27 53 57 79 l46 39 1 73 c2 92 21
132 74 153 82 33 157 184 91 184 -13 0 -21 -9 -26 -30 -11 -52 -41 -80 -87
-80 -35 0 -47 6 -85 45 -34 33 -43 49 -38 62 4 10 7 26 7 36 -1 28 25 19 37
-13 14 -42 41 -40 41 4 0 46 -34 88 -69 84 -20 -2 -26 -9 -27 -28 -3 -64 -36
-77 -95 -37 -79 53 -145 205 -134 308 10 83 13 85 81 52 32 -15 60 -28 61 -28
1 -1 -5 -25 -13 -54 -20 -65 -12 -136 16 -151 37 -20 87 -12 123 20 19 17 40
30 46 30 6 0 11 5 11 10 0 23 -33 21 -82 -5 -50 -26 -52 -26 -65 -9 -16 22
-10 61 18 116 11 21 19 44 19 51 0 8 -32 28 -72 46 -118 52 -117 50 -73 115
20 31 43 56 50 56 8 0 43 -38 80 -84 l66 -83 42 14 c56 20 220 12 246 -11 30
-27 45 -18 98 62 87 130 88 140 28 186 -37 29 -164 86 -189 86 -46 0 -70 169
-42 300 35 165 152 315 316 404 107 58 266 73 399 36z m-3719 -160 c11 -16 27
-46 34 -67 10 -30 20 -39 47 -46 19 -5 35 -10 37 -12 2 -1 -8 -15 -22 -30 -38
-41 -54 -100 -35 -133 8 -15 27 -31 42 -36 48 -17 76 23 102 147 6 32 68 66
118 67 l28 0 -25 -32 c-40 -53 -86 -160 -86 -201 l0 -37 -97 6 c-115 7 -207
-10 -290 -55 l-53 -29 -17 36 c-9 20 -55 73 -100 117 -46 45 -80 84 -76 88 14
15 60 5 108 -23 31 -19 64 -30 88 -30 42 0 43 -2 22 -34 -18 -27 -7 -69 20
-80 59 -22 115 12 115 72 0 40 -13 67 -52 109 l-30 31 25 16 c20 14 25 27 29
74 6 62 22 112 37 112 5 0 19 -13 31 -30z m4615 -6 c29 -11 46 -58 34 -93 -16
-46 -7 -61 35 -54 31 5 37 2 47 -21 11 -23 9 -29 -11 -51 -13 -14 -28 -25 -33
-25 -6 0 -19 -7 -29 -17 -16 -15 -18 -36 -18 -247 1 -288 18 -403 68 -460 43
-50 44 -94 1 -130 -17 -14 -39 -26 -50 -26 -30 0 -22 -24 14 -43 49 -27 71
-71 70 -137 -1 -30 -13 -143 -27 -250 -71 -554 -102 -1098 -76 -1310 5 -41 22
-144 37 -229 24 -134 30 -154 49 -161 12 -5 24 -16 28 -25 12 -33 6 -93 -13
-116 l-18 -23 -722 0 -722 -1 -35 38 c-30 33 -35 44 -32 80 3 38 7 44 44 62
49 24 47 45 -5 45 -123 0 -158 -176 -53 -267 11 -9 13 -59 12 -235 0 -122 -3
-232 -5 -243 -2 -11 -4 -41 -4 -66 -1 -41 -4 -47 -33 -60 -41 -18 -58 -50 -58
-112 0 -38 5 -53 25 -72 13 -14 30 -25 38 -25 19 0 14 -54 -24 -282 -32 -188
-53 -272 -89 -355 -19 -45 -27 -53 -49 -53 -28 0 -89 16 -108 28 -19 12 13
123 44 148 14 12 23 26 20 31 -4 5 9 133 27 284 36 291 51 494 63 834 10 276
11 270 -6 270 -30 0 -47 -128 -61 -440 -6 -126 -19 -300 -30 -385 -11 -85 -21
-182 -23 -215 -5 -73 -34 -210 -52 -245 -7 -14 -22 -34 -34 -44 -32 -29 -27
-46 14 -46 19 0 35 -3 35 -7 -1 -5 -35 -23 -78 -42 -128 -57 -161 -81 -218
-152 -62 -77 -87 -89 -142 -66 -20 9 -48 19 -62 23 -61 17 -168 103 -197 158
-20 39 -19 82 5 136 32 71 45 157 34 218 -9 50 -8 52 8 37 10 -9 28 -43 40
-76 12 -33 35 -75 51 -94 l29 -33 -34 -21 c-40 -25 -50 -54 -31 -91 45 -88
175 -22 175 89 0 18 -7 47 -14 66 l-15 35 32 0 c23 0 42 10 72 39 51 49 152
91 139 58 -3 -8 2 -20 11 -27 21 -17 45 3 45 39 0 57 -38 64 -130 27 l-60 -25
0 32 c1 73 21 281 41 411 22 146 22 150 -15 321 -21 94 -11 125 79 260 89 132
127 225 92 225 -7 0 -21 -16 -32 -36 l-19 -35 -23 38 c-46 75 -26 149 60 231
61 56 72 60 119 36 l30 -16 -21 -21 c-52 -57 -70 -173 -71 -467 -1 -102 -5
-232 -10 -290 -6 -58 -12 -152 -15 -210 -3 -58 -10 -142 -16 -186 -12 -85 -8
-119 14 -112 38 13 72 347 86 843 7 256 10 278 47 362 19 42 29 48 92 48 48 0
57 4 83 33 20 22 29 43 29 66 0 41 4 43 197 96 174 47 260 73 269 83 17 17
-52 16 -136 -3 -88 -20 -296 -59 -312 -60 -36 -1 78 87 183 141 49 25 125 49
155 49 31 0 130 -69 219 -152 57 -54 82 -70 106 -72 45 -2 48 21 6 39 -20 8
-39 24 -43 37 -4 13 -43 60 -87 106 -44 45 -76 83 -71 83 5 1 63 3 129 4 112
2 124 4 181 33 119 60 218 166 289 307 25 50 52 122 61 160 9 39 19 82 24 97
11 37 -11 68 -34 49 -9 -7 -16 -26 -16 -41 0 -62 -82 -269 -138 -347 -27 -37
-149 -120 -220 -149 -31 -12 -93 -28 -137 -34 -92 -13 -213 -10 -180 4 31 14
138 91 162 117 76 84 114 238 132 534 6 99 19 212 27 250 24 105 28 135 15
135 -36 0 -67 -126 -81 -339 -17 -242 -30 -287 -133 -461 -30 -52 -63 -85
-155 -157 l-83 -66 -65 6 c-36 2 -68 7 -71 10 -3 3 13 24 35 47 47 49 89 129
98 186 6 40 8 42 48 48 67 11 220 74 255 106 47 44 20 72 -30 31 l-24 -19 -47
88 c-50 91 -91 217 -103 310 -8 69 14 140 80 257 25 45 51 96 56 113 10 26 16
30 47 30 48 0 128 41 188 97 30 27 50 39 53 32 2 -7 22 -32 44 -56 28 -31 53
-47 84 -54 27 -7 48 -20 55 -33 6 -11 35 -50 63 -86 29 -36 59 -78 68 -95 18
-35 46 -147 48 -190 3 -55 -12 -268 -27 -401 -9 -73 -14 -179 -12 -236 3 -89
6 -108 26 -132 28 -36 28 -48 -3 -94 l-25 -38 26 -99 c22 -83 26 -124 28 -245
1 -126 -2 -155 -22 -217 -42 -136 -119 -185 -289 -186 -79 -1 -101 3 -158 27
l-66 29 -65 -22 c-52 -17 -89 -21 -192 -21 l-127 0 -19 35 c-14 25 -26 35 -43
35 -26 0 -30 -12 -8 -30 8 -7 15 -25 15 -39 0 -15 6 -36 14 -47 13 -18 33 -19
303 -26 420 -9 511 0 598 60 51 35 147 169 179 249 46 113 65 327 66 758 0
326 -8 477 -40 765 -11 96 -20 194 -20 218 0 64 23 110 63 127 50 21 52 38 6
74 -49 40 -52 76 -9 124 16 19 34 47 41 63 14 36 24 562 12 619 -7 33 -16 44
-48 61 -69 35 -57 101 17 89 44 -8 49 3 18 42 -25 33 -25 54 1 87 22 27 28 30
54 20z m-6270 -66 c4 -13 21 -54 38 -91 l31 -69 -47 -40 c-37 -31 -47 -46 -47
-69 0 -67 46 -99 104 -75 26 11 36 24 47 57 l14 44 45 -3 c40 -3 107 7 163 24
37 11 15 -23 -28 -44 -58 -28 -129 -94 -162 -149 -14 -24 -26 -43 -28 -43 -2
0 -16 11 -31 25 -15 14 -61 42 -102 62 -64 32 -84 37 -141 37 -138 -2 -255
-60 -304 -151 -15 -29 -32 -81 -38 -115 -5 -35 -11 -73 -14 -84 -3 -16 -34
-37 -107 -74 -119 -60 -138 -74 -138 -106 0 -21 27 -36 117 -65 33 -10 125
-139 164 -229 69 -159 209 -395 324 -545 l65 -85 -24 -67 c-14 -36 -33 -74
-43 -85 -44 -44 -404 -69 -488 -34 -56 24 -75 44 -75 81 0 40 -33 143 -71 217
-16 32 -29 62 -29 67 0 11 109 171 116 171 3 0 14 -4 24 -10 28 -15 49 15 27
37 -15 15 -20 15 -46 2 -16 -8 -125 -112 -241 -231 l-211 -218 7 -37 c4 -21
18 -76 32 -123 34 -117 51 -198 52 -245 1 -22 9 -70 19 -107 l17 -67 -35 -23
c-20 -13 -34 -27 -31 -32 3 -5 36 -8 74 -7 50 2 85 -3 130 -20 84 -30 94 -43
28 -36 -118 13 -114 -4 42 -180 l19 -23 -48 0 c-47 0 -51 2 -120 73 -39 39
-91 87 -114 106 -88 69 -118 138 -196 452 -48 188 -55 230 -55 314 l0 96 150
158 c165 175 194 200 327 290 127 85 189 111 265 111 60 0 61 0 44 19 -24 26
-112 37 -161 21 -20 -6 -84 -43 -143 -82 -89 -57 -140 -103 -300 -265 -107
-108 -201 -207 -209 -220 -10 -15 -17 -56 -20 -116 -4 -78 -1 -106 20 -182 14
-49 31 -137 37 -195 7 -61 23 -140 40 -190 16 -47 36 -114 45 -149 9 -35 34
-104 57 -154 51 -112 48 -144 -13 -200 -23 -20 -70 -51 -105 -67 -95 -46 -144
-114 -144 -203 0 -58 32 -166 61 -206 39 -54 96 -81 203 -98 110 -16 136 -31
136 -79 0 -66 -83 -196 -212 -331 -102 -106 -123 -151 -123 -263 0 -76 4 -93
34 -158 35 -74 90 -136 151 -167 37 -19 164 -45 221 -45 42 0 45 -4 29 -45 -9
-25 -13 -26 -53 -20 -67 11 -178 45 -227 71 -77 40 -89 53 -151 172 -10 18
-23 64 -30 103 -15 83 -2 225 33 359 16 64 22 115 22 208 1 134 4 140 63 126
50 -12 63 -31 63 -93 0 -40 -10 -80 -35 -141 -19 -46 -32 -86 -31 -88 2 -2 18
12 35 30 47 50 84 133 89 199 4 54 2 60 -25 88 -17 16 -50 35 -74 42 -37 10
-54 9 -109 -6 -36 -10 -88 -20 -115 -22 l-51 -5 -22 46 c-21 41 -22 51 -12
105 6 33 17 81 25 108 69 233 76 371 52 1037 -20 529 -16 546 155 640 79 43
100 69 139 177 59 162 69 171 347 345 21 14 21 16 7 44 -18 34 -12 71 16 96
12 11 19 30 19 55 0 32 7 43 46 78 25 22 77 52 115 67 38 15 75 34 83 43 7 9
16 40 18 69 10 101 110 250 182 268 23 5 26 11 26 48 0 56 -24 152 -55 221
-14 32 -25 59 -25 61 0 8 42 3 61 -7 11 -5 36 -35 55 -65 20 -30 42 -58 50
-61 18 -7 18 -25 -3 -60 -24 -43 -11 -81 34 -99 43 -18 73 -9 98 30 15 23 15
28 -4 72 -12 25 -21 51 -21 56 0 12 111 158 121 158 4 0 11 -10 14 -22z m2998
-223 c4 -25 18 -68 33 -96 23 -47 25 -58 19 -128 -4 -42 -13 -88 -21 -102 -13
-27 -129 -139 -143 -139 -5 0 -14 14 -22 31 -10 25 -10 46 -1 101 17 95 15
110 -13 152 -22 32 -22 36 -7 36 10 0 31 -13 47 -30 16 -16 32 -30 37 -30 4 0
5 20 1 45 -5 43 -5 45 19 45 35 0 37 5 24 64 -8 33 -9 61 -3 79 12 37 23 27
30 -28z m2039 -21 c18 -6 34 -18 36 -27 4 -22 -16 -22 -39 -1 -17 15 -19 15
-31 -11 -12 -26 -10 -30 22 -56 l34 -29 -45 0 c-37 0 -59 8 -109 41 -34 22
-80 47 -101 56 -22 8 -39 19 -39 24 0 15 93 10 114 -6 30 -23 55 -18 84 15 18
21 28 26 34 18 4 -7 22 -18 40 -24z m469 -131 c37 -19 70 -48 107 -93 29 -36
83 -98 119 -139 l65 -74 -7 -73 c-7 -73 -6 -74 35 -148 40 -74 41 -76 38 -163
l-3 -88 -42 2 c-62 2 -119 36 -153 91 -16 26 -30 59 -30 73 0 26 -49 180 -70
218 -6 12 -37 38 -68 58 -90 57 -139 109 -158 170 -24 75 -57 107 -136 131
-72 23 -112 19 -152 -15 -20 -17 -20 -17 -7 0 8 10 24 23 35 29 32 17 214 46
297 47 63 1 84 -3 130 -26z m-3575 -37 c19 -20 42 -66 65 -130 30 -87 41 -106
87 -150 29 -29 52 -60 52 -71 0 -12 -22 -42 -51 -70 -50 -47 -51 -48 -85 -36
-19 7 -38 10 -44 6 -20 -12 -50 17 -64 63 l-14 47 -12 -30 c-6 -16 -18 -43
-26 -58 -16 -33 -18 -80 -5 -106 8 -14 1 -22 -35 -45 -39 -25 -52 -28 -97 -23
-29 3 -64 10 -79 16 -25 9 -26 12 -15 40 14 37 -4 86 -29 77 -19 -7 -93 24
-112 47 -12 14 -10 26 13 85 26 67 26 68 11 135 -9 38 -16 90 -16 117 0 49 1
50 45 70 42 19 135 44 200 53 17 2 64 2 105 0 68 -4 78 -8 106 -37z m-1934
-42 c25 -8 54 -24 63 -34 17 -19 17 -22 -2 -72 -21 -54 -29 -59 -78 -44 -11 4
-27 2 -35 -3 -12 -9 -12 -13 0 -37 8 -15 23 -29 33 -32 13 -3 17 -15 17 -56 0
-52 -21 -91 -99 -183 -32 -38 -83 -31 -131 17 -22 22 -43 54 -47 70 -3 17 -9
30 -14 30 -35 0 3 -91 60 -143 24 -22 51 -37 66 -37 18 0 25 -5 25 -19 0 -28
-13 -33 -79 -34 -46 0 -69 6 -121 34 -68 36 -96 68 -70 77 30 11 78 69 89 107
6 22 11 75 11 118 0 88 13 127 61 182 62 71 154 92 251 59z m4796 -148 c40
-20 75 -43 78 -51 4 -8 -14 -46 -37 -85 -32 -51 -48 -69 -59 -64 -83 36 -119
39 -269 22 -19 -2 -34 11 -77 69 l-53 72 27 20 c58 41 141 62 232 58 75 -3 94
-8 158 -41z m-1968 -59 c6 -29 19 -67 30 -85 18 -29 25 -33 58 -30 l37 3 5 55
6 55 4 -60 c4 -52 2 -63 -18 -87 -13 -15 -29 -28 -36 -28 -20 0 -127 -73 -169
-116 -22 -21 -48 -57 -59 -79 -12 -22 -42 -64 -69 -93 -60 -66 -63 -84 -57
-331 7 -275 -11 -383 -82 -487 -96 -138 -220 -194 -306 -137 -25 16 -26 18 -8
21 115 19 212 93 272 210 69 133 73 159 81 587 10 502 11 505 201 605 52 27
96 50 97 50 1 0 7 -24 13 -53z m-2507 32 c-37 -11 -73 -52 -73 -84 0 -41 62
-75 100 -55 24 13 25 27 4 51 -9 10 -14 25 -11 34 8 18 58 20 75 3 19 -19 14
-66 -8 -85 -16 -14 -20 -30 -20 -83 0 -75 24 -122 98 -196 l42 -42 0 -236 c0
-198 -2 -236 -14 -236 -8 0 -24 12 -36 28 -21 26 -22 35 -18 194 2 138 0 169
-11 173 -8 3 -21 -1 -30 -9 -12 -12 -12 -20 -3 -41 8 -16 12 -84 12 -183 0
-137 -3 -161 -19 -188 -16 -27 -20 -55 -22 -180 -3 -162 4 -191 56 -232 14
-11 25 -27 25 -36 0 -12 9 -16 34 -16 42 0 62 21 46 49 -9 19 -8 20 12 12 53
-19 20 -77 -61 -108 -37 -15 -74 -18 -193 -17 l-148 1 0 -23 c0 -13 6 -68 14
-122 8 -53 17 -140 21 -192 3 -52 19 -228 35 -390 34 -355 48 -608 56 -1040 7
-356 2 -400 -53 -499 -55 -100 -207 -214 -300 -227 l-53 -7 0 35 c0 34 2 36
41 42 66 11 119 44 199 125 98 98 134 171 127 252 -6 67 -22 101 -93 196 -79
105 -96 142 -92 199 3 46 5 50 63 90 98 69 127 150 86 240 -20 44 -61 75 -139
104 -57 21 -78 54 -61 97 52 132 54 151 53 488 0 274 -3 342 -22 474 -12 85
-22 164 -22 177 0 31 47 84 74 84 56 0 128 32 177 79 l49 47 0 123 c0 95 -4
129 -17 154 -21 40 -33 351 -14 370 15 15 14 23 -5 41 -21 21 -31 20 -45 -5
-8 -17 -8 -24 3 -35 10 -10 12 -46 10 -153 -3 -131 -4 -141 -27 -165 -13 -14
-29 -26 -35 -26 -7 0 -10 73 -10 220 0 173 3 228 15 256 14 33 17 35 42 28 46
-15 178 -11 197 5 31 26 12 36 -67 36 -42 0 -81 5 -87 11 -8 8 -4 26 15 65 25
55 32 103 16 114 -5 3 -12 -5 -14 -17 -3 -16 -5 -13 -6 10 -1 24 -10 43 -31
62 -24 22 -30 36 -30 70 0 55 42 100 92 99 l33 -1 -32 -9z m5207 -194 c11 -18
27 -51 35 -75 13 -37 13 -41 0 -36 -19 7 -45 -20 -45 -48 0 -16 -10 -27 -35
-39 -43 -21 -55 -21 -55 -3 0 8 -13 28 -29 44 l-28 31 43 80 c24 44 44 88 44
96 0 14 3 14 25 -1 13 -9 34 -31 45 -49z m-3041 -7 c0 -7 -6 -42 -12 -77 -8
-41 -10 -89 -5 -130 9 -81 1 -409 -13 -546 -6 -54 -22 -135 -36 -179 -21 -66
-34 -89 -78 -135 -30 -31 -68 -65 -87 -76 l-33 -19 18 24 c46 65 115 239 102
260 -9 15 -31 1 -45 -28 -7 -15 -21 -52 -31 -82 -11 -30 -29 -65 -42 -78 -20
-22 -90 -72 -101 -72 -14 0 -28 114 -24 196 4 73 2 94 -8 94 -35 0 -46 -195
-18 -309 9 -36 40 -124 69 -196 97 -236 125 -386 160 -850 14 -181 34 -411 44
-510 23 -207 35 -594 25 -743 l-7 -102 -58 0 c-70 0 -102 -22 -101 -70 0 -3 3
-15 7 -28 6 -20 4 -21 -20 -12 -70 27 -119 1 -155 -82 -26 -61 -67 -118 -84
-118 -7 0 -23 11 -36 25 -31 33 -69 32 -115 -5 -66 -52 -66 -53 -27 149 26
141 27 157 27 481 -1 355 -11 479 -59 732 -24 124 -30 138 -47 121 -8 -8 -5
-52 10 -154 38 -262 45 -390 37 -686 -8 -327 -15 -408 -46 -525 l-23 -87 -68
-46 c-60 -42 -71 -46 -96 -38 -30 11 -32 20 -14 88 5 22 20 145 31 273 34 360
26 662 -28 1150 -23 206 -42 395 -42 422 0 57 -7 80 -25 80 -19 0 -28 -158
-15 -265 10 -89 34 -391 50 -635 14 -207 11 -391 -10 -663 -11 -141 -22 -280
-26 -308 -8 -57 3 -54 -103 -31 l-43 10 -24 -52 c-23 -50 -23 -55 -11 -122 9
-43 10 -79 5 -95 -8 -24 -14 -26 -89 -32 -103 -8 -150 -30 -224 -106 l-59 -61
-111 1 c-60 0 -119 4 -130 8 -18 7 -18 8 5 24 14 8 62 30 108 47 75 29 87 38
150 108 37 42 93 104 125 138 57 61 58 62 55 115 l-3 54 -47 3 c-25 2 -51 8
-56 15 -6 8 -3 47 9 112 25 137 42 362 35 465 -3 47 -8 220 -12 385 l-6 301
30 74 c47 116 138 401 193 603 22 82 27 90 56 102 48 20 62 57 39 100 -11 20
-16 41 -12 52 29 75 47 432 26 518 -13 54 -14 52 20 64 42 14 48 37 17 69 -37
39 -57 93 -57 154 1 48 3 55 33 73 111 70 -4 232 -122 170 -43 -22 -53 -66
-30 -130 10 -28 8 -39 -13 -86 -23 -51 -52 -83 -123 -142 l-29 -25 37 -48 c39
-50 43 -69 31 -158 -5 -36 -11 -46 -26 -46 -28 0 -76 -27 -88 -49 -16 -31 -12
-83 10 -126 36 -70 23 -119 -48 -182 -39 -35 -45 -45 -36 -60 20 -33 75 -53
149 -53 60 -1 68 -2 53 -14 -33 -24 -19 -29 72 -22 50 4 90 5 90 3 0 -3 -23
-13 -50 -22 -28 -9 -72 -32 -99 -50 -27 -19 -52 -31 -55 -28 -3 4 -36 9 -73
12 l-67 6 -36 85 c-28 65 -42 87 -61 94 -25 9 -26 9 -11 50 11 33 13 67 6 166
-11 168 -9 202 9 236 8 16 23 52 32 79 27 77 164 372 224 480 76 136 116 172
216 189 22 4 63 14 91 23 48 15 52 15 95 -8 63 -33 140 -30 249 9 124 44 140
47 140 22 0 -29 -79 -105 -124 -120 -46 -15 -117 -6 -148 19 -18 15 -27 16
-45 8 -25 -11 -30 -39 -10 -54 25 -20 108 -35 164 -31 157 11 306 163 236 240
-24 27 -59 22 -185 -22 -139 -49 -200 -52 -265 -15 -43 26 -50 38 -34 64 8 12
22 9 88 -18 102 -43 178 -41 264 7 78 45 98 42 149 -18 l42 -50 75 0 c49 0 87
6 110 17 30 14 36 14 44 2 13 -22 -1 -60 -37 -106 -57 -69 -40 -87 25 -27 51
46 66 89 50 143 -9 31 -9 50 -1 79 22 72 204 226 201 170z m2558 -55 c4 -16 7
-58 7 -94 -1 -53 -8 -79 -34 -132 -42 -85 -98 -147 -133 -147 -15 0 -27 2 -27
5 0 3 16 37 37 75 46 88 51 163 15 224 -13 21 -19 43 -15 47 10 10 111 47 130
48 7 1 16 -11 20 -26z m-5548 -77 c9 -7 64 -39 124 -70 121 -63 147 -67 233
-35 47 18 58 19 65 8 48 -75 -99 -93 -257 -31 -93 37 -165 82 -188 117 -18 28
-4 35 23 11z m4141 -177 c0 -20 -7 -42 -15 -49 -21 -18 -20 -24 25 -75 43 -49
49 -65 26 -65 -20 0 -56 -53 -56 -82 0 -31 32 -61 93 -87 52 -23 56 -30 27
-56 -11 -10 -20 -24 -20 -32 0 -21 36 -15 52 9 21 32 43 12 58 -54 8 -32 25
-65 47 -89 35 -39 36 -59 3 -59 -24 0 -50 -37 -50 -72 0 -40 -50 -47 -118 -18
l-51 22 -3 67 -3 66 -35 -1 c-19 -1 -48 -3 -65 -5 -23 -3 -30 0 -32 16 -9 52
-14 65 -28 65 -12 0 -15 -14 -15 -64 0 -84 12 -95 81 -73 l50 16 -5 -27 c-2
-15 -7 -44 -11 -65 -7 -44 -5 -44 -127 8 -80 34 -114 33 -92 -2 6 -10 21 -23
33 -29 100 -51 202 -233 200 -357 -1 -73 -20 -162 -34 -162 -6 0 -22 34 -36
75 -44 131 -138 308 -194 368 -32 35 -56 53 -63 48 -9 -5 -4 -18 16 -44 81
-103 182 -313 205 -427 12 -59 12 -75 0 -102 -29 -70 -1 -100 43 -45 l22 27
31 -22 c16 -13 33 -23 36 -23 3 0 32 -17 63 -38 75 -51 126 -73 176 -79 66 -7
69 -9 52 -35 -33 -50 -66 -159 -66 -217 0 -63 29 -123 63 -129 24 -5 76 50 83
87 9 45 24 38 24 -12 0 -51 -27 -83 -78 -93 -28 -6 -36 -2 -69 34 -21 22 -51
57 -68 78 -61 77 -132 120 -432 260 -54 26 -56 28 -93 149 -38 126 -128 302
-177 346 l-26 24 6 -25 c3 -14 28 -77 55 -140 28 -63 64 -162 81 -220 18 -61
43 -122 61 -147 l30 -43 -42 -30 c-73 -54 -131 -54 -163 -3 -13 22 -27 32 -40
30 -33 -4 -30 -36 7 -74 49 -51 83 -66 137 -60 41 4 52 12 97 62 51 56 51 56
83 43 l32 -13 -56 -62 c-130 -144 -298 -160 -362 -33 -32 64 -30 124 6 193
l29 55 -30 68 c-16 38 -36 98 -43 134 -18 79 -20 352 -4 416 15 60 83 119 187
163 85 35 152 83 152 107 0 8 -13 20 -30 25 -28 10 -29 11 -13 35 18 28 13 94
-9 121 -7 9 -36 31 -65 49 -99 64 -115 121 -63 225 57 112 148 173 279 185
107 10 160 -28 81 -60 -22 -9 -47 -16 -55 -16 -8 0 -15 -5 -15 -11 0 -18 93
-5 123 17 15 10 36 39 48 63 21 41 23 42 36 26 7 -11 13 -35 13 -56z m-4009
21 c133 -62 249 -74 292 -31 20 19 21 20 57 1 49 -25 98 -82 104 -122 3 -18 7
-85 10 -148 3 -63 10 -151 16 -195 20 -150 26 -215 19 -215 -3 0 -27 22 -53
50 -52 56 -55 73 -30 171 14 53 14 74 4 137 -16 97 -38 172 -52 172 -6 0 -8
-9 -4 -22 3 -13 9 -62 13 -110 5 -68 2 -102 -12 -153 -9 -36 -21 -68 -26 -71
-5 -2 -30 23 -56 57 -26 35 -91 118 -144 185 -92 116 -223 324 -205 324 2 0
32 -13 67 -30z m127 -327 c34 -43 95 -123 136 -178 41 -55 122 -151 181 -212
80 -85 102 -113 86 -113 -46 0 -215 180 -330 350 -75 112 -147 230 -139 230 3
0 32 -35 66 -77z m1512 -136 c0 -58 5 -83 23 -118 l23 -43 -51 -51 c-55 -53
-85 -119 -85 -185 0 -30 4 -37 30 -47 58 -22 28 -101 -46 -119 -12 -3 -25 -12
-28 -21 -12 -30 -8 -173 4 -188 7 -9 11 -18 8 -20 -12 -12 -146 -17 -166 -6
-22 12 -21 13 20 44 39 30 45 40 62 110 l19 78 -31 29 c-58 52 -29 125 46 118
l37 -3 14 94 15 94 -26 49 -26 49 53 53 c35 35 59 70 71 104 10 29 22 52 26
52 5 0 8 -33 8 -73z m29 -434 c1 -98 -4 -142 -24 -228 -14 -59 -31 -116 -38
-126 -12 -17 -15 -15 -41 24 -23 36 -26 49 -21 87 9 68 13 77 43 89 32 14 72
68 72 100 0 33 -27 79 -51 86 -26 8 -20 39 19 105 l26 45 7 -30 c4 -16 7 -85
8 -152z m-1274 113 l46 -55 -39 -36 c-22 -19 -45 -49 -52 -65 -23 -55 -35 -29
-35 71 1 81 13 139 30 139 2 0 24 -24 50 -54z m3577 -30 c39 -9 115 -99 134
-159 22 -71 28 -242 12 -354 l-13 -92 -54 34 c-30 19 -59 36 -65 38 -6 2 0 25
14 58 21 47 25 69 25 169 0 125 1 122 -95 284 -22 36 -22 38 -4 33 10 -3 31
-8 46 -11z m-4234 -80 c115 -37 256 -39 434 -6 68 13 68 13 68 -15 0 -48 -36
-59 -211 -63 -161 -4 -188 -11 -169 -42 7 -12 42 -16 152 -20 160 -6 192 -17
226 -72 16 -28 76 -227 96 -319 l6 -27 -93 -8 c-123 -10 -141 -8 -217 27 -90
42 -141 46 -215 19 -148 -54 -156 -54 -179 -9 -15 30 -68 66 -119 80 -37 10
-39 12 -33 42 10 51 61 145 131 242 36 50 65 95 65 101 0 6 -12 21 -26 35 -41
38 -47 55 -28 85 l17 26 24 -30 c14 -19 42 -37 71 -46z m5276 -109 c36 -55 85
-87 131 -87 31 0 34 34 5 50 -22 12 -56 70 -41 70 6 0 15 -9 21 -20 15 -29 83
-60 129 -60 32 0 86 -21 120 -47 2 -1 -2 -10 -10 -19 -24 -29 -96 -55 -169
-60 -80 -6 -116 9 -160 68 -43 59 -85 158 -66 158 3 0 21 -24 40 -53z m-36
-94 l23 -35 -40 -43 c-61 -66 -64 -76 -41 -129 15 -37 19 -71 21 -177 1 -86
-3 -135 -10 -142 -8 -8 -59 -11 -145 -11 l-133 0 -19 -36 c-12 -23 -35 -43
-65 -58 -44 -22 -54 -23 -164 -16 l-117 7 7 36 c11 58 33 90 86 123 60 37 68
53 61 136 -4 56 -7 64 -36 84 -79 54 -116 108 -116 169 0 37 27 55 113 70 102
19 257 -8 257 -45 0 -24 -106 -56 -187 -56 -47 0 -53 -2 -53 -20 0 -11 7 -23
15 -26 23 -9 188 16 213 32 19 13 22 13 22 -1 0 -20 -75 -102 -109 -118 -23
-11 -27 -19 -31 -77 -6 -75 -35 -126 -78 -136 -15 -4 -30 -9 -34 -11 -11 -6 2
-31 19 -37 21 -9 79 21 91 47 9 21 10 21 18 3 6 -15 -1 -27 -29 -53 -21 -18
-37 -35 -37 -38 0 -12 69 -3 105 14 59 27 71 45 51 76 -30 46 1 62 40 20 19
-21 32 -25 79 -25 49 0 60 4 86 30 24 24 29 35 22 52 -4 13 -8 69 -8 125 0 68
-4 106 -12 114 -24 24 -13 55 43 122 32 37 60 67 63 67 3 -1 16 -17 29 -37z
m85 -105 c23 -17 50 -24 99 -26 60 -4 67 -6 58 -21 -5 -10 -25 -29 -44 -42
-47 -32 -55 -59 -38 -128 14 -54 14 -58 -13 -131 -15 -42 -30 -107 -34 -148
-5 -57 -11 -77 -25 -88 -28 -20 -36 -19 -123 28 -62 33 -89 41 -132 42 -40 1
-57 6 -65 19 -14 22 9 40 39 31 11 -3 56 -6 100 -4 110 2 122 13 106 105 -7
37 -11 104 -10 149 2 60 -2 89 -15 114 -18 34 -17 38 21 90 28 38 35 39 76 10z
m-5101 -268 c46 -22 147 -49 193 -51 17 -1 60 1 97 6 58 6 69 5 74 -9 10 -26
-18 -49 -139 -114 -132 -72 -234 -112 -283 -112 -65 0 -185 73 -288 173 -50
50 -86 92 -79 94 7 2 32 -4 56 -15 52 -23 101 -18 194 22 72 30 122 32 175 6z
m-283 -229 c20 -15 63 -47 95 -70 87 -60 128 -57 324 24 23 10 45 16 47 13 14
-14 136 -368 145 -422 6 -33 27 -109 46 -168 43 -135 43 -170 0 -267 -24 -52
-37 -98 -41 -146 -4 -39 -27 -185 -52 -325 -42 -244 -44 -261 -39 -400 9 -260
17 -282 144 -383 82 -65 126 -91 217 -126 38 -16 79 -32 90 -36 17 -7 14 -9
-19 -15 -23 -4 -97 0 -185 12 -166 22 -217 20 -316 -15 -77 -26 -102 -24 -129
15 -20 28 -20 63 -1 153 36 172 28 414 -20 560 -59 182 -56 330 11 512 102
277 87 355 -105 556 -168 176 -221 256 -221 329 0 50 -15 78 -41 78 -16 0 -19
-4 -14 -17 4 -10 11 -46 16 -80 12 -95 45 -149 195 -324 103 -120 129 -176
118 -253 -4 -23 -39 -120 -79 -217 -103 -249 -194 -547 -195 -637 -1 -20 -9
-95 -19 -167 -12 -83 -15 -138 -10 -153 13 -34 158 -189 188 -201 14 -6 45
-15 69 -21 35 -9 42 -15 42 -35 0 -43 -52 -43 -204 -1 -98 27 -150 36 -209 36
-65 0 -80 3 -98 21 -23 23 -22 30 11 124 30 83 60 241 67 355 4 74 1 123 -17
223 -35 199 -31 227 67 416 44 86 84 174 87 197 5 26 0 75 -13 140 -11 54 -27
155 -35 224 -27 215 -49 423 -50 465 l-1 40 45 6 c25 3 47 7 49 7 2 1 20 -11
40 -27z m4284 -44 c65 -34 64 -32 46 -164 -14 -105 -65 -254 -133 -393 -43
-86 -54 -115 -44 -122 18 -11 25 -10 42 7 19 19 119 197 148 262 18 41 22 45
29 28 26 -66 -5 -326 -55 -474 -32 -91 -32 -103 -5 -99 16 2 32 26 65 103 25
55 52 124 61 153 9 28 21 52 25 52 5 0 28 -10 51 -22 23 -11 78 -30 121 -42
104 -28 118 -45 118 -152 0 -81 -8 -111 -111 -421 -17 -51 -31 -104 -31 -117
0 -34 -13 -39 -47 -19 -38 21 -68 12 -58 -20 34 -107 37 -133 27 -199 -5 -37
-24 -96 -41 -132 -17 -36 -31 -80 -31 -98 0 -24 -9 -39 -38 -63 -21 -18 -47
-49 -57 -69 -26 -48 -55 -55 -112 -27 l-45 22 26 33 c14 19 41 68 60 110 93
204 126 371 125 629 0 95 -4 181 -8 191 -14 35 -23 -1 -27 -107 -10 -250 -14
-307 -29 -382 -26 -138 -96 -326 -147 -397 -21 -31 -164 -130 -205 -142 -40
-13 -104 13 -146 57 -54 59 -81 108 -125 228 -59 158 -85 204 -142 246 -41 31
-47 39 -34 46 22 12 87 1 132 -23 21 -10 66 -44 102 -76 71 -63 148 -104 195
-104 17 0 41 -7 53 -16 38 -26 59 7 25 39 -10 8 -45 23 -78 32 -50 15 -72 29
-130 86 -38 37 -66 71 -62 75 4 4 24 2 46 -4 43 -13 95 -7 112 15 20 23 -5 37
-59 34 -51 -2 -64 5 -77 49 -4 13 -24 48 -43 77 l-35 53 9 98 c19 220 11 260
-86 392 -89 121 -102 236 -45 374 49 120 53 172 21 274 -33 106 -34 145 -2 77
23 -51 71 -100 111 -115 11 -4 48 -11 80 -14 56 -6 66 -4 143 33 62 30 99 58
150 109 75 77 75 77 165 29z m2755 -844 l2 -283 -706 0 -707 0 6 173 c4 94 7
223 7 285 l0 112 698 -2 697 -3 3 -282z m91 -365 c12 -21 13 -31 3 -52 l-12
-26 -800 0 -800 0 -10 26 c-10 26 1 61 24 76 6 4 364 7 796 5 l784 -2 15 -27z
m-109 -371 l0 -204 -49 -80 c-75 -124 -160 -249 -182 -269 -20 -18 -52 -19
-621 -22 l-601 -4 7 32 c3 18 6 194 6 391 l0 359 720 0 720 0 0 -203z m-3526
9 c49 -20 136 -142 170 -238 25 -69 49 -114 103 -187 17 -23 17 -23 -2 -18
-11 3 -58 11 -105 17 -135 18 -313 -5 -476 -61 -129 -45 -203 -31 -204 37 0
36 12 35 47 -6 25 -29 42 -40 63 -40 54 0 75 42 68 138 -4 60 -20 97 -108 257
-28 49 -50 91 -50 92 0 2 48 3 108 3 59 1 136 7 172 15 74 16 164 12 214 -9z
m-3328 -98 c28 -6 68 -9 88 -6 l36 4 0 -43 c0 -51 7 -49 -150 -28 -58 8 -108
15 -112 15 -5 0 -8 18 -8 40 l0 40 48 -6 c26 -2 70 -10 98 -16z m2724 -44 c27
-11 55 -15 83 -11 l43 6 28 -80 c31 -87 27 -111 -13 -89 -12 6 -40 12 -62 12
-33 0 -48 -6 -77 -34 -21 -19 -66 -58 -102 -86 -36 -28 -84 -71 -108 -96 -23
-25 -55 -52 -70 -60 -42 -21 -149 -37 -178 -26 -31 12 -23 30 13 30 17 0 38
13 62 38 20 21 51 44 68 51 32 13 78 73 118 151 10 19 31 50 46 68 16 17 36
57 44 87 19 63 33 68 105 39z m2625 -397 l50 -102 588 -3 587 -2 -26 -40 -27
-40 -569 0 -569 0 -59 122 c-49 103 -56 125 -47 145 5 12 13 23 16 23 3 -1 29
-47 56 -103z m-3545 -1022 c0 -333 -2 -605 -4 -605 -2 0 -48 16 -102 36 -411
148 -801 360 -1153 627 -177 134 -405 338 -521 467 l-72 80 926 0 926 0 0
-605z m2480 85 l0 -520 -1140 0 -1140 0 0 520 0 520 1140 0 1140 0 0 -520z
m2022 483 c-36 -46 -229 -233 -332 -324 -404 -353 -907 -649 -1392 -818 l-88
-30 0 604 0 605 921 0 921 0 -30 -37z m-4008 -1139 l28 -36 30 36 c27 33 34
36 84 36 l55 0 -51 -67 c-28 -37 -49 -72 -46 -79 8 -20 179 -234 187 -234 10
0 189 222 189 235 0 6 -25 41 -56 78 l-56 67 60 0 c57 0 61 -2 87 -36 l28 -36
31 36 c29 35 34 37 83 34 l52 -3 -54 -66 -54 -67 95 -121 c53 -66 99 -121 103
-121 10 0 191 224 191 235 0 4 -25 39 -55 76 l-56 69 63 0 c60 -1 64 -2 88
-35 14 -19 27 -34 30 -34 3 0 16 15 30 34 23 32 29 34 78 35 l53 0 -55 -67
c-30 -38 -51 -73 -48 -79 17 -29 183 -234 190 -234 4 0 50 53 101 117 65 81
91 120 85 129 -5 7 -31 40 -57 74 l-48 60 55 0 c51 0 57 -3 83 -35 l28 -36 30
36 c29 34 34 36 83 33 l52 -3 -50 -64 c-28 -36 -50 -67 -50 -71 0 -5 168 -221
186 -239 2 -3 15 6 29 19 l25 23 0 -127 0 -127 -31 36 -31 35 -89 -112 c-49
-62 -89 -117 -89 -123 0 -5 32 -48 70 -93 39 -46 70 -88 70 -93 0 -13 -44 -79
-52 -79 -4 0 -39 41 -79 90 -39 50 -74 90 -79 90 -9 0 -190 -225 -190 -236 0
-4 35 -51 79 -104 l78 -96 -32 -37 -32 -37 -74 95 c-41 52 -79 93 -85 92 -13
-2 -184 -216 -184 -229 0 -5 25 -39 55 -74 30 -36 53 -70 49 -75 -3 -5 -21
-17 -41 -28 l-36 -18 -49 59 -49 59 -81 -103 c-44 -57 -86 -112 -94 -122 -12
-18 -17 -18 -66 -7 -51 12 -57 17 -133 112 -44 55 -88 107 -97 116 -19 17 -21
15 -74 -55 -9 -12 -15 -10 -40 11 l-29 25 23 29 c52 65 53 61 -48 185 -51 62
-96 114 -99 116 -4 1 -29 -25 -55 -58 -26 -33 -50 -60 -54 -59 -4 0 -17 13
-29 28 l-23 29 55 68 c53 67 54 69 37 89 -10 11 -53 64 -96 118 -43 53 -82 97
-87 97 -5 0 -27 -25 -50 -55 -23 -30 -44 -55 -48 -55 -3 0 -14 20 -25 45 l-18
45 38 48 c21 26 41 52 45 57 5 6 -26 53 -72 109 -75 94 -79 102 -79 148 l0 49
96 -120 c52 -67 98 -121 102 -120 4 0 49 54 100 120 l94 119 -79 96 c-43 53
-88 108 -100 123 -26 31 -18 38 -132 -108 l-81 -103 0 68 1 69 68 85 69 84
-44 58 c-25 31 -49 60 -54 63 -24 15 -6 25 43 25 48 0 54 -3 81 -36z"/>
<path d="M5950 9385 c0 -115 4 -205 8 -199 5 5 30 44 56 87 l46 78 -50 117
c-28 64 -53 119 -56 121 -2 2 -4 -90 -4 -204z"/>
<path d="M5568 9330 c17 -25 56 -76 84 -114 l53 -69 100 2 c55 1 101 4 103 5
1 2 -71 45 -160 96 -90 51 -174 100 -188 109 -23 15 -22 13 8 -29z"/>
<path d="M6162 9266 c-101 -57 -186 -107 -189 -110 -4 -3 44 -6 104 -6 l111 0
81 110 c45 61 80 110 78 110 -1 0 -84 -47 -185 -104z"/>
<path d="M5947 8917 c3 -122 7 -223 8 -224 1 -2 23 48 50 110 26 61 52 116 56
121 5 6 58 5 134 -3 70 -7 128 -11 130 -9 2 2 -84 54 -190 115 l-195 112 7
-222z"/>
<path d="M5722 9011 c-153 -91 -177 -109 -145 -105 21 3 84 11 141 17 l103 12
50 93 c28 50 47 92 42 92 -4 0 -91 -49 -191 -109z"/>
<path d="M8760 8469 c-14 -6 -47 -7 -74 -3 -61 8 -60 -14 2 -42 2 -1 -6 -19
-17 -40 -12 -21 -21 -49 -21 -61 0 -30 47 -83 75 -83 57 0 101 80 77 142 -13
35 4 46 38 28 18 -9 25 -8 41 6 26 23 20 49 -11 50 -14 0 -38 3 -55 7 -16 3
-41 1 -55 -4z"/>
<path d="M7680 3978 c1 -7 7 -24 15 -38 21 -36 19 -40 -20 -40 -51 0 -92 -24
-114 -68 -23 -46 -17 -87 16 -109 53 -35 110 -12 138 53 11 28 21 34 77 47
l63 15 -78 1 c-90 1 -117 -9 -117 -45 0 -19 -5 -25 -17 -22 -26 5 -27 34 -4
57 16 16 34 21 70 21 39 0 51 4 55 18 7 22 -8 88 -24 107 -15 18 -60 20 -60 3z"/>
<path d="M5190 8058 c0 -7 5 -33 12 -58 6 -25 10 -73 9 -106 -2 -72 13 -94 62
-94 29 0 35 -6 62 -57 37 -70 56 -84 84 -59 20 18 20 19 -24 73 -30 36 -51 77
-65 121 -11 37 -27 78 -36 92 -15 24 -15 24 -10 -20 3 -25 8 -60 12 -77 5 -26
3 -33 -9 -33 -22 0 -34 20 -39 70 -7 61 -37 160 -49 160 -5 0 -9 -6 -9 -12z"/>
<path d="M4900 7840 c0 -69 22 -132 63 -179 23 -26 47 -56 52 -65 6 -10 27
-20 50 -23 32 -4 46 0 65 16 l25 21 -41 -6 c-37 -6 -43 -3 -60 21 -11 15 -36
44 -56 65 -25 26 -42 56 -53 97 -23 83 -23 83 -35 83 -5 0 -10 -13 -10 -30z"/>
<path d="M5445 6021 c-3 -6 3 -47 14 -93 42 -181 53 -299 59 -673 4 -199 4
-385 -1 -411 -13 -88 -12 -445 2 -494 20 -69 69 -142 95 -138 29 4 32 35 7 62
-12 12 -25 47 -31 77 -5 30 -12 308 -14 619 -3 421 -8 600 -20 704 -26 231
-79 398 -111 347z"/>
<path d="M6799 7253 c-1 -5 -2 -34 -3 -67 -1 -54 -3 -60 -39 -90 -45 -38 -47
-63 -11 -143 14 -32 23 -66 20 -76 -14 -53 34 -64 64 -14 25 38 20 79 -14 148
l-23 45 23 28 c19 21 24 39 24 82 0 56 -12 94 -30 94 -6 0 -11 -3 -11 -7z"/>
<path d="M2995 3009 c206 -209 522 -455 803 -625 200 -121 596 -308 760 -358
l22 -7 0 525 0 526 -822 0 -822 0 59 -61z m723 -45 c105 -35 174 -78 242 -152
l58 -62 25 52 c36 73 100 135 177 172 55 26 79 31 160 34 52 2 111 0 130 -5
32 -9 35 -13 34 -46 -3 -109 -161 -281 -288 -313 -28 -7 -27 -8 32 -35 141
-64 231 -220 232 -401 0 -57 -1 -58 -27 -58 -52 0 -156 30 -217 63 -71 38
-161 123 -199 189 -15 27 -35 78 -44 115 -9 38 -17 69 -18 71 -2 1 -23 -8 -49
-22 -130 -69 -331 -22 -531 123 -74 54 -255 236 -255 256 0 21 97 47 200 54
120 8 249 -5 338 -35z"/>
<path d="M4310 2941 c-89 -27 -164 -95 -206 -185 -34 -72 -32 -87 9 -80 86 15
178 57 245 111 44 36 112 127 112 150 0 15 -116 17 -160 4z"/>
<path d="M3343 2933 c-18 -2 -33 -8 -33 -12 0 -14 144 -147 211 -194 171 -121
340 -155 429 -88 23 18 23 21 10 46 -49 92 -167 180 -294 221 -81 25 -243 39
-323 27z"/>
<path d="M4096 2553 c25 -137 131 -252 278 -303 33 -11 64 -20 69 -20 6 0 7
20 3 52 -20 146 -121 251 -283 293 -76 20 -75 20 -67 -22z"/>
<path d="M5237 3003 c-3 -5 -10 -42 -17 -83 -12 -77 -40 -152 -65 -180 -12
-14 -12 -24 1 -80 8 -36 23 -77 34 -91 l19 -27 -47 -5 c-26 -3 -48 -4 -49 -3
-1 1 2 19 7 40 4 21 6 61 3 90 -5 50 -8 53 -50 76 -25 13 -66 48 -91 77 -25
29 -49 53 -53 53 -5 0 7 -33 26 -72 47 -100 75 -214 75 -310 0 -43 2 -78 5
-78 3 0 16 7 29 15 53 35 286 36 355 2 19 -9 35 -17 35 -17 1 0 2 39 3 87 3
108 22 185 73 291 21 45 36 82 32 82 -4 0 -36 -29 -70 -64 -35 -35 -76 -69
-92 -76 -25 -10 -30 -19 -36 -66 -3 -30 -2 -73 4 -95 10 -39 9 -41 -11 -35
-12 3 -34 6 -48 6 l-26 0 23 48 c13 26 27 67 30 92 5 39 2 52 -19 83 -24 35
-34 67 -57 190 -11 57 -15 64 -23 50z"/>
<path d="M5976 2918 c-11 -61 -28 -112 -47 -147 l-31 -54 17 -66 c9 -36 24
-74 32 -84 20 -21 18 -23 -34 -30 l-42 -5 6 68 c8 91 0 116 -41 135 -19 9 -60
44 -91 77 -31 33 -59 58 -61 55 -3 -3 8 -31 24 -63 46 -92 72 -190 79 -295 l6
-96 29 14 c75 38 305 37 363 -1 22 -15 22 -14 28 82 6 106 32 202 79 296 16
32 27 60 24 63 -3 3 -31 -21 -61 -55 -31 -33 -72 -68 -91 -77 -41 -19 -48 -43
-42 -135 l5 -68 -41 6 c-23 2 -42 6 -44 7 -2 1 6 18 17 36 10 19 24 58 30 87
10 50 9 55 -19 106 -25 44 -60 177 -60 229 0 4 -4 7 -9 7 -5 0 -16 -42 -25
-92z"/>
<path d="M6736 2918 c-11 -61 -28 -112 -47 -147 -29 -51 -30 -55 -19 -105 7
-28 21 -66 32 -85 10 -18 18 -35 16 -36 -2 -1 -21 -5 -44 -7 l-41 -6 5 68 c6
91 0 111 -43 134 -19 11 -60 46 -91 79 -30 32 -58 57 -60 54 -3 -3 8 -31 24
-63 47 -94 73 -190 79 -297 l6 -97 23 15 c57 37 268 40 350 5 l41 -18 6 97 c8
115 24 178 72 278 19 42 33 78 31 81 -3 2 -28 -21 -57 -52 -28 -31 -68 -66
-88 -78 -20 -12 -39 -27 -43 -32 -11 -16 -10 -121 2 -152 10 -25 9 -26 -12
-20 -13 3 -36 6 -52 6 -28 0 -28 1 -12 24 8 13 23 53 32 89 l16 64 -31 54
c-19 35 -36 86 -47 147 -9 50 -20 92 -24 92 -4 0 -15 -42 -24 -92z"/>
<path d="M5157 2409 c-96 -14 -146 -49 -118 -83 40 -48 273 -61 369 -22 53 23
58 57 12 81 -25 13 -179 39 -200 34 -3 -1 -31 -5 -63 -10z"/>
<path d="M5890 2406 c-76 -17 -102 -32 -98 -59 8 -57 210 -88 334 -52 68 20
84 30 84 56 0 25 -44 46 -121 58 -80 13 -129 13 -199 -3z"/>
<path d="M6662 2409 c-116 -19 -145 -65 -67 -104 34 -17 60 -20 165 -20 105 0
131 3 165 20 81 41 50 84 -76 104 -73 12 -112 12 -187 0z"/>
<path d="M7420 2544 l0 -525 23 6 c147 43 547 230 739 346 295 177 603 416
813 628 l69 71 -822 0 -822 0 0 -526z m362 428 c79 -39 146 -103 177 -171 l24
-49 71 72 c109 111 228 161 416 174 159 12 350 -17 350 -53 0 -20 -181 -202
-253 -254 -142 -104 -272 -155 -392 -155 -68 0 -88 4 -134 27 -30 15 -55 26
-56 25 -1 -2 -9 -34 -19 -73 -30 -128 -117 -235 -243 -302 -60 -33 -164 -63
-215 -63 -26 0 -28 3 -28 43 0 210 109 381 275 432 15 5 8 11 -37 29 -109 44
-219 157 -254 258 -29 89 -15 98 146 95 97 -2 111 -5 172 -35z"/>
<path d="M7530 2940 c0 -25 62 -110 110 -150 89 -74 280 -144 280 -101 0 30
-48 118 -86 161 -57 63 -122 91 -221 98 -64 4 -83 2 -83 -8z"/>
<path d="M8428 2930 c-170 -31 -326 -129 -388 -245 -13 -25 -13 -28 10 -46
120 -91 374 6 589 225 30 31 52 58 49 62 -11 10 -209 14 -260 4z"/>
<path d="M7833 2575 c-156 -42 -261 -152 -279 -292 -4 -32 -3 -53 3 -53 25 0
131 43 174 71 89 57 157 154 174 252 8 43 7 43 -72 22z"/>
<path d="M5597 1659 c-48 -61 -89 -115 -90 -119 -2 -10 182 -250 192 -250 9 1
186 230 186 241 0 12 -184 239 -194 239 -3 0 -45 -50 -94 -111z"/>
<path d="M6097 1655 c-49 -63 -87 -119 -85 -124 5 -15 183 -240 189 -241 9 0
189 228 189 241 0 14 -180 233 -194 236 -6 1 -51 -49 -99 -112z"/>
<path d="M6606 1658 c-103 -130 -105 -102 22 -255 l84 -102 22 27 c70 86 156
201 156 210 0 11 -176 225 -188 229 -4 2 -47 -48 -96 -109z"/>
<path d="M6355 1344 c-49 -63 -91 -118 -93 -122 -2 -7 184 -242 192 -242 6 0
177 220 182 235 5 11 -167 236 -185 242 -3 1 -46 -50 -96 -113z"/>
<path d="M5347 1339 l-86 -110 95 -117 c52 -64 98 -117 103 -117 9 0 171 202
171 214 0 7 -177 228 -189 235 -4 3 -47 -44 -94 -105z"/>
<path d="M5848 1340 c-49 -60 -88 -114 -88 -120 0 -18 192 -252 200 -243 6 7
146 186 172 220 7 8 -21 50 -88 133 -54 66 -100 120 -103 120 -3 0 -45 -50
-93 -110z"/>
<path d="M5601 1025 c-50 -63 -91 -118 -91 -123 0 -11 177 -236 189 -240 12
-4 194 225 189 239 -5 15 -182 238 -190 238 -3 1 -47 -51 -97 -114z"/>
<path d="M6101 1025 c-51 -64 -91 -120 -89 -125 7 -19 184 -229 193 -229 6 0
50 52 98 114 l88 115 -95 120 c-53 66 -98 120 -99 120 -2 0 -45 -52 -96 -115z"/>
<path d="M5850 712 c-46 -59 -84 -114 -84 -122 1 -16 172 -250 183 -250 6 1
181 230 184 242 2 8 -184 238 -193 238 -3 0 -43 -49 -90 -108z"/>
<path d="M2915 10480 c-36 -28 -43 -30 -129 -30 l-91 0 -43 -142 -44 -141 79
-79 c125 -127 115 -123 211 -85 82 32 82 32 82 69 0 53 9 68 40 68 20 0 37
-13 70 -51 23 -28 39 -54 34 -59 -5 -4 -54 -22 -109 -40 -55 -18 -104 -37
-110 -42 -5 -5 -17 -45 -26 -88 l-16 -80 23 -15 c30 -20 34 -19 34 5 0 28 48
55 144 80 45 11 91 25 104 30 26 11 89 135 98 191 5 35 -2 47 -133 204 l-31
38 -82 -13 c-90 -14 -100 -24 -100 -95 0 -36 -20 -55 -57 -55 -18 0 -133 104
-133 120 0 32 14 40 70 40 56 0 59 -1 81 -36 27 -45 30 -41 58 96 12 58 24
113 27 123 8 25 -8 21 -51 -13z"/>
<path d="M8953 10426 c-35 -7 -66 -15 -69 -19 -6 -6 15 -139 25 -156 6 -9 156
11 168 23 4 4 -5 59 -23 144 -5 25 -12 25 -101 8z"/>
<path d="M9195 10060 c-49 -55 -91 -103 -92 -107 -2 -4 14 -39 35 -78 l38 -70
52 -3 c49 -3 52 -4 52 -30 0 -19 -12 -40 -38 -65 -21 -20 -42 -37 -47 -37 -6
0 -30 46 -54 101 -24 56 -49 102 -55 104 -6 1 -44 7 -85 12 -67 8 -77 7 -94
-10 -23 -23 -18 -41 14 -45 20 -2 32 -21 77 -122 l54 -119 98 -30 c54 -17 104
-31 112 -31 25 0 198 162 197 184 0 12 -8 52 -18 89 l-18 68 21 -5 c51 -12
197 -28 203 -22 4 3 -7 21 -25 39 -28 29 -32 40 -39 121 l-8 89 -125 28 c-69
16 -134 31 -145 33 -15 4 -41 -18 -110 -94z m228 -27 c3 -5 7 -29 11 -55 7
-44 5 -47 -24 -64 -16 -10 -30 -24 -30 -30 0 -7 -12 -15 -27 -19 -22 -5 -32
-2 -46 16 -24 30 -19 47 32 107 41 47 73 64 84 45z"/>
<path d="M8690 10076 c-38 -6 -64 -16 -63 -22 1 -7 7 -43 13 -80 6 -38 13 -70
15 -72 2 -3 40 1 85 8 91 14 91 13 69 123 -13 64 -9 63 -119 43z"/>
<path d="M2300 9990 l0 -90 48 0 47 0 127 -129 c109 -112 128 -135 135 -173
10 -49 18 -51 109 -17 57 21 55 18 70 138 l7 54 -29 -6 c-16 -4 -38 -9 -50
-12 -17 -5 -45 19 -152 130 -91 95 -132 144 -134 163 -3 27 -4 27 -90 30 l-88
3 0 -91z"/>
<path d="M2085 10056 c-65 -29 -75 -52 -81 -177 l-5 -114 162 -140 c90 -77
227 -195 305 -262 78 -68 145 -123 148 -123 3 0 6 40 6 89 l0 90 -267 233
-267 233 62 3 62 3 0 89 0 90 -47 0 c-27 -1 -61 -7 -78 -14z"/>
<path d="M9820 9711 l-75 -6 4 -80 c2 -44 5 -84 8 -88 5 -8 82 -3 146 9 l28 6
-6 71 c-7 81 -11 98 -22 95 -4 -1 -42 -4 -83 -7z"/>
<path d="M1851 9558 l-114 -60 7 -63 6 -62 -62 -23 c-35 -12 -66 -25 -70 -29
-8 -7 38 -170 52 -185 4 -4 24 -2 43 5 34 12 38 11 104 -30 37 -24 98 -66 135
-93 61 -45 70 -55 84 -104 l15 -54 80 40 c43 22 79 45 79 51 0 20 -33 144 -41
153 -4 5 -21 4 -38 -2 -28 -10 -38 -5 -168 81 l-138 92 -3 43 c-3 41 -2 42 52
77 30 19 57 35 59 35 3 0 7 -13 10 -29 5 -24 26 -41 121 -100 125 -78 156
-108 156 -152 0 -16 5 -29 10 -29 9 0 168 76 178 85 4 3 -18 138 -23 144 -3 2
-23 -4 -45 -14 l-39 -18 -73 43 c-144 86 -228 161 -228 206 0 32 -10 54 -24
53 -6 -1 -62 -29 -125 -61z"/>
<path d="M9447 9403 c-27 -4 -28 -7 -23 -41 3 -20 8 -58 11 -84 l6 -47 82 6
c45 3 83 7 85 8 2 2 0 40 -4 84 l-7 81 -61 -1 c-33 -1 -74 -4 -89 -6z"/>
<path d="M10066 9374 c-3 -9 -6 -26 -6 -39 0 -25 -44 -66 -206 -188 l-102 -77
-66 0 c-36 0 -66 -2 -66 -4 0 -2 23 -54 50 -115 28 -61 50 -115 50 -120 0 -13
26 -21 70 -21 50 0 70 -21 71 -73 3 -89 9 -100 64 -113 28 -6 67 -13 89 -17
41 -7 41 -6 21 59 -6 18 10 35 97 106 160 131 238 187 252 182 18 -7 23 10 31
93 8 81 12 78 -94 89 l-70 7 -7 -41 c-8 -48 -27 -68 -183 -185 -112 -85 -114
-86 -142 -71 -34 17 -49 42 -49 82 0 27 17 43 155 151 84 67 162 121 173 121
14 0 21 13 30 58 22 109 23 108 -63 121 -95 14 -92 14 -99 -5z"/>
<path d="M1391 9043 l-23 -19 31 -101 c17 -55 31 -118 31 -140 l0 -40 170 -82
c148 -71 170 -85 170 -105 0 -17 9 -27 30 -36 29 -12 31 -10 130 81 55 51 100
98 100 104 0 15 -49 138 -60 149 -8 8 -71 -54 -128 -125 -19 -22 -19 -22 -50
-3 l-32 18 0 121 c0 119 0 122 -27 147 -24 22 -40 27 -113 32 -47 4 -112 9
-145 12 -50 5 -65 3 -84 -13z m192 -144 l107 -22 0 -48 c0 -27 -2 -49 -5 -49
-8 0 -209 93 -222 103 -7 5 -13 16 -13 23 0 18 6 18 133 -7z"/>
<path d="M10425 8818 c-8 -52 -7 -51 -200 -158 -129 -72 -155 -83 -192 -81
-49 2 -48 6 -32 -104 l11 -75 38 -10 c20 -5 58 -13 84 -16 l46 -7 0 35 c0 19
6 41 13 50 10 13 181 118 253 156 15 8 34 7 73 -5 l53 -15 -7 -45 c-9 -64 -14
-73 -39 -73 -11 0 -84 -37 -161 -81 -129 -75 -143 -81 -184 -76 l-44 5 7 -52
c3 -28 6 -69 6 -91 0 -40 0 -41 75 -78 42 -20 82 -37 90 -37 10 0 15 17 17 66
l3 67 124 68 c69 37 128 66 133 63 5 -4 28 -3 52 0 l42 7 34 135 c20 82 30
138 24 143 -5 5 -45 20 -89 34 -90 28 -88 24 -73 145 7 50 6 53 -18 62 -14 6
-49 10 -79 10 l-54 0 -6 -42z"/>
<path d="M1240 8622 c-36 -14 -66 -27 -68 -28 -2 -1 11 -37 29 -79 30 -73 33
-76 58 -69 53 16 90 6 220 -56 122 -59 156 -83 186 -134 9 -15 17 -12 73 29
34 26 62 50 62 53 0 31 -36 162 -44 162 -6 -1 -24 -11 -40 -24 l-29 -24 -99
44 c-169 75 -240 114 -245 135 -7 24 -23 23 -103 -9z"/>
<path d="M1170 8344 c-14 -7 -55 -27 -92 -44 -75 -35 -78 -40 -53 -110 8 -23
15 -49 15 -56 0 -8 -25 -30 -55 -50 -30 -20 -55 -44 -55 -53 0 -9 9 -41 21
-71 11 -30 23 -63 26 -72 6 -22 4 -22 69 -1 l53 16 103 -41 c177 -70 197 -81
213 -113 18 -33 14 -34 97 24 l58 40 -38 68 c-27 50 -41 67 -52 63 -68 -28
-68 -28 -137 -5 -37 13 -103 42 -145 63 -73 38 -78 42 -86 81 l-8 42 47 24
c46 23 49 24 67 8 10 -10 68 -37 128 -61 156 -63 161 -66 175 -97 6 -16 14
-29 18 -29 3 0 33 25 66 54 l60 54 -25 72 c-14 39 -27 73 -30 75 -3 2 -23 -11
-44 -29 l-39 -32 -101 39 c-145 57 -142 55 -171 108 -28 52 -42 57 -85 33z"/>
<path d="M10745 8241 c-4 -18 -16 -38 -28 -46 -42 -27 -332 -148 -352 -146
-11 1 -35 -1 -52 -4 l-33 -6 0 -73 0 -74 76 -36 c42 -20 80 -36 85 -36 5 0 9
19 9 43 l0 43 185 87 c140 65 193 85 213 81 26 -5 28 -2 51 64 13 38 22 76 19
84 -6 15 -56 33 -124 44 -41 6 -42 5 -49 -25z"/>
<path d="M10845 7956 c-7 -35 -8 -35 -174 -101 -138 -54 -172 -64 -203 -59
l-38 7 0 -135 0 -134 119 -58 c101 -49 122 -56 140 -47 12 7 76 29 143 50 114
36 125 37 152 24 15 -8 32 -11 36 -6 13 15 82 245 75 251 -8 9 -179 41 -185
35 -2 -2 1 -13 8 -24 17 -26 -1 -84 -29 -100 -24 -12 -290 -109 -301 -109 -4
0 -8 27 -8 61 l0 60 58 26 c128 57 240 97 286 102 l48 6 29 80 c15 44 25 83
21 86 -4 4 -44 10 -89 13 l-82 7 -6 -35z"/>
<path d="M940 7791 c0 -30 -35 -65 -114 -117 -42 -27 -76 -53 -76 -59 1 -5 27
-68 59 -140 l59 -130 34 2 c147 8 175 6 253 -20 58 -19 90 -36 115 -62 19 -19
37 -35 41 -35 7 0 128 166 137 188 2 7 -17 70 -44 138 l-49 125 -34 -6 c-23
-4 -60 2 -115 18 -45 14 -100 30 -123 36 -23 6 -64 27 -92 46 -43 28 -51 31
-51 16z m126 -200 c32 -11 105 -34 162 -51 56 -17 102 -34 102 -39 0 -4 -15
-24 -32 -44 l-33 -35 -155 44 c-85 25 -173 48 -195 52 l-40 8 59 42 c33 23 62
42 66 42 3 0 33 -9 66 -19z"/>
<path d="M11005 7431 c-6 -4 -81 -27 -168 -51 -117 -31 -162 -39 -170 -31 -16
16 -52 13 -76 -6 -19 -16 -21 -30 -23 -158 l-3 -139 60 -37 c33 -21 66 -38 73
-38 9 -1 12 29 12 118 l0 119 36 12 36 12 87 -86 c122 -121 124 -121 269 -15
161 117 164 136 29 206 -38 20 -80 51 -94 70 -25 32 -50 41 -68 24z"/>
<path d="M550 7260 c0 -6 7 -40 16 -75 19 -74 -23 -57 334 -135 129 -28 242
-53 251 -56 9 -2 24 -23 34 -45 10 -22 22 -42 27 -45 7 -4 92 119 105 153 3 7
-14 43 -38 79 l-43 66 -27 -33 -27 -34 -304 68 c-167 37 -309 67 -316 67 -6 0
-12 -5 -12 -10z"/>
<path d="M11118 6962 l-15 -37 -168 -32 -168 -32 -32 24 c-35 27 -55 32 -55
13 -1 -7 -7 -65 -14 -128 l-14 -115 33 -30 c39 -36 82 -61 91 -53 3 3 10 39
16 80 5 40 11 75 13 77 7 6 209 41 243 41 18 0 44 -8 57 -17 l23 -18 -46 -41
-46 -41 43 -51 c23 -29 47 -52 53 -52 6 0 53 30 105 66 83 58 94 69 91 92 -3
24 -34 49 -83 65 -5 2 7 31 28 64 20 34 37 65 37 70 0 10 -147 93 -165 93 -7
0 -19 -17 -27 -38z"/>
<path d="M700 6918 c0 -24 -15 -46 -76 -108 -55 -57 -74 -82 -67 -93 34 -57
169 -237 178 -237 7 0 38 9 71 20 51 18 73 20 166 14 108 -7 122 -11 176 -51
l29 -22 52 105 c28 58 51 110 51 114 0 5 -34 61 -75 124 l-74 114 -35 -10
c-57 -18 -276 6 -343 37 l-53 24 0 -31z m280 -173 c74 -8 143 -15 153 -15 16
0 15 -5 -8 -50 -14 -27 -32 -50 -40 -50 -8 0 -92 7 -186 16 -95 8 -181 13
-192 10 -21 -5 -21 -5 52 77 29 32 35 32 221 12z"/>
<path d="M11190 6519 c-43 -28 -55 -30 -235 -44 -105 -8 -209 -18 -233 -21
-28 -4 -52 -2 -68 6 -43 24 -38 2 20 -75 l56 -75 43 5 c39 4 100 8 347 21 52
3 128 12 168 20 58 12 76 13 88 3 13 -10 11 -16 -11 -39 -14 -14 -25 -31 -25
-38 0 -14 115 -82 138 -82 20 0 102 79 102 97 0 7 -51 47 -112 89 -62 43 -134
97 -160 121 -26 24 -53 43 -60 42 -7 0 -33 -14 -58 -30z"/>
<path d="M585 6340 c-50 -40 -92 -74 -94 -76 -2 -2 32 -41 75 -89 43 -47 85
-96 94 -110 l15 -25 217 0 c199 0 220 -2 251 -20 l34 -20 23 113 c12 61 25
123 27 137 4 21 -7 37 -62 89 -50 48 -69 61 -75 51 -5 -7 -11 -49 -15 -92 -10
-117 -13 -118 -227 -118 l-170 0 56 46 c31 26 56 49 56 53 0 3 -26 35 -58 70
l-57 64 -90 -73z"/>
<path d="M11256 6221 l-27 -29 -187 -4 c-167 -4 -192 -2 -230 15 -24 10 -47
17 -52 15 -6 -2 -23 -31 -40 -65 l-29 -63 55 -65 c30 -36 59 -65 63 -65 4 0
16 18 26 40 l18 40 203 0 c136 0 212 -4 229 -12 25 -11 29 -9 80 48 l53 59
-56 58 c-31 31 -61 57 -67 57 -6 0 -24 -13 -39 -29z"/>
<path d="M10803 5928 c-6 -7 -29 -53 -52 -102 l-42 -90 53 -53 c29 -29 57 -53
63 -53 5 0 25 23 43 50 l32 50 135 0 c135 0 135 0 131 -22 -3 -13 -7 -46 -11
-74 l-5 -51 63 -22 c35 -11 66 -21 69 -21 3 0 8 30 12 68 12 121 3 112 123
112 61 0 103 4 101 9 -1 6 -25 37 -53 71 -45 55 -53 60 -79 55 -19 -3 -39 1
-54 11 -21 14 -111 43 -134 44 -3 0 -9 -13 -13 -30 l-7 -30 -136 0 -136 0 -47
46 c-36 35 -48 42 -56 32z"/>
<path d="M1027 5764 c-26 -35 -50 -71 -53 -78 -6 -15 127 -116 151 -116 11 0
121 149 113 154 -1 1 -35 25 -74 54 -39 29 -75 52 -80 52 -5 -1 -31 -30 -57
-66z"/>
<path d="M612 5708 c-21 -29 -46 -65 -56 -79 l-17 -27 82 -57 c45 -33 84 -54
88 -48 3 5 28 42 56 82 29 43 45 75 39 79 -63 44 -131 90 -141 96 -7 4 -27
-13 -51 -46z"/>
<path d="M10778 5562 c-15 -17 -118 -201 -118 -210 0 -3 16 -25 36 -49 l36
-43 -30 -38 c-17 -20 -42 -48 -56 -61 -14 -14 -26 -30 -26 -36 0 -17 109 -145
123 -145 7 0 27 23 45 50 27 41 37 49 55 45 62 -14 311 -65 318 -65 5 0 52 39
106 86 53 48 112 93 130 100 18 8 33 17 33 21 0 4 -20 27 -45 52 -24 25 -59
68 -77 95 -19 27 -38 49 -43 50 -5 1 -12 -16 -16 -36 -6 -40 -36 -89 -91 -152
l-35 -40 -134 28 c-74 15 -141 30 -150 32 -15 4 -15 9 -1 60 l16 56 183 -4
c101 -1 183 1 183 6 0 4 -15 29 -33 55 -19 25 -37 54 -40 64 -6 15 -22 17
-135 17 -118 0 -130 2 -148 21 -10 12 -31 30 -45 40 -25 17 -27 18 -41 1z"/>
<path d="M1045 5329 c-55 -10 -110 -21 -121 -24 -16 -3 -29 -24 -48 -75 -14
-39 -26 -77 -26 -83 0 -7 23 -24 50 -39 51 -29 57 -39 41 -81 -7 -19 -25 -28
-91 -47 -76 -22 -82 -22 -98 -6 -16 16 -15 20 10 64 22 38 34 49 66 57 l40 10
-105 88 c-58 49 -107 86 -109 84 -3 -2 0 -26 6 -52 10 -46 9 -50 -34 -129
l-45 -83 109 -101 c59 -56 114 -102 121 -102 8 0 70 18 140 40 l126 40 7 37
c3 21 6 61 6 90 0 50 -1 52 -40 74 -22 13 -40 28 -40 35 0 28 37 53 94 63 33
6 61 10 62 8 2 -2 -5 -56 -15 -121 l-18 -118 21 -18 c115 -98 119 -100 152
-76 19 15 19 15 -1 36 l-21 20 20 129 20 129 -73 86 c-40 47 -81 86 -90 85 -9
-1 -61 -9 -116 -20z"/>
<path d="M10615 4884 c-30 -64 -55 -123 -55 -131 0 -20 69 -113 83 -113 7 0
31 29 54 64 l42 64 88 -20 c48 -10 104 -23 123 -27 40 -8 41 -15 12 -88 l-21
-52 60 -45 c34 -25 66 -46 72 -46 7 0 27 42 45 93 l33 94 105 -30 c58 -16 108
-27 111 -24 6 7 -68 116 -98 143 -13 12 -36 24 -50 28 -21 5 -25 10 -22 30 4
22 -2 28 -62 55 -66 31 -85 32 -85 6 0 -28 -24 -27 -167 6 -144 33 -146 35
-171 72 -13 20 -29 37 -34 37 -5 0 -33 -52 -63 -116z"/>
<path d="M1246 4818 c-3 -13 -6 -32 -6 -43 0 -18 -23 -28 -180 -74 -134 -39
-190 -51 -215 -47 -33 7 -34 6 -69 -61 -20 -37 -36 -71 -36 -75 0 -4 35 -23
77 -43 84 -39 77 -40 108 19 7 15 53 31 181 67 151 42 176 46 219 38 27 -5 50
-7 52 -5 6 6 26 146 22 150 -25 18 -141 96 -143 96 -2 0 -6 -10 -10 -22z"/>
<path d="M10533 4508 c-38 -51 -72 -98 -76 -105 -8 -12 47 -133 60 -133 4 0
30 23 58 50 l51 51 110 -41 c196 -74 219 -85 229 -108 5 -12 14 -22 18 -22 9
0 149 59 156 66 3 2 -5 21 -16 42 -11 20 -26 54 -33 75 -13 43 -11 42 -65 21
l-41 -15 -149 59 c-138 54 -153 62 -184 103 -18 24 -37 45 -41 47 -4 1 -38
-39 -77 -90z"/>
<path d="M1366 4453 l-17 -68 -132 -51 -132 -51 -25 73 -24 74 -61 0 c-87 0
-88 -2 -59 -95 13 -44 23 -86 22 -94 -2 -7 -46 -30 -98 -50 -52 -20 -94 -41
-94 -46 1 -6 36 -25 77 -42 73 -32 76 -32 112 -17 28 11 40 12 51 3 9 -7 31
-9 61 -5 80 12 85 14 78 45 -6 27 -4 29 135 86 l141 57 60 -26 c43 -18 61 -22
64 -13 2 6 6 60 9 118 l6 107 -68 27 c-37 15 -72 29 -78 32 -7 2 -18 -22 -28
-64z"/>
<path d="M10440 4231 c0 -25 -15 -42 -100 -111 l-100 -82 0 -112 0 -111 115
-63 115 -64 70 36 c38 20 73 36 78 36 5 0 15 -42 22 -92 17 -125 21 -130 56
-77 24 35 42 49 89 67 120 46 108 32 101 125 -3 45 -9 109 -12 143 l-6 61 -97
43 c-179 80 -151 79 -226 8 l-66 -63 16 -38 c15 -37 15 -40 -2 -53 -10 -7 -22
-14 -27 -14 -13 0 -106 54 -106 62 0 4 20 23 45 42 25 19 64 51 87 71 l40 37
-12 75 c-14 78 -28 103 -61 103 -14 0 -19 -7 -19 -29z m276 -345 c93 -43 98
-64 23 -88 -48 -16 -52 -16 -85 4 -25 15 -34 17 -35 6 0 -7 -7 5 -15 26 -13
37 -13 41 8 63 12 13 23 23 25 23 3 0 38 -15 79 -34z"/>
<path d="M1468 4137 l-3 -60 -175 -62 -175 -62 -40 -120 c-22 -66 -48 -131
-57 -146 -10 -14 -18 -28 -18 -30 0 -3 28 -10 62 -17 35 -6 92 -23 127 -36 35
-13 66 -23 68 -20 2 2 -3 21 -12 42 -12 31 -14 57 -8 123 l8 83 154 54 c84 31
154 54 156 52 6 -7 45 -101 43 -103 -2 -1 -76 -43 -166 -94 -90 -51 -162 -95
-160 -96 7 -7 142 -55 155 -55 8 0 63 27 122 60 l107 60 68 -7 c64 -6 68 -5
63 13 -3 10 -9 61 -12 112 -5 56 -12 98 -21 106 -7 8 -36 19 -64 26 -57 14
-58 16 -36 118 10 47 11 64 2 67 -6 2 -50 15 -98 28 l-87 24 -3 -60z"/>
<path d="M1760 3623 c0 -88 -8 -100 -94 -152 -44 -27 -99 -58 -122 -69 l-41
-21 -33 70 c-24 49 -38 68 -49 65 -9 -3 -42 -10 -73 -16 -32 -6 -58 -13 -58
-14 0 -2 18 -42 40 -89 22 -47 40 -87 40 -90 0 -3 -43 -29 -95 -59 -52 -29
-95 -56 -95 -59 0 -4 41 -16 90 -29 l90 -21 34 21 c20 12 37 17 40 11 6 -9
129 19 142 31 2 3 0 18 -6 33 -6 15 -9 29 -8 30 2 1 60 34 130 74 l127 73 67
-15 66 -16 -6 40 c-3 22 -9 73 -13 114 -3 42 -11 78 -16 82 -11 7 -123 32
-144 33 -8 0 -13 -12 -13 -27z"/>
<path d="M10160 3583 c-142 -37 -129 -29 -119 -71 4 -20 16 -62 26 -93 l18
-55 89 21 c50 12 91 26 93 31 5 14 -34 165 -44 174 -4 4 -33 1 -63 -7z"/>
<path d="M10473 3368 c-46 -13 -73 -26 -73 -35 0 -23 30 -147 39 -161 6 -10
26 -8 100 10 l92 22 -7 41 c-3 22 -14 63 -23 90 -19 60 -27 62 -128 33z"/>
<path d="M1925 3318 c5 -18 8 -39 9 -46 2 -20 -328 -232 -352 -225 -17 4 -21
-4 -32 -77 -7 -44 -10 -83 -7 -86 3 -3 41 -11 86 -18 l81 -13 0 33 c0 26 9 40
45 72 71 63 256 171 309 181 26 5 49 11 52 14 4 3 1 37 -6 75 l-11 68 -67 21
c-126 40 -115 39 -107 1z"/>
<path d="M9752 3298 c-8 -8 -12 -47 -12 -108 l0 -97 270 -179 c148 -98 269
-182 270 -186 0 -3 -23 -9 -51 -13 l-50 -7 7 -72 c4 -39 8 -73 11 -75 4 -5
147 17 171 26 12 5 13 23 8 102 -13 191 20 151 -289 357 -257 170 -273 182
-287 222 -15 43 -27 51 -48 30z"/>
<path d="M2025 3029 c-23 -15 -80 -57 -126 -93 -69 -55 -90 -66 -121 -66 l-38
0 0 -135 0 -135 25 0 c13 0 58 5 100 11 70 11 75 13 60 29 -9 10 -15 35 -15
61 l0 45 140 112 c76 61 141 108 143 104 2 -4 12 -31 22 -61 l18 -55 -89 -85
c-121 -117 -175 -160 -212 -167 l-32 -6 0 -95 c0 -85 2 -94 18 -89 18 5 78 20
125 30 24 6 27 11 27 45 0 38 4 43 141 160 122 105 145 121 176 121 24 0 34 4
31 13 -3 6 -25 67 -49 134 l-44 122 -50 6 c-188 23 -204 23 -250 -6z"/>
<path d="M9586 2919 l-98 -50 7 -72 c3 -39 9 -75 11 -79 2 -3 34 2 70 11 l65
19 99 -80 c55 -44 100 -82 100 -86 0 -3 -21 -27 -46 -53 l-46 -46 21 -39 c11
-22 29 -50 40 -64 l20 -25 69 68 68 68 84 -66 c46 -36 87 -65 92 -65 8 0 4 69
-8 148 -3 20 -16 40 -34 54 -16 11 -27 25 -24 30 6 10 -72 118 -85 118 -5 0
-14 -7 -21 -15 -7 -8 -18 -15 -24 -15 -6 0 -59 38 -118 85 -111 87 -111 87
-120 174 -2 14 -7 26 -13 27 -5 2 -54 -20 -109 -47z"/>
<path d="M2416 2658 c12 -34 12 -44 2 -53 -7 -7 -81 -75 -165 -153 -95 -89
-159 -142 -172 -142 -20 0 -21 -5 -21 -85 l0 -85 90 0 90 0 0 43 c0 43 2 46
148 189 129 126 153 146 195 156 26 7 47 16 47 20 0 4 -11 36 -24 72 l-24 65
-48 7 c-27 3 -68 7 -91 7 l-42 1 15 -42z"/>
<path d="M9303 2609 l-113 -61 0 -47 c0 -60 -12 -75 -78 -96 -58 -18 -58 -19
-66 -124 l-4 -63 50 6 50 7 119 -118 c66 -64 119 -125 119 -134 0 -20 38 -29
120 -29 l58 0 4 73 c2 39 2 77 0 83 -2 6 -24 14 -49 17 -43 5 -54 13 -160 119
-105 105 -114 117 -107 142 7 31 56 66 91 66 33 0 276 -240 267 -263 -5 -15 4
-17 85 -17 l91 0 0 48 c0 26 3 64 7 85 6 37 5 38 -20 32 -50 -13 -89 12 -204
128 -102 104 -112 117 -118 160 -4 26 -12 47 -19 46 -6 0 -62 -27 -123 -60z"/>
<path d="M2675 2446 l-80 -11 69 -73 c62 -65 68 -75 62 -103 -6 -32 -63 -105
-167 -217 l-59 -63 0 81 0 80 -90 0 -90 0 0 -119 0 -120 150 -3 150 -3 94 110
c146 172 200 225 224 225 12 0 22 5 22 10 0 19 -174 220 -190 219 -8 -1 -51
-7 -95 -13z"/>
<path d="M8858 2183 l-128 -45 0 -41 c0 -26 -14 -71 -41 -128 l-40 -89 105
-132 c173 -219 138 -195 302 -208 77 -5 150 -10 162 -10 18 0 22 -6 22 -30 0
-64 47 -15 59 61 14 84 27 75 -188 124 -63 14 -123 31 -133 36 -10 5 -60 62
-112 127 l-95 117 67 32 c52 25 69 30 78 20 6 -7 55 -65 109 -129 83 -100 103
-118 127 -118 26 0 28 -3 28 -42 0 -52 7 -45 55 50 l36 72 -23 29 c-13 16 -69
83 -125 150 -93 110 -103 125 -103 161 0 51 -1 51 -162 -7z"/>
<path d="M3175 2031 c-92 -18 -87 -9 -59 -138 14 -63 19 -73 37 -73 21 0 178
31 185 36 2 1 -6 46 -18 98 -25 110 -14 104 -145 77z"/>
<path d="M8471 1886 l-64 -11 -29 -79 -28 -79 44 5 45 5 100 -151 c61 -91 101
-162 101 -177 0 -23 6 -26 78 -40 51 -11 79 -13 84 -6 3 5 9 35 13 65 4 30 9
61 12 68 3 7 -8 15 -29 19 -18 4 -39 12 -46 18 -7 5 -53 70 -102 143 -84 124
-90 137 -90 184 0 34 -4 50 -12 49 -7 -1 -42 -6 -77 -13z"/>
<path d="M3593 1797 c-35 -11 -63 -24 -63 -27 0 -4 40 -42 90 -86 49 -43 90
-83 90 -89 0 -5 -9 -25 -20 -42 l-20 -33 -130 0 -130 0 -24 -37 c-22 -33 -25
-54 -31 -169 -8 -138 -1 -174 33 -174 9 0 55 12 101 25 47 14 106 25 131 25
l47 0 59 128 c95 204 107 226 134 232 20 5 26 13 28 44 3 37 -1 42 -95 132
-61 59 -105 94 -118 93 -11 0 -48 -10 -82 -22z m37 -357 c0 -5 -24 -57 -52
-115 -42 -83 -57 -105 -73 -105 -21 0 -21 1 -7 78 31 161 26 152 82 152 28 0
50 -4 50 -10z"/>
<path d="M8083 1653 c-48 -110 -48 -103 1 -103 l44 0 87 -157 c66 -121 85
-164 81 -184 -5 -26 -2 -28 62 -43 37 -9 74 -19 83 -22 13 -4 20 9 33 67 9 39
16 75 16 79 0 5 -16 14 -35 20 -31 10 -44 27 -115 153 -59 106 -80 151 -80
179 0 64 -5 68 -82 68 l-69 0 -26 -57z"/>
<path d="M2933 1662 c-39 -10 -75 -20 -79 -24 -7 -8 25 -186 35 -192 6 -4 193
33 200 40 3 3 -23 132 -35 177 -6 21 -26 20 -121 -1z"/>
<path d="M3988 1587 c-43 -18 -78 -35 -78 -39 0 -4 36 -28 80 -55 77 -46 80
-49 80 -84 0 -23 -23 -88 -61 -175 -34 -77 -63 -140 -64 -142 -2 -2 -12 29
-24 67 -12 39 -25 71 -29 71 -25 -1 -163 -48 -163 -56 -1 -15 31 -135 48 -182
8 -24 20 -41 27 -39 26 10 242 76 259 79 13 2 38 48 86 158 89 204 98 221 132
250 l30 25 -110 73 c-61 40 -116 74 -123 76 -7 2 -48 -10 -90 -27z"/>
<path d="M7707 1443 c-15 -47 -26 -87 -25 -88 2 -1 42 -13 90 -27 l88 -26 26
84 c15 47 24 88 20 91 -7 8 -146 53 -162 53 -6 0 -23 -39 -37 -87z"/>
<path d="M4585 1422 c-44 -19 -97 -38 -118 -41 l-39 -6 -110 -285 c-61 -157
-114 -289 -118 -294 -5 -4 -16 17 -26 48 -14 45 -22 56 -39 56 -24 0 -127 -18
-132 -23 -1 -2 5 -41 14 -87 16 -82 17 -83 57 -101 52 -24 71 -23 180 5 l90
23 78 224 c43 123 97 266 121 319 38 86 46 97 84 116 23 12 51 24 63 27 19 5
20 8 8 26 -7 11 -17 22 -23 24 -5 3 -46 -12 -90 -31z"/>
<path d="M7906 1088 c-14 -45 -24 -83 -23 -84 12 -10 172 -53 177 -47 10 11
50 134 50 154 0 13 -20 22 -78 38 -43 12 -83 21 -90 21 -6 0 -22 -37 -36 -82z"/>
<path d="M4685 884 c-44 -24 -79 -48 -77 -55 4 -15 93 -169 97 -169 13 0 175
95 175 102 0 19 -92 168 -103 167 -7 -1 -48 -21 -92 -45z"/>
<path d="M14030 6000 l0 -6000 160 0 160 0 0 6000 0 6000 -160 0 -160 0 0
-6000z"/>
<path d="M27083 9835 c-178 -28 -364 -98 -489 -183 -33 -22 -94 -74 -136 -117
-142 -144 -205 -319 -195 -539 10 -232 88 -387 260 -524 163 -129 324 -189
745 -278 518 -108 675 -199 674 -389 -1 -182 -153 -305 -432 -351 -232 -38
-478 13 -622 129 -84 67 -158 198 -158 279 0 23 -4 28 -17 24 -10 -3 -129 -33
-265 -67 l-247 -62 6 -31 c11 -65 66 -213 100 -275 43 -76 172 -214 257 -275
203 -143 426 -212 719 -223 435 -16 777 98 997 334 75 81 145 208 177 323 25
93 25 361 0 440 -47 144 -95 219 -199 313 -131 118 -373 222 -678 290 -63 14
-189 43 -280 63 -317 71 -434 125 -481 221 -61 125 1 262 153 339 65 33 91 41
193 59 303 55 566 -40 658 -238 13 -29 27 -69 30 -91 3 -21 8 -41 11 -44 4 -4
504 116 514 123 11 9 -37 157 -77 240 -140 287 -413 466 -784 515 -105 13
-332 11 -434 -5z"/>
<path d="M29590 9835 c-371 -59 -667 -257 -768 -515 -38 -99 -52 -174 -52
-286 1 -255 80 -421 272 -570 163 -127 334 -188 778 -280 275 -56 470 -127
553 -199 15 -14 39 -48 53 -76 45 -89 23 -217 -49 -298 -40 -44 -135 -98 -219
-124 -228 -71 -464 -59 -657 33 -140 67 -241 190 -260 318 -6 39 -10 46 -26
44 -32 -5 -499 -123 -503 -127 -10 -9 42 -179 76 -250 88 -182 280 -357 489
-445 421 -177 1016 -137 1354 90 84 57 208 183 248 254 69 124 97 221 107 376
20 320 -113 558 -394 703 -120 62 -334 134 -517 173 -634 137 -733 180 -766
333 -18 84 2 143 70 211 97 96 218 138 427 147 122 5 138 4 224 -21 192 -55
296 -155 331 -316 6 -28 15 -50 20 -50 10 0 502 122 507 125 9 7 -32 146 -62
209 -136 295 -415 491 -771 541 -123 18 -351 18 -465 0z"/>
<path d="M37646 9840 c-312 -39 -553 -157 -777 -380 -285 -283 -429 -640 -429
-1065 0 -260 50 -475 160 -695 200 -402 568 -673 995 -735 370 -54 713 38 948
254 l67 63 0 -141 0 -141 250 0 250 0 0 775 0 775 -625 0 -625 0 0 -250 0
-250 375 0 c206 0 375 -2 375 -3 0 -23 -46 -130 -78 -184 -116 -193 -271 -319
-477 -389 -108 -36 -285 -45 -401 -19 -192 42 -383 176 -499 351 -120 180
-176 367 -177 585 0 136 16 241 54 349 106 301 287 494 546 583 77 26 101 30
212 31 143 1 213 -14 325 -70 125 -63 247 -171 311 -275 20 -32 39 -59 42 -59
2 0 123 30 267 67 l262 67 -40 75 c-69 130 -120 203 -208 295 -193 204 -423
325 -706 371 -110 18 -311 26 -397 15z"/>
<path d="M40255 9834 c-356 -60 -625 -230 -745 -472 -98 -199 -97 -488 3 -676
73 -137 249 -282 434 -358 123 -50 220 -76 498 -134 356 -75 542 -145 618
-235 77 -90 74 -228 -8 -335 -52 -68 -181 -132 -330 -165 -99 -22 -324 -17
-420 9 -94 26 -174 63 -230 106 -75 58 -137 144 -155 215 -6 25 -14 58 -18 73
l-7 27 -255 -65 c-140 -36 -256 -67 -258 -69 -7 -7 20 -121 45 -185 39 -105
96 -191 188 -283 165 -165 341 -255 615 -314 118 -25 464 -25 597 0 254 47
454 142 599 284 160 156 229 332 228 583 -2 243 -74 401 -257 556 -106 91
-345 187 -631 253 -72 17 -217 51 -321 75 -247 57 -344 94 -405 155 -127 127
-75 311 112 399 95 45 179 63 323 69 114 5 140 3 210 -16 193 -53 299 -148
339 -305 9 -32 18 -61 20 -63 3 -4 507 116 514 122 2 2 -6 39 -18 82 -50 184
-175 361 -345 490 -104 79 -295 151 -468 177 -130 19 -360 19 -472 0z"/>
<path d="M47875 9835 c-269 -43 -467 -137 -621 -297 -97 -99 -147 -189 -185
-328 -19 -69 -17 -301 4 -380 33 -124 71 -186 186 -300 95 -95 117 -111 211
-158 164 -80 256 -107 719 -207 235 -50 404 -118 476 -190 51 -50 80 -134 70
-197 -18 -113 -85 -198 -201 -254 -125 -60 -208 -77 -384 -77 -142 -1 -163 1
-245 27 -121 37 -196 79 -264 147 -66 67 -98 125 -113 209 -9 47 -15 59 -27
56 -9 -3 -126 -33 -261 -66 -134 -34 -245 -62 -246 -63 -1 -1 9 -44 22 -96 35
-134 99 -251 189 -349 215 -231 493 -345 870 -359 494 -18 881 137 1072 429
86 132 122 263 123 440 0 236 -59 389 -207 529 -110 105 -211 158 -439 232
-145 47 -210 63 -484 122 -180 39 -344 86 -402 116 -97 50 -148 124 -148 215
0 180 186 297 495 311 138 7 224 -8 331 -57 117 -53 213 -172 230 -286 3 -24
9 -44 13 -44 3 0 120 28 259 62 207 52 252 66 252 80 0 40 -56 189 -101 269
-115 204 -319 358 -569 431 -158 46 -448 61 -625 33z"/>
<path d="M50383 9835 c-178 -28 -364 -98 -489 -183 -33 -22 -94 -74 -136 -117
-142 -144 -205 -319 -195 -539 10 -232 88 -387 260 -524 163 -129 324 -189
745 -278 518 -108 675 -199 674 -389 -1 -182 -153 -305 -432 -351 -232 -38
-478 13 -622 129 -84 67 -158 198 -158 279 0 23 -4 28 -17 24 -10 -3 -129 -33
-265 -67 l-247 -61 6 -32 c11 -65 66 -213 100 -275 43 -76 172 -214 257 -275
203 -143 426 -212 719 -223 435 -16 777 98 997 334 75 81 145 208 177 323 25
93 25 361 0 440 -47 144 -95 219 -199 313 -131 118 -373 222 -678 290 -63 14
-189 43 -280 63 -317 71 -434 125 -481 221 -61 125 1 262 153 339 65 33 91 41
193 59 303 55 566 -40 658 -238 13 -29 27 -69 30 -91 3 -21 8 -41 11 -44 4 -4
504 116 514 123 11 9 -37 157 -77 240 -140 287 -413 466 -784 515 -105 13
-332 11 -434 -5z"/>
<path d="M53130 9836 c-285 -45 -507 -159 -715 -370 -131 -132 -189 -212 -267
-366 -94 -187 -138 -344 -159 -572 -19 -201 9 -438 76 -638 33 -98 128 -286
190 -375 67 -95 254 -281 345 -342 226 -152 463 -222 745 -223 208 0 401 43
580 131 207 100 353 227 484 419 56 81 126 208 119 215 -2 2 -114 31 -248 65
-135 33 -252 63 -261 66 -11 3 -28 -15 -57 -58 -105 -164 -292 -296 -470 -333
-94 -19 -239 -19 -322 1 -143 33 -319 144 -410 258 -110 137 -175 276 -217
460 -22 99 -25 127 -20 256 5 169 33 291 97 428 98 210 229 345 415 432 95 44
143 57 250 66 259 21 527 -114 674 -340 24 -36 45 -66 47 -66 10 0 529 132
532 135 6 6 -77 161 -120 222 -191 273 -480 458 -806 519 -117 21 -374 27
-482 10z"/>
<path d="M60843 9835 c-178 -28 -364 -98 -489 -183 -33 -22 -94 -74 -136 -117
-142 -144 -205 -319 -195 -539 10 -232 88 -387 260 -524 163 -129 324 -189
745 -278 518 -108 675 -199 674 -389 -1 -182 -153 -305 -432 -351 -232 -38
-478 13 -622 129 -84 67 -158 198 -158 279 0 23 -4 28 -17 24 -10 -3 -129 -33
-265 -67 l-247 -61 6 -32 c11 -65 66 -213 100 -275 43 -76 172 -214 257 -275
203 -143 426 -212 719 -223 435 -16 777 98 997 334 75 81 145 208 177 323 25
93 25 361 0 440 -47 144 -95 219 -199 313 -131 118 -373 222 -678 290 -63 14
-189 43 -280 63 -317 71 -434 125 -481 221 -61 125 1 262 153 339 65 33 91 41
193 59 303 55 566 -40 658 -238 13 -29 27 -69 30 -91 3 -21 8 -41 11 -44 4 -4
504 116 514 123 11 9 -37 157 -77 240 -140 287 -413 466 -784 515 -105 13
-332 11 -434 -5z"/>
<path d="M63350 9835 c-371 -59 -667 -257 -768 -515 -38 -99 -52 -174 -52
-286 1 -255 80 -421 272 -570 163 -127 334 -188 778 -280 275 -56 470 -127
553 -199 15 -14 39 -48 53 -76 45 -89 23 -217 -49 -298 -40 -44 -135 -98 -219
-124 -228 -71 -464 -59 -657 33 -140 67 -241 190 -260 318 -6 39 -10 46 -26
44 -32 -5 -499 -123 -503 -127 -10 -9 42 -179 76 -250 88 -182 280 -357 489
-445 421 -177 1016 -137 1354 90 84 57 208 183 248 254 69 124 97 221 107 376
20 320 -113 558 -394 703 -120 62 -334 134 -517 173 -634 137 -733 180 -766
333 -18 84 2 143 70 211 97 96 218 138 427 147 122 5 138 4 224 -21 192 -55
296 -155 331 -316 6 -28 15 -50 20 -50 10 0 502 122 507 125 9 7 -32 146 -62
209 -136 295 -415 491 -771 541 -123 18 -351 18 -465 0z"/>
<path d="M16630 9530 l0 -250 715 0 c393 0 715 -2 715 -5 0 -3 -51 -67 -113
-143 -62 -75 -310 -378 -552 -672 -242 -294 -521 -635 -622 -758 l-183 -222 0
-240 0 -240 1085 0 1085 0 0 250 0 250 -755 2 -756 3 79 95 c43 52 274 334
513 625 239 292 537 655 662 807 l227 277 0 235 0 236 -1050 0 -1050 0 0 -250z"/>
<path d="M19013 8843 c3 -821 5 -949 20 -1028 47 -258 122 -418 266 -569 190
-198 447 -296 781 -296 537 0 891 253 1025 735 47 165 47 181 52 1163 l4 932
-270 0 -270 0 -4 -922 c-4 -1028 -1 -991 -73 -1137 -37 -74 -91 -136 -154
-176 -153 -96 -434 -100 -602 -8 -112 61 -202 204 -227 364 -7 41 -11 392 -11
972 l0 907 -271 0 -270 0 4 -937z"/>
<path d="M21550 8390 l0 -1390 960 0 960 0 0 250 0 250 -690 0 -690 0 0 1140
0 1140 -270 0 -270 0 0 -1390z"/>
<path d="M24440 9754 c-6 -14 -66 -186 -134 -382 -69 -196 -282 -809 -475
-1361 -193 -552 -351 -1005 -351 -1007 0 -2 127 -4 283 -4 l283 0 93 275 94
275 551 0 551 0 38 -113 c22 -61 64 -185 94 -274 l55 -163 284 0 283 0 -35
103 c-20 56 -100 287 -179 512 -79 226 -193 554 -255 730 -61 176 -145 415
-185 530 -40 116 -123 354 -185 530 -61 176 -116 332 -122 348 l-10 27 -334 0
-334 0 -10 -26z m501 -1044 c81 -239 163 -482 183 -540 20 -57 36 -108 36
-112 0 -4 -171 -8 -380 -8 l-379 0 163 483 c90 265 176 515 190 556 14 41 26
77 27 80 1 9 1 8 160 -459z"/>
<path d="M31293 8843 c3 -821 5 -949 20 -1028 47 -258 122 -418 266 -569 190
-198 447 -296 781 -296 539 0 889 251 1025 735 47 164 47 181 52 1163 l4 932
-270 0 -270 0 -4 -922 c-4 -1028 -1 -991 -73 -1137 -37 -74 -91 -136 -154
-176 -153 -96 -434 -100 -602 -8 -112 61 -202 204 -227 364 -7 41 -11 392 -11
972 l0 907 -271 0 -270 0 4 -937z"/>
<path d="M33830 8390 l0 -1390 270 0 270 0 2 974 3 975 161 -282 c89 -155 309
-538 489 -852 180 -313 359 -625 397 -692 l70 -123 324 0 324 0 0 1390 0 1390
-270 0 -270 0 -2 -978 -3 -978 -559 978 -559 978 -323 0 -324 0 0 -1390z"/>
<path d="M42712 9753 c-6 -16 -61 -172 -122 -348 -62 -176 -145 -414 -185
-530 -40 -115 -124 -354 -185 -530 -62 -176 -176 -504 -255 -730 -79 -225
-159 -456 -179 -512 l-35 -103 283 0 284 0 55 163 c30 89 72 213 94 274 l38
113 551 0 551 0 94 -275 93 -275 283 0 c156 0 283 2 283 4 0 4 -920 2642 -949
2721 l-19 50 -335 3 -334 2 -11 -27z m522 -1104 c96 -283 179 -527 185 -542
23 -60 45 -57 -368 -57 l-380 0 131 383 c71 210 157 462 190 560 33 98 62 177
64 174 2 -2 82 -235 178 -518z"/>
<path d="M44550 8865 c0 -768 2 -931 15 -1016 41 -272 122 -452 274 -607 184
-189 400 -275 717 -289 479 -20 823 158 1005 519 21 43 52 124 69 180 60 210
60 206 60 1211 l0 917 -270 0 -270 0 0 -907 c0 -580 -4 -931 -11 -972 -25
-160 -115 -303 -227 -364 -168 -92 -449 -88 -602 8 -63 40 -117 102 -154 176
-72 146 -69 109 -73 1137 l-4 922 -264 0 -265 0 0 -915z"/>
<path d="M54860 8390 l0 -1390 270 0 270 0 0 585 0 585 585 0 585 0 0 -585 0
-585 270 0 270 0 0 1390 0 1390 -270 0 -270 0 0 -555 0 -555 -585 0 -585 0 0
555 0 555 -270 0 -270 0 0 -1390z"/>
<path d="M57513 8853 c3 -780 6 -942 19 -1018 64 -369 220 -611 489 -759 247
-135 657 -166 959 -70 165 51 283 125 398 249 126 135 197 284 254 531 22 98
22 105 25 1047 l4 947 -270 0 -270 0 -3 -937 c-4 -1036 0 -980 -68 -1120 -82
-168 -239 -253 -465 -252 -226 0 -384 85 -461 248 -72 152 -74 178 -74 1182
l0 879 -271 0 -270 0 4 -927z"/>
<path d="M23845 5044 c-276 -38 -388 -73 -562 -174 -180 -104 -320 -237 -439
-415 -168 -253 -254 -541 -254 -855 0 -413 152 -794 424 -1065 260 -258 573
-385 943 -385 379 1 701 140 962 416 200 211 328 483 377 799 16 107 18 332 4
442 -44 333 -189 632 -415 859 -238 238 -535 365 -885 378 -69 2 -138 3 -155
0z m215 -515 c356 -57 638 -368 701 -772 16 -107 7 -319 -20 -419 -107 -409
-420 -678 -786 -678 -305 0 -571 177 -715 475 -165 339 -140 730 64 1038 172
259 474 402 756 356z"/>
<path d="M16750 3590 l0 -1390 270 0 270 0 0 1390 0 1390 -270 0 -270 0 0
-1390z"/>
<path d="M17720 3590 l0 -1390 270 0 270 0 2 974 3 974 556 -971 556 -972 327
-3 326 -2 0 1390 0 1390 -270 0 -270 0 -2 -981 -3 -980 -560 980 -560 981
-322 0 -323 0 0 -1390z"/>
<path d="M20450 3590 l0 -1390 270 0 270 0 0 565 0 565 625 0 625 0 0 250 0
250 -625 0 -625 0 0 325 0 325 725 0 725 0 0 250 0 250 -995 0 -995 0 0 -1390z"/>
<path d="M25630 3590 l0 -1390 265 0 265 0 0 495 0 495 217 -2 218 -3 285
-492 285 -493 319 0 c253 0 316 3 309 13 -19 24 -595 1018 -592 1021 2 1 34
15 70 30 250 103 418 300 491 575 26 100 33 314 13 425 -61 334 -246 558 -543
658 -162 55 -214 58 -939 58 l-663 0 0 -1390z m1405 862 c149 -56 215 -170
215 -372 0 -202 -66 -316 -215 -372 -58 -22 -74 -23 -467 -26 l-408 -3 0 401
0 401 408 -3 c393 -3 409 -4 467 -26z"/>
<path d="M28180 3590 l0 -1390 265 0 265 0 2 987 3 986 47 -169 c63 -226 389
-1412 439 -1594 22 -80 45 -160 50 -177 l11 -33 287 0 287 0 63 228 c72 260
369 1333 439 1586 l47 169 3 -991 2 -992 265 0 265 0 0 1390 0 1390 -400 0
-399 0 -10 -37 c-6 -21 -65 -231 -131 -468 -66 -236 -190 -686 -277 -998 -87
-312 -159 -564 -160 -560 -2 4 -79 283 -172 618 -234 844 -391 1407 -397 1428
-5 16 -33 17 -400 17 l-394 0 0 -1390z"/>
<path d="M32072 4953 c-6 -16 -61 -172 -122 -348 -62 -176 -145 -414 -185
-530 -40 -115 -124 -354 -185 -530 -62 -176 -176 -504 -255 -730 -79 -225
-159 -456 -179 -512 l-35 -103 283 0 284 0 55 162 c30 90 72 214 94 275 l38
113 551 0 551 0 94 -275 93 -275 283 0 c156 0 283 2 283 4 0 4 -920 2642 -949
2721 l-19 50 -335 3 -334 2 -11 -27z m522 -1104 c96 -283 179 -527 185 -542
23 -60 45 -57 -368 -57 l-380 0 131 383 c71 210 157 462 190 560 33 98 62 177
64 174 2 -2 82 -235 178 -518z"/>
<path d="M33740 4730 l0 -250 370 0 370 0 0 -1140 0 -1140 270 0 270 0 0 1140
0 1140 370 0 370 0 0 250 0 250 -1010 0 -1010 0 0 -250z"/>
<path d="M36010 3590 l0 -1390 265 0 265 0 0 1390 0 1390 -265 0 -265 0 0
-1390z"/>
<path d="M36970 3590 l0 -1390 270 0 270 0 0 471 0 471 133 139 c72 76 135
139 138 139 6 0 370 -519 738 -1052 l116 -167 348 -1 c328 0 347 1 338 18 -5
9 -269 373 -585 807 l-575 790 112 115 c105 108 263 271 642 660 88 91 210
216 270 278 l109 112 -371 0 -370 0 -446 -478 c-245 -263 -479 -514 -521 -558
l-75 -79 -1 558 0 557 -270 0 -270 0 0 -1390z"/>
</g>
</svg>
