<?xml version="1.0" standalone="no"?>  
<svg version="1.0" xmlns="http://www.w3.org/2000/svg"
 width="1200.000000pt" height="1200.000000pt" viewBox="0 0 1200.000000 1200.000000"
 preserveAspectRatio="xMidYMid meet">

<g transform="translate(450.000000,1200.000000) scale(0.100000,-0.100000)"
fill="#d6d6d6" stroke="none">
<path d="M5555 11989 c-1447 -110 -2779 -721 -3801 -1743 -471 -472 -841 -986
-1135 -1581 -345 -698 -542 -1408 -604 -2178 -20 -247 -20 -727 0 -974 92
-1134 498 -2206 1182 -3118 893 -1189 2202 -2010 3648 -2289 426 -81 648 -101
1155 -101 456 0 571 8 920 61 2402 369 4348 2160 4920 4529 57 235 106 528
137 815 22 208 26 917 5 1130 -136 1399 -708 2644 -1676 3649 -631 654 -1482
1193 -2352 1491 -494 169 -995 270 -1534 310 -158 12 -706 11 -865 -1z m770
-69 c982 -57 1905 -341 2734 -843 1347 -813 2319 -2130 2695 -3651 268 -1082
225 -2231 -125 -3286 -454 -1371 -1393 -2529 -2649 -3265 -662 -388 -1417
-647 -2181 -749 -316 -42 -456 -51 -809 -50 -360 0 -538 13 -860 60 -1761 257
-3323 1309 -4237 2854 -1103 1864 -1095 4199 20 6055 728 1211 1871 2130 3207
2578 698 235 1476 339 2205 297z"/>
<path d="M5507 11794 c-1389 -116 -2692 -731 -3667 -1730 -889 -911 -1454
-2081 -1609 -3334 -33 -264 -42 -426 -42 -730 0 -304 9 -466 42 -730 123 -992
512 -1958 1110 -2752 967 -1285 2389 -2105 3974 -2293 241 -28 432 -37 378
-18 -7 2 -48 26 -92 52 -69 42 -90 49 -153 55 -799 77 -1586 328 -2289 732
-1510 866 -2551 2389 -2808 4104 -47 316 -56 448 -56 850 0 403 8 531 56 850
86 575 255 1118 510 1640 220 449 448 801 775 1195 139 167 512 540 679 679
570 474 1175 816 1848 1045 805 274 1683 365 2532 260 751 -92 1460 -325 2115
-697 1531 -867 2582 -2395 2839 -4128 71 -478 80 -1017 26 -1499 -101 -882
-422 -1761 -918 -2505 -98 -148 -307 -424 -423 -560 -124 -146 -454 -476 -604
-604 -638 -545 -1379 -947 -2155 -1167 -333 -94 -717 -168 -1018 -194 -69 -7
-87 -13 -158 -56 -44 -26 -85 -50 -92 -52 -34 -12 11 -14 123 -6 1899 138
3620 1209 4585 2854 458 781 719 1627 786 2545 15 210 6 808 -15 1000 -36 317
-85 586 -162 880 -434 1670 -1614 3076 -3190 3803 -609 281 -1282 457 -1957
512 -231 18 -745 18 -970 -1z"/>
<path d="M5895 11460 c-89 -27 -130 -137 -90 -238 23 -55 64 -89 121 -98 186
-28 275 205 122 319 -30 23 -108 31 -153 17z"/>
<path d="M6815 11352 c-48 -23 -57 -33 -80 -94 -47 -126 62 -258 192 -233 88
16 138 88 131 187 -5 62 -23 96 -71 132 -38 28 -121 32 -172 8z"/>
<path d="M4880 11331 c-43 -22 -68 -63 -76 -123 -9 -61 30 -148 78 -178 47
-29 134 -28 178 3 59 40 75 71 75 147 0 76 -16 107 -75 148 -43 29 -130 30
-180 3z"/>
<path d="M4223 11149 c-136 -67 -111 -282 37 -320 151 -39 260 108 188 251
-42 81 -140 111 -225 69z"/>
<path d="M7537 11146 c-50 -19 -67 -34 -88 -81 -50 -110 11 -238 121 -252 96
-13 169 35 188 124 32 146 -88 259 -221 209z"/>
<path d="M5528 11099 c-12 -6 -18 -22 -18 -44 l0 -35 -225 0 -225 0 0 -777 c0
-664 2 -775 14 -763 8 8 53 93 101 189 l87 173 -4 99 c-4 100 -18 141 -38 109
-5 -8 -10 -27 -10 -41 0 -26 -34 -79 -50 -79 -22 0 -40 34 -40 75 0 54 16 93
43 101 18 6 17 8 -11 37 -37 40 -52 69 -52 102 0 39 27 85 51 85 26 0 69 -43
69 -70 0 -29 13 -24 30 13 30 65 89 35 76 -39 -4 -18 -22 -56 -41 -84 l-34
-50 24 -53 c14 -28 25 -62 25 -74 0 -13 3 -23 8 -23 4 0 42 69 85 153 76 148
77 154 76 222 -1 113 -39 189 -53 106 -12 -78 -42 -115 -72 -90 -33 27 -24
152 12 166 15 6 20 33 5 33 -20 0 -55 74 -54 113 4 95 86 104 117 13 l14 -40
7 32 c8 40 41 65 67 51 35 -19 17 -102 -36 -172 l-25 -33 24 -49 c14 -26 25
-61 25 -77 0 -15 3 -28 8 -28 4 0 42 67 85 149 77 147 77 149 77 225 0 75 -19
146 -38 146 -6 0 -13 -20 -16 -45 -9 -58 -38 -94 -63 -79 -14 8 -19 26 -21 73
-3 53 0 64 21 85 l23 23 -28 32 c-15 17 -28 36 -28 41 0 6 41 10 100 10 55 0
100 -3 100 -6 0 -3 -13 -23 -30 -44 -34 -42 -36 -57 -16 -85 7 -11 17 -36 20
-55 12 -58 17 -71 26 -65 7 4 130 251 130 261 0 2 -27 4 -60 4 l-60 0 0 30 c0
39 -40 59 -74 36 -19 -12 -24 -11 -45 5 -26 21 -57 24 -83 8z"/>
<path d="M6305 11080 c-17 -18 -20 -19 -36 -4 -10 9 -30 14 -45 12 -22 -2 -30
-10 -38 -35 -9 -32 -11 -33 -62 -33 -30 0 -54 -4 -54 -10 0 -21 125 -260 135
-257 5 2 13 23 17 46 4 23 17 58 28 77 l22 34 -31 35 c-17 20 -31 40 -31 45 0
6 41 10 95 10 l95 0 -16 -25 c-9 -14 -24 -30 -33 -35 -15 -9 -14 -11 1 -24 44
-34 59 -136 24 -165 -25 -21 -46 0 -63 60 -9 33 -19 59 -23 59 -24 0 -35 -40
-38 -134 l-4 -101 72 -142 c39 -79 77 -143 84 -143 8 0 16 17 20 41 4 23 16
58 29 79 l22 39 -22 23 c-54 57 -77 167 -39 181 22 9 53 -20 61 -55 l7 -33 20
48 c25 58 61 73 90 37 33 -41 20 -121 -28 -165 l-27 -25 27 -21 c25 -20 27
-26 24 -88 -3 -63 -4 -66 -28 -66 -22 0 -27 8 -45 63 -10 34 -24 61 -30 59
-16 -6 -33 -86 -34 -165 -1 -72 0 -75 72 -214 41 -78 79 -144 85 -146 5 -1 13
16 17 40 4 24 16 60 28 80 20 36 20 37 1 64 -52 73 -54 79 -52 129 3 43 6 50
25 53 25 4 53 -31 53 -65 0 -13 5 -23 10 -23 6 0 10 13 10 29 0 28 39 81 60
81 5 0 19 -9 30 -20 37 -37 22 -128 -28 -174 l-21 -18 26 -22 c19 -17 27 -34
31 -74 5 -56 -7 -82 -39 -82 -22 0 -29 10 -43 68 -25 96 -56 45 -56 -90 l0
-91 80 -164 c50 -101 86 -163 95 -163 13 0 15 96 15 760 l0 760 -214 0 -214 0
-12 34 c-16 50 -71 64 -105 26z"/>
<path d="M5915 10890 c-198 -391 -315 -630 -315 -644 0 -9 7 -19 15 -22 15 -6
68 29 241 158 51 37 97 68 104 68 6 0 73 -45 147 -101 168 -126 188 -138 204
-122 19 19 1 61 -170 399 -178 351 -180 354 -226 264z"/>
<path d="M3619 10837 c-76 -51 -100 -152 -56 -237 28 -56 72 -80 147 -80 103
0 160 59 160 166 0 70 -23 113 -79 151 -47 32 -125 32 -172 0z"/>
<path d="M8162 10822 c-104 -31 -144 -172 -78 -273 81 -121 274 -75 301 72 24
128 -97 237 -223 201z"/>
<path d="M4258 10738 c-47 -47 -334 -358 -446 -483 l-72 -80 0 -357 c0 -197 3
-358 8 -358 4 0 22 29 40 64 18 35 48 81 66 102 53 63 58 76 45 136 -10 46
-13 50 -23 34 -19 -32 -47 -57 -59 -53 -21 6 -20 85 1 128 l20 39 -40 40 c-34
34 -39 44 -33 67 20 81 105 82 105 2 l0 -30 26 20 c33 26 56 27 77 3 29 -32
14 -88 -31 -118 -23 -15 -24 -21 -19 -71 3 -31 10 -60 15 -65 10 -10 135 119
159 165 10 21 13 43 8 74 -6 44 -7 44 -30 29 -33 -22 -51 -20 -69 6 -22 32
-20 62 8 95 l24 28 -24 28 c-38 45 -25 121 24 134 36 9 55 -17 54 -73 0 -34 3
-43 11 -35 21 21 65 13 83 -15 16 -24 16 -28 1 -60 -10 -19 -24 -37 -32 -40
-17 -7 -20 -68 -5 -108 l10 -26 62 35 c70 38 76 48 77 143 l1 62 -33 0 c-43 0
-57 15 -57 65 0 47 23 85 51 85 23 0 22 -4 5 63 -23 90 -1 147 59 147 17 0 39
-6 49 -13 25 -19 31 -87 12 -143 -20 -58 -20 -54 2 -54 25 0 50 -30 58 -68 9
-44 -17 -82 -55 -82 -26 0 -29 -3 -34 -47 -10 -87 0 -110 61 -149 30 -20 58
-32 62 -27 5 4 15 30 22 57 14 47 14 50 -9 72 -54 54 -3 132 67 100 13 -5 15
0 12 32 -5 47 18 75 57 70 21 -2 29 -12 40 -45 14 -40 14 -43 -12 -81 -25 -39
-25 -40 -7 -57 23 -21 29 -51 17 -87 -12 -38 -40 -44 -78 -17 -37 26 -44 19
-54 -53 -7 -48 -6 -50 42 -101 27 -29 57 -64 67 -79 10 -16 23 -25 32 -21 17
6 19 69 3 79 -6 3 -17 21 -25 40 -28 67 22 116 77 75 l29 -22 0 31 c0 59 89
67 117 11 14 -30 -2 -69 -43 -99 l-28 -19 22 -28 c26 -33 29 -87 6 -109 -22
-23 -39 -20 -77 14 -35 30 -35 30 -41 8 -11 -43 -6 -70 23 -111 38 -56 100
-180 116 -234 17 -55 11 -55 -13 1 -65 146 -293 418 -426 507 -98 66 -144 54
-268 -73 -96 -99 -174 -206 -245 -334 -109 -199 -126 -259 -108 -385 6 -40 3
-49 -20 -77 -81 -96 -232 9 -170 118 12 20 14 93 15 393 0 202 -3 367 -6 367
-11 0 -269 -173 -367 -247 -979 -737 -1618 -1819 -1791 -3033 -31 -214 -40
-372 -40 -650 0 -288 8 -398 45 -660 137 -963 595 -1875 1294 -2575 559 -559
1265 -971 2024 -1180 l116 -32 6 -159 c7 -181 26 -260 104 -414 206 -409 765
-826 1046 -781 320 52 780 439 958 805 71 147 91 242 94 444 l2 104 150 43
c774 224 1430 609 1990 1170 1058 1059 1528 2537 1279 4020 -219 1310 -1017
2474 -2170 3168 -34 20 -64 37 -68 37 -3 0 -6 -175 -6 -390 0 -246 4 -390 10
-390 5 0 16 -13 25 -30 60 -117 -86 -228 -169 -129 -36 43 -36 115 -1 157 l25
30 0 478 0 479 -286 293 c-157 160 -292 292 -299 292 -8 0 -18 -6 -22 -14 -8
-13 -202 -225 -455 -497 l-128 -137 0 -316 c0 -174 4 -316 8 -316 5 0 18 18
31 40 12 22 49 76 82 121 58 77 60 82 53 125 -3 24 -9 44 -13 44 -3 0 -14 -14
-23 -30 -20 -36 -46 -48 -59 -29 -12 18 -3 83 18 126 l16 34 -37 33 c-27 25
-36 42 -36 65 0 32 29 71 53 71 28 0 57 -31 57 -61 l0 -30 29 20 c16 12 35 21
43 21 47 0 52 -74 8 -123 -24 -27 -30 -44 -30 -78 0 -77 11 -77 81 -4 87 91
99 111 99 169 l0 48 -25 -16 c-13 -9 -31 -16 -39 -16 -45 0 -63 83 -26 120
l21 21 -21 26 c-39 49 -17 143 34 143 34 0 46 -19 46 -74 0 -39 3 -47 12 -38
15 15 61 15 76 0 23 -23 14 -74 -20 -107 l-31 -31 12 -55 c7 -30 14 -55 17
-55 2 0 26 14 52 30 27 17 54 30 60 30 16 0 25 43 26 115 l1 60 -33 3 c-42 4
-67 40 -58 84 8 39 33 68 58 68 14 0 18 5 14 18 -2 9 -10 36 -17 59 -14 51 -5
109 21 123 79 42 140 -32 106 -129 -20 -55 -20 -71 -1 -71 30 0 55 -38 55 -83
0 -52 -13 -67 -57 -67 l-33 0 0 -75 c0 -61 4 -79 20 -95 17 -17 91 -60 104
-60 3 0 13 25 22 55 18 55 17 55 -4 75 -41 38 -22 120 28 120 10 0 22 -4 25
-10 14 -22 25 -8 25 33 0 48 13 67 46 67 51 0 73 -93 33 -136 l-21 -23 21 -27
c26 -33 27 -85 3 -107 -24 -22 -34 -21 -66 4 -33 26 -43 19 -52 -39 -9 -56 -7
-74 11 -85 7 -4 37 -36 65 -72 29 -36 56 -63 61 -59 16 9 10 68 -11 99 -25 38
-26 77 -2 98 25 22 45 21 67 -3 25 -28 35 -25 35 10 0 49 58 67 98 30 32 -30
27 -55 -18 -103 -38 -42 -39 -44 -20 -60 28 -24 36 -66 19 -96 -21 -38 -46
-38 -85 0 -35 34 -36 34 -48 -24 -5 -21 1 -38 22 -70 42 -61 118 -216 126
-257 6 -27 -3 -16 -38 48 -140 257 -366 493 -485 509 -52 7 -87 -13 -183 -105
-134 -128 -321 -434 -366 -599 -17 -60 -17 -72 -5 -102 18 -43 3 -90 -38 -126
-36 -30 -73 -32 -116 -5 -41 24 -62 87 -44 126 10 23 6 39 -40 140 -65 145
-178 344 -285 504 -175 262 -402 468 -535 486 -38 5 -55 0 -127 -36 -111 -56
-250 -189 -386 -370 -118 -157 -195 -286 -307 -512 -77 -157 -80 -165 -74
-215 8 -64 -12 -107 -59 -130 -42 -20 -79 -11 -117 27 -39 39 -41 105 -4 148
l25 30 0 468 -1 469 -307 313 c-169 172 -310 313 -314 312 -4 0 -27 -19 -50
-42z m1772 -1150 c47 -108 78 -168 87 -168 8 0 94 9 190 21 96 11 177 18 180
15 3 -3 -45 -73 -106 -155 -61 -83 -111 -154 -111 -159 0 -5 50 -75 110 -157
61 -82 110 -153 110 -158 0 -4 -15 -6 -32 -3 -52 9 -304 36 -331 36 -22 0 -32
-17 -99 -171 -41 -94 -78 -171 -83 -171 -5 0 -42 76 -82 168 -40 92 -75 169
-78 172 -4 5 -285 -23 -354 -35 -46 -8 -44 -4 79 162 56 75 103 142 106 149 3
7 -47 82 -110 167 -63 85 -113 155 -111 157 2 2 84 -6 184 -17 100 -12 187
-21 195 -21 7 0 32 46 56 103 82 194 110 251 119 241 5 -5 41 -84 81 -176z
m2710 -834 c95 -22 237 -94 287 -146 64 -65 138 -196 158 -278 24 -97 17 -205
-19 -282 -14 -32 -30 -58 -35 -58 -6 0 -23 17 -38 38 -15 20 -52 65 -80 100
-58 69 -57 64 -43 148 13 72 44 149 77 188 34 40 27 70 -16 74 -43 4 -116 -23
-135 -50 -13 -18 -22 -20 -66 -15 -28 3 -63 2 -77 -4 -15 -6 -44 -7 -64 -4
-30 5 -36 10 -32 26 3 11 -2 28 -12 39 -19 21 -45 27 -45 10 0 -11 22 -63 31
-70 3 -3 8 -13 12 -22 3 -10 16 -18 27 -18 25 0 25 -2 0 -42 -28 -46 -26 -93
5 -123 55 -56 135 -10 135 78 0 18 -4 39 -10 47 -12 20 8 32 33 18 26 -13 67
5 67 31 0 12 9 20 25 23 26 5 32 -1 16 -17 -12 -14 -48 -122 -56 -167 -9 -58
-32 -68 -155 -68 -58 0 -131 -6 -163 -14 l-58 -14 20 22 c26 27 27 68 4 104
-22 34 -33 42 -60 42 -31 0 -29 25 2 46 22 14 25 22 19 48 -10 46 -7 90 10
131 14 32 18 35 36 25 24 -13 40 -6 40 19 0 36 -67 64 -97 40 -28 -24 -56
-101 -63 -175 -8 -77 -21 -101 -82 -140 -35 -22 -41 -23 -82 -12 -37 10 -54 9
-110 -6 -117 -32 -126 -64 -31 -107 135 -61 237 -148 261 -223 38 -117 69
-154 59 -68 -7 57 17 110 61 131 23 11 36 12 74 2 58 -15 89 -47 101 -102 9
-40 8 -46 -12 -62 -13 -10 -35 -21 -51 -24 -30 -6 -38 -27 -12 -37 31 -12 53
-6 75 22 l23 27 52 -53 c50 -53 51 -55 42 -91 -10 -37 -79 -162 -106 -193 -9
-11 -29 -18 -52 -18 -35 0 -40 4 -81 67 -24 36 -52 78 -61 92 -10 14 -18 42
-18 62 0 20 -7 42 -15 49 -12 10 -15 10 -15 0 0 -6 -14 0 -31 14 -29 24 -69
35 -69 19 0 -5 14 -32 30 -62 35 -63 36 -60 -60 -92 -36 -12 -75 -27 -87 -35
l-21 -13 34 -63 c41 -78 44 -125 9 -195 -33 -66 -47 -78 -73 -62 -11 7 -27 9
-36 6 -15 -6 -15 -10 5 -37 13 -16 28 -30 35 -30 6 0 15 -11 18 -25 4 -15 16
-27 30 -31 32 -8 97 -86 137 -165 32 -61 33 -69 35 -189 1 -122 2 -126 33
-175 65 -103 60 -161 -22 -238 -38 -36 -56 -47 -71 -42 -12 3 -46 8 -76 12
-46 5 -60 12 -86 39 -48 52 -103 38 -91 -22 5 -28 4 -27 -36 28 -20 27 -36 38
-59 40 l-31 3 27 32 c15 18 60 53 101 78 56 35 75 53 80 75 3 15 19 48 34 72
50 79 65 156 27 142 -8 -3 -20 -22 -27 -42 -6 -21 -22 -51 -35 -69 -13 -17
-30 -49 -37 -69 -10 -32 -24 -43 -97 -84 -77 -43 -88 -52 -115 -104 -47 -89
-113 -120 -162 -74 -28 26 -29 40 -4 62 11 10 21 28 23 40 3 18 11 21 53 24
59 4 72 13 98 72 11 24 42 71 68 103 40 47 49 65 49 96 0 25 12 56 35 95 19
32 35 60 35 63 0 2 -10 3 -21 1 -37 -5 -79 -69 -88 -131 -6 -46 -15 -64 -49
-101 -23 -25 -50 -63 -59 -83 -28 -62 -42 -73 -90 -73 -44 0 -83 -25 -83 -53
0 -7 -8 -29 -19 -49 -14 -28 -21 -34 -30 -25 -15 15 -14 39 4 63 19 26 19 31
-6 37 -32 8 -18 30 28 43 66 19 84 33 105 82 11 26 40 65 64 88 43 40 43 41
43 105 -1 35 3 76 9 90 11 28 57 69 77 69 16 0 69 60 90 101 21 40 16 73 -12
77 -16 2 -23 -3 -28 -27 -16 -72 -70 -100 -133 -67 -51 27 -73 59 -70 105 3
48 23 55 33 10 5 -24 11 -29 28 -27 49 7 6 110 -48 116 -32 4 -48 -14 -35 -39
7 -12 4 -21 -9 -33 -58 -53 -179 80 -212 233 -8 37 -7 65 1 106 6 31 15 54 18
53 4 -2 31 -15 60 -28 l53 -23 -8 -41 c-12 -63 -10 -141 6 -159 9 -12 29 -17
60 -17 39 0 52 5 76 30 16 17 35 30 42 30 7 0 13 7 13 15 0 21 -38 19 -75 -3
-55 -33 -65 -34 -75 -6 -8 20 -4 39 16 90 14 36 24 70 21 77 -3 7 -37 25 -76
41 -83 33 -98 47 -84 79 13 28 62 87 73 87 4 0 35 -36 69 -80 34 -43 66 -82
70 -85 5 -2 26 2 47 11 55 23 206 14 245 -15 32 -24 39 -19 91 54 42 59 78
128 78 149 0 32 -127 111 -217 135 -48 13 -61 38 -70 142 -7 76 17 211 49 273
82 163 236 293 393 332 70 17 188 17 265 -2z m-3698 -171 c13 -21 28 -51 33
-68 8 -22 19 -32 48 -40 35 -10 37 -12 22 -25 -24 -20 -55 -85 -55 -115 0 -29
40 -75 65 -75 44 0 85 63 85 130 0 17 9 39 19 49 24 24 121 53 121 37 0 -3
-14 -25 -30 -50 -46 -67 -70 -126 -70 -173 l0 -42 -102 6 c-87 5 -115 2 -183
-16 -44 -12 -95 -31 -113 -42 -18 -10 -35 -19 -37 -19 -1 0 -17 23 -35 50 -18
28 -63 79 -101 114 -38 35 -66 66 -62 70 15 14 59 4 107 -26 36 -22 62 -31 89
-30 21 1 37 -1 35 -6 -2 -4 -10 -19 -17 -34 -12 -24 -12 -31 3 -53 13 -20 25
-25 56 -25 55 0 80 26 80 85 0 39 -6 52 -40 89 l-40 44 25 16 c19 13 25 25 25
55 0 21 5 53 11 72 6 19 12 40 15 47 6 21 22 13 46 -25z m4625 -15 c23 -22 28
-56 14 -93 -14 -34 -3 -45 40 -39 34 6 40 4 50 -19 14 -32 4 -47 -52 -79 l-39
-22 0 -235 c0 -251 16 -394 48 -440 60 -84 64 -103 32 -144 -11 -14 -34 -28
-50 -32 -38 -8 -38 -25 0 -47 46 -26 70 -74 70 -138 0 -30 -11 -140 -24 -245
-86 -664 -106 -1184 -57 -1455 10 -58 24 -136 31 -173 10 -56 16 -70 35 -77
27 -10 35 -29 35 -81 0 -72 -7 -75 -256 -82 -120 -4 -436 -7 -702 -7 -533 0
-534 0 -572 62 -23 39 -26 90 -6 107 8 7 27 16 43 20 42 11 36 35 -10 39 -45
4 -80 -16 -108 -61 -32 -52 -12 -154 40 -201 20 -18 21 -29 21 -195 0 -260
-10 -401 -27 -401 -8 0 -28 -13 -44 -29 -25 -26 -29 -37 -29 -86 0 -46 4 -60
25 -80 13 -14 30 -25 38 -25 18 0 7 -115 -33 -330 -33 -179 -50 -239 -87 -312
-26 -54 -44 -59 -113 -32 -44 18 -45 20 -28 94 9 40 18 55 41 66 20 11 26 19
18 27 -6 9 1 99 24 282 18 149 38 356 44 460 17 285 30 638 25 647 -15 23 -32
3 -42 -48 -11 -53 -16 -114 -42 -540 -6 -95 -15 -198 -20 -230 -5 -33 -17
-125 -25 -207 -18 -168 -43 -262 -80 -297 -35 -33 -32 -48 13 -52 36 -3 33 -5
-73 -56 -120 -58 -137 -70 -201 -153 -57 -74 -75 -78 -177 -37 -93 37 -148 75
-194 137 -41 52 -42 81 -6 175 21 57 27 88 27 159 0 86 1 88 17 65 10 -13 23
-43 30 -67 7 -25 28 -62 47 -83 19 -21 30 -38 24 -38 -19 0 -72 -58 -72 -79 0
-34 44 -71 82 -71 84 0 133 102 94 195 l-15 35 35 0 c27 0 41 7 62 31 24 29
111 79 139 79 6 0 9 -8 6 -19 -6 -23 10 -34 36 -26 23 7 33 39 21 71 -12 32
-55 32 -132 0 l-58 -24 0 27 c0 65 22 279 42 413 l21 147 -23 112 c-35 170
-33 179 67 321 62 89 106 179 101 208 -5 32 -21 27 -44 -13 l-20 -37 -22 44
c-25 50 -28 83 -8 130 16 38 66 98 108 127 29 21 30 21 69 4 39 -18 39 -18 20
-39 -55 -60 -70 -160 -71 -456 -1 -102 -5 -232 -11 -290 -5 -58 -14 -172 -20
-255 -5 -82 -12 -172 -15 -198 -7 -52 7 -80 27 -60 35 35 65 362 78 828 6 235
9 266 30 325 29 84 40 94 95 91 50 -2 100 19 116 48 5 11 10 36 10 55 l0 35
98 30 c127 38 276 81 330 94 23 6 42 14 42 18 0 21 -59 19 -163 -4 -61 -14
-143 -31 -182 -37 -38 -6 -80 -14 -93 -17 -85 -21 129 127 238 164 36 12 74
23 86 23 30 0 108 -54 200 -141 77 -73 127 -100 154 -84 18 11 11 22 -24 43
-19 12 -44 39 -55 61 -11 22 -48 63 -81 93 -33 29 -59 57 -57 63 2 6 51 10
124 10 117 0 122 1 189 35 161 82 315 300 349 495 7 40 15 77 18 82 4 6 0 18
-7 29 -12 15 -16 16 -30 5 -9 -7 -16 -26 -16 -40 0 -40 -53 -190 -96 -271 -40
-77 -97 -135 -188 -189 -79 -47 -172 -71 -301 -77 l-110 -6 50 30 c177 104
233 221 256 527 12 177 35 364 51 432 13 56 8 73 -17 53 -33 -27 -59 -168 -75
-400 -9 -137 -20 -194 -34 -172 -10 17 -36 15 -58 -5 -10 -9 -19 -14 -21 -12
-25 33 -89 155 -100 190 -48 145 -60 242 -39 314 6 22 37 85 67 140 31 55 58
110 61 123 5 18 13 22 48 22 47 0 136 47 194 103 32 31 34 31 44 12 23 -41 80
-85 125 -96 29 -8 48 -19 53 -33 5 -11 36 -55 70 -96 50 -62 65 -90 86 -159
25 -81 26 -91 19 -240 -3 -86 -13 -205 -21 -266 -7 -60 -14 -162 -14 -226 0
-109 2 -119 26 -155 l26 -38 -27 -51 -27 -50 20 -70 c28 -94 45 -243 39 -335
-3 -41 -17 -112 -31 -157 -22 -66 -34 -88 -64 -113 -82 -68 -253 -84 -376 -34
l-69 27 -46 -18 c-34 -13 -83 -19 -191 -23 l-145 -4 -17 36 c-14 27 -24 36
-43 36 -27 0 -32 -9 -14 -27 7 -7 15 -29 18 -50 4 -25 14 -41 29 -49 14 -7
139 -13 339 -17 492 -9 545 7 674 205 98 152 113 265 114 833 0 431 -9 618
-40 855 -9 69 -14 150 -11 180 5 56 14 68 88 122 l23 17 -44 40 c-39 37 -43
44 -37 73 3 18 20 47 37 64 27 28 31 40 39 125 11 108 11 522 1 559 -4 15 -22
33 -44 45 -69 37 -58 102 15 90 44 -8 48 2 17 44 -24 33 -18 73 14 96 27 19
26 19 54 -7z m-6262 -251 c-37 -32 -45 -45 -45 -73 0 -50 40 -89 83 -80 41 8
59 27 72 74 l11 37 54 -3 c30 -1 80 4 110 12 80 22 83 4 6 -34 -54 -26 -138
-106 -156 -149 -12 -31 -33 -40 -45 -21 -3 5 -36 28 -73 49 -90 54 -151 66
-245 51 -178 -30 -262 -117 -283 -292 -3 -32 -13 -63 -22 -70 -8 -7 -58 -35
-110 -63 -102 -53 -144 -94 -124 -118 7 -8 38 -22 69 -32 81 -25 142 -98 226
-276 76 -161 211 -386 301 -504 36 -48 66 -92 66 -99 0 -26 -42 -135 -58 -149
-42 -38 -373 -64 -471 -37 -56 15 -91 50 -91 90 0 40 -44 173 -76 227 -13 23
-24 46 -24 52 0 11 99 152 115 163 5 4 15 2 22 -4 18 -15 43 -2 43 21 0 30
-36 36 -77 11 -20 -12 -77 -65 -127 -118 -50 -52 -135 -138 -188 -190 -53 -52
-102 -107 -108 -122 -10 -24 -8 -45 15 -132 15 -57 36 -134 46 -173 10 -38 19
-88 19 -109 0 -22 7 -69 16 -105 l17 -65 -37 -29 c-20 -16 -36 -32 -36 -37 0
-4 31 -5 69 -2 53 3 83 0 132 -17 98 -33 105 -42 29 -39 -59 3 -65 1 -68 -18
-2 -13 21 -48 68 -102 l71 -82 -36 0 c-49 0 -66 11 -145 89 -38 36 -90 87
-118 112 -73 67 -104 143 -173 419 -48 193 -59 254 -59 320 0 45 5 91 11 103
13 24 138 157 269 285 84 82 267 213 345 247 22 10 71 20 109 24 65 6 69 7 53
23 -24 23 -121 34 -166 18 -20 -7 -87 -46 -150 -88 -95 -63 -145 -107 -300
-264 -102 -104 -191 -199 -198 -212 -7 -13 -17 -56 -24 -95 -10 -67 -9 -80 19
-189 17 -64 35 -164 42 -222 7 -64 25 -144 45 -205 18 -55 36 -116 40 -135 4
-19 27 -80 52 -135 35 -80 43 -107 38 -134 -8 -44 -62 -95 -132 -127 -118 -53
-171 -135 -160 -247 17 -181 86 -251 271 -277 98 -14 126 -31 126 -79 0 -59
-99 -209 -225 -341 -97 -101 -110 -131 -110 -255 1 -80 4 -97 32 -155 30 -63
88 -128 146 -164 33 -20 159 -46 224 -46 44 0 45 -1 38 -27 -3 -15 -11 -31
-17 -35 -16 -9 -72 1 -174 33 -97 31 -163 71 -190 116 -9 16 -25 39 -34 53 -9
14 -25 50 -36 80 -32 93 -24 229 26 455 20 93 27 170 21 232 -6 59 -5 62 16
68 36 9 91 -19 99 -50 11 -46 -4 -123 -40 -203 -19 -42 -33 -79 -30 -81 9 -10
64 54 94 111 23 43 34 79 37 122 5 56 3 65 -21 92 -16 20 -43 36 -72 44 -40
12 -55 11 -113 -4 -36 -10 -88 -18 -116 -19 -47 -2 -50 -1 -71 37 -26 46 -24
74 17 231 62 241 71 388 51 910 -18 456 -18 522 1 587 22 75 54 110 138 154
38 20 80 49 93 65 13 15 41 74 62 130 25 66 52 116 76 144 35 39 149 121 246
176 30 17 40 28 35 39 -3 8 -8 33 -11 56 -3 34 0 44 20 60 16 14 22 27 20 47
-6 54 56 111 170 156 71 29 84 44 91 108 12 102 103 239 177 265 28 9 30 14
30 56 0 62 -23 154 -54 222 -22 48 -24 55 -10 58 25 6 57 -15 84 -56 14 -20
38 -51 54 -69 27 -32 27 -34 12 -58 -20 -31 -21 -79 -1 -98 21 -22 70 -30 94
-17 12 6 28 22 37 36 16 24 16 28 -6 74 l-23 50 36 52 c20 29 48 66 63 81 l27
29 38 -93 39 -94 -45 -38z m2980 -32 c4 -22 18 -64 31 -93 21 -46 23 -62 18
-125 -7 -85 -28 -120 -108 -190 -30 -26 -57 -47 -60 -47 -3 0 -10 17 -17 39
-8 28 -8 51 0 90 18 85 14 126 -15 160 -23 28 -24 31 -7 31 11 0 32 -13 48
-30 16 -16 33 -30 37 -30 5 0 6 20 2 45 -6 43 -5 45 19 45 34 0 37 6 25 67
-11 55 -3 120 12 93 4 -8 11 -33 15 -55z m2033 -12 c22 -5 38 -16 40 -26 4
-22 -24 -22 -37 0 -8 14 -12 15 -25 4 -24 -20 -19 -49 12 -78 l27 -26 -45 5
c-30 3 -66 19 -108 46 -35 23 -79 46 -98 52 -19 6 -34 16 -34 21 0 15 84 10
106 -6 33 -25 71 -19 96 16 16 22 24 26 26 16 2 -9 20 -19 40 -24z m469 -126
c40 -21 81 -62 163 -160 36 -44 79 -95 95 -114 28 -33 30 -40 30 -121 0 -83 2
-90 37 -147 l37 -60 -6 -93 -6 -94 -36 7 c-108 20 -160 75 -186 197 -7 35 -26
96 -41 136 -25 69 -30 75 -80 103 -93 53 -139 102 -168 178 -15 37 -37 77 -49
88 -32 29 -105 55 -156 56 -38 0 -41 2 -20 9 96 36 328 45 386 15z m-3599 -12
c22 -8 71 -96 98 -179 23 -70 34 -88 80 -132 31 -29 54 -59 54 -71 0 -13 -21
-39 -55 -67 -46 -40 -58 -45 -74 -37 -11 6 -33 11 -49 11 -35 0 -59 25 -68 68
-4 18 -9 32 -13 32 -16 -1 -52 -124 -49 -168 3 -45 2 -47 -37 -69 -47 -27 -85
-29 -148 -7 -41 14 -45 18 -37 34 6 10 10 28 10 39 l0 21 20 -20 c26 -26 81
-26 111 1 l24 20 -37 -6 c-29 -4 -41 -2 -53 12 -8 10 -37 43 -63 74 -39 44
-51 67 -62 117 -9 43 -17 62 -28 62 -12 0 -14 -11 -9 -65 7 -70 22 -109 57
-140 20 -18 20 -20 3 -26 -18 -6 -106 31 -118 51 -3 6 6 40 21 77 l27 68 -17
70 c-9 38 -16 89 -16 113 0 37 4 45 33 62 67 42 206 69 322 62 33 -2 66 -5 73
-7z m-1910 -70 c32 -10 58 -25 67 -39 14 -21 14 -28 -4 -72 -14 -37 -24 -48
-38 -46 -57 11 -78 7 -81 -15 -2 -13 1 -23 7 -23 6 0 11 -7 11 -15 0 -8 9 -15
20 -15 18 0 20 -7 20 -54 0 -47 -4 -59 -36 -97 -19 -23 -42 -55 -49 -69 -37
-72 -132 -45 -176 49 -13 27 -30 50 -36 51 -18 0 -16 -12 10 -72 27 -59 81
-108 121 -108 19 0 26 -5 26 -19 0 -45 -108 -45 -196 0 -80 40 -97 58 -69 73
69 39 95 101 95 227 0 75 3 90 30 136 63 110 153 145 278 108z m4800 -150 c41
-21 76 -44 79 -51 4 -11 -73 -144 -84 -144 -3 0 -30 7 -61 16 -55 16 -185 16
-223 0 -12 -5 -28 9 -63 58 -63 88 -64 92 -24 112 74 39 141 54 223 51 70 -3
89 -8 153 -42z m-1932 -156 c13 -14 28 -19 53 -17 36 3 36 3 42 58 l6 55 1
-66 c2 -76 1 -79 -98 -130 -77 -41 -165 -123 -186 -176 -9 -21 -35 -58 -59
-83 -24 -25 -49 -58 -55 -74 -7 -19 -10 -117 -9 -275 2 -328 -17 -407 -126
-529 -88 -98 -180 -132 -245 -91 l-35 22 45 12 c112 29 196 104 253 226 56
119 60 150 67 559 6 347 8 380 28 441 12 36 32 75 45 87 13 13 68 47 123 77
l99 55 17 -66 c9 -36 24 -74 34 -85z m-2546 134 c-8 -3 -27 -17 -42 -31 -32
-30 -37 -71 -10 -94 57 -51 134 -20 86 34 -14 14 -14 20 -4 33 15 18 51 20 68
3 19 -19 14 -63 -8 -83 -16 -14 -20 -31 -20 -82 0 -79 23 -129 91 -194 l49
-47 0 -236 c0 -151 -4 -236 -10 -236 -20 0 -49 39 -56 75 -3 19 -5 98 -2 175
3 115 1 141 -11 145 -8 3 -21 -1 -30 -9 -12 -12 -12 -20 -3 -41 8 -16 12 -84
12 -183 0 -137 -3 -161 -19 -188 -16 -27 -20 -55 -23 -185 -3 -147 -2 -156 21
-192 12 -20 31 -42 42 -47 10 -6 19 -17 19 -24 0 -21 29 -28 58 -13 18 8 27
20 26 35 -1 30 30 25 34 -5 4 -29 -48 -67 -123 -88 -49 -15 -81 -16 -182 -11
l-123 7 0 -24 c0 -13 6 -72 14 -133 8 -60 17 -147 21 -194 3 -47 19 -224 35
-395 36 -387 48 -615 56 -1015 6 -355 3 -389 -53 -500 -30 -58 -51 -85 -98
-123 -84 -67 -152 -104 -208 -112 l-48 -7 3 33 c3 32 6 34 54 45 91 20 205
116 274 231 31 51 35 65 35 128 0 82 -17 121 -100 230 -61 79 -85 130 -85 177
0 43 7 53 71 97 74 51 101 99 96 174 -5 78 -26 104 -125 152 -104 51 -107 59
-67 173 l30 87 -1 340 c0 296 -3 359 -22 485 -28 183 -28 186 7 221 31 31 71
39 71 15 0 -8 10 -22 22 -30 30 -21 270 -23 287 -3 6 8 8 17 4 20 -3 4 -54 7
-112 7 -116 0 -181 8 -181 21 0 5 8 9 18 9 24 0 102 50 136 86 25 28 26 32 26
157 0 100 -4 135 -17 160 -21 41 -33 357 -14 357 18 0 9 41 -11 54 -27 17 -57
-17 -40 -44 19 -30 16 -273 -3 -310 -9 -17 -17 -30 -19 -30 -3 0 -12 -3 -21
-6 -15 -6 -16 14 -13 229 3 212 5 237 21 255 15 17 24 19 44 11 33 -12 133
-11 172 2 21 8 31 17 29 28 -3 13 -14 15 -62 13 -52 -3 -116 11 -116 26 0 2 9
19 20 38 24 37 39 134 22 134 -6 0 -13 -10 -15 -22 -3 -16 -5 -13 -6 10 -1 24
-10 43 -31 62 -42 39 -42 99 -1 141 17 16 40 29 53 28 15 0 18 -3 8 -6z m5243
-266 c14 -42 14 -43 -7 -43 -15 1 -24 -8 -32 -34 -16 -48 -94 -94 -94 -56 0 8
-12 29 -27 47 l-27 32 42 79 c23 43 42 86 42 96 1 28 86 -72 103 -121z m-3073
71 c0 -2 -6 -34 -13 -73 -9 -46 -11 -95 -6 -145 4 -41 3 -185 -2 -320 -8 -240
-19 -325 -55 -432 -17 -53 -92 -141 -145 -173 l-34 -19 19 29 c41 62 55 93 76
164 14 48 18 77 12 83 -17 17 -51 -28 -68 -92 -10 -32 -31 -76 -47 -96 -36
-43 -96 -73 -108 -53 -14 23 -21 128 -14 200 7 65 6 71 -11 67 -25 -4 -35 -48
-36 -153 -1 -107 15 -173 77 -328 103 -251 133 -408 170 -882 14 -181 34 -409
45 -505 21 -190 34 -636 22 -760 l-7 -75 -62 -3 c-54 -3 -65 -7 -83 -29 -15
-19 -19 -35 -15 -54 l6 -28 -48 6 c-43 5 -53 2 -80 -21 -18 -15 -38 -47 -47
-73 -9 -26 -30 -62 -48 -80 l-31 -32 -29 24 c-45 38 -75 37 -131 -7 -21 -17
-40 -28 -44 -25 -3 3 8 75 23 159 29 151 29 159 28 503 0 268 -4 380 -18 480
-18 139 -52 332 -64 366 -7 19 -9 19 -22 4 -11 -13 -10 -33 5 -123 59 -358 58
-983 -2 -1224 l-26 -107 -67 -46 c-58 -39 -71 -44 -93 -36 -35 14 -38 22 -22
67 25 73 55 476 55 738 0 219 -5 287 -45 668 -24 232 -46 448 -47 478 -2 42
-7 56 -20 58 -24 5 -34 -135 -19 -269 18 -159 41 -470 53 -716 10 -190 9 -260
-6 -480 -19 -285 -34 -434 -45 -446 -4 -4 -34 -1 -66 7 -31 9 -61 14 -64 12
-4 -3 -17 -24 -29 -49 -21 -41 -21 -48 -10 -126 16 -108 12 -114 -83 -123
-117 -11 -146 -25 -221 -100 l-67 -68 -108 0 c-118 0 -151 10 -119 35 10 8 42
22 70 31 86 28 146 66 189 120 23 28 72 85 110 126 64 72 67 78 67 125 0 54
-16 78 -44 67 -9 -3 -27 -3 -41 0 -30 8 -32 27 -10 138 30 157 35 310 24 723
-10 371 -10 403 6 445 48 124 155 454 190 585 36 130 43 148 65 157 58 22 78
72 44 110 -14 15 -15 24 -6 60 30 117 44 423 23 511 -9 37 -8 39 25 54 37 18
44 43 17 64 -28 23 -63 111 -63 158 0 39 5 49 41 82 39 36 41 41 36 81 -4 31
-14 51 -38 72 -28 25 -38 28 -81 24 -63 -7 -92 -33 -90 -83 1 -19 6 -44 12
-56 25 -46 -45 -170 -125 -219 -42 -26 -43 -40 -6 -82 38 -44 44 -67 36 -142
l-7 -64 -37 -6 c-80 -13 -107 -91 -60 -175 34 -60 23 -104 -41 -163 -27 -26
-50 -53 -50 -61 0 -7 12 -24 26 -38 21 -20 39 -24 112 -29 56 -4 81 -9 70 -14
-10 -5 -18 -13 -18 -18 0 -7 31 -8 90 -4 50 4 90 5 90 3 0 -3 -28 -14 -61 -26
-34 -11 -76 -31 -93 -44 -28 -22 -38 -24 -108 -19 -86 5 -81 1 -124 112 -21
55 -41 80 -65 80 -17 0 -17 2 -2 37 13 32 14 64 8 203 -6 137 -4 172 8 200 9
19 25 62 38 95 20 55 155 353 182 400 121 220 126 225 280 264 l117 30 38 -22
c53 -32 154 -29 245 7 37 14 85 30 107 35 35 8 40 7 40 -8 0 -23 -65 -88 -112
-112 -50 -25 -86 -24 -142 6 -54 29 -86 21 -86 -19 0 -20 9 -27 52 -41 113
-37 226 -12 316 69 46 42 66 84 60 126 l-5 30 27 -25 c23 -22 34 -25 104 -25
51 0 87 5 108 16 24 12 32 13 38 4 12 -19 -5 -66 -39 -107 -55 -67 -30 -88 32
-28 47 46 63 95 47 145 -17 50 -2 94 53 156 46 52 112 104 134 104 7 0 13 -1
13 -2z m2556 -60 c4 -13 7 -53 7 -89 -1 -74 -22 -132 -76 -211 -31 -47 -89
-89 -103 -75 -4 4 7 37 24 75 46 99 50 147 19 215 l-25 56 61 24 c78 32 84 32
93 5z m-5551 -78 c3 -5 52 -35 108 -66 123 -68 177 -78 252 -45 60 27 61 26
69 -5 21 -82 -152 -71 -333 21 -70 35 -148 105 -119 105 9 0 19 -4 23 -10z
m2459 -69 c17 -19 16 -19 -21 -14 -28 3 -69 -6 -157 -36 -133 -46 -188 -51
-245 -22 -53 28 -68 48 -49 67 13 13 21 12 70 -11 109 -50 189 -48 292 8 58
32 87 34 110 8z m1686 -112 c0 -14 -7 -32 -15 -39 -24 -20 -18 -38 25 -87 43
-49 49 -63 26 -63 -22 0 -56 -49 -56 -80 0 -33 34 -65 98 -94 48 -22 50 -26
22 -51 -11 -10 -20 -24 -20 -31 0 -25 20 -25 47 2 25 25 27 26 40 8 20 -27 16
-34 -18 -34 -53 0 -116 -83 -73 -97 6 -2 26 10 45 27 71 63 66 61 73 29 3 -15
22 -47 43 -69 30 -34 34 -43 22 -51 -8 -5 -18 -9 -23 -9 -22 0 -46 -35 -46
-66 0 -30 -3 -34 -35 -40 -26 -5 -47 0 -82 17 l-48 24 -5 65 c-5 63 -6 65 -34
68 -15 2 -42 -2 -58 -9 -35 -14 -48 -3 -48 42 0 32 -27 59 -35 37 -3 -9 -5
-44 -3 -79 3 -58 5 -64 26 -67 13 -2 41 3 62 12 l39 15 -6 -37 c-3 -20 -8 -49
-12 -64 l-6 -27 -90 35 c-114 44 -120 45 -120 14 0 -19 9 -29 36 -42 50 -23
112 -98 157 -188 35 -69 37 -80 37 -165 -1 -49 -7 -107 -14 -128 -12 -35 -14
-37 -26 -20 -7 10 -16 34 -20 53 -4 19 -37 98 -74 175 -81 168 -159 270 -191
250 -6 -4 3 -26 23 -53 83 -114 178 -314 200 -423 12 -58 12 -68 -6 -108 -18
-40 -18 -44 -2 -60 15 -15 19 -14 45 17 l28 34 88 -58 c111 -71 180 -104 221
-104 60 0 62 -5 24 -83 -29 -58 -36 -86 -39 -147 -3 -66 -1 -79 20 -110 13
-19 31 -36 40 -38 26 -5 77 46 84 84 9 47 24 43 24 -6 0 -30 -7 -47 -24 -65
-55 -55 -104 -40 -161 49 -55 87 -198 181 -393 261 -103 42 -137 73 -148 133
-9 52 -79 225 -119 297 -33 59 -90 123 -100 113 -3 -3 17 -56 45 -119 28 -62
65 -156 81 -209 50 -155 60 -179 86 -210 l24 -30 -48 -30 c-82 -53 -126 -53
-158 -3 -13 22 -27 32 -40 30 -31 -3 -30 -39 3 -74 48 -49 74 -63 120 -63 63
0 76 9 151 101 14 17 21 19 44 10 15 -6 27 -14 27 -19 0 -18 -81 -100 -128
-130 -99 -64 -193 -63 -250 3 -60 67 -66 162 -17 237 l26 38 -27 63 c-49 116
-56 155 -61 331 -8 274 5 302 199 394 143 68 181 110 122 132 -20 8 -24 15
-18 28 32 74 8 133 -72 181 -98 59 -115 116 -63 219 38 77 111 144 182 168 60
21 190 25 208 7 18 -18 -6 -42 -57 -54 -56 -14 -57 -29 -1 -29 56 0 101 29
128 82 20 39 22 41 35 23 8 -10 14 -31 14 -46z m-3894 -23 c94 -24 162 -17
190 19 9 12 18 10 56 -14 82 -52 92 -75 100 -241 4 -80 12 -179 17 -220 6 -41
14 -104 17 -139 7 -62 7 -63 -14 -52 -11 6 -35 28 -52 48 -34 41 -35 56 -9
174 10 48 9 71 -5 148 -17 96 -33 141 -49 141 -5 0 -7 -14 -3 -32 23 -117 16
-239 -19 -307 -12 -23 -15 -20 -105 99 -52 68 -108 140 -125 159 -49 55 -175
259 -175 284 0 2 26 -9 58 -24 31 -15 85 -35 118 -43z m92 -391 c77 -109 140
-183 251 -297 77 -81 90 -98 71 -98 -27 0 -145 111 -233 220 -58 72 -160 222
-206 305 l-23 40 42 -45 c22 -25 67 -81 98 -125z m1458 -156 l21 -35 -43 -37
c-46 -41 -90 -120 -100 -186 -6 -39 -5 -42 25 -52 62 -22 49 -88 -23 -119
l-43 -18 -6 -76 c-5 -56 -3 -86 7 -110 l14 -33 -52 -7 c-71 -8 -98 -7 -116 4
-12 8 -7 16 28 47 38 33 45 47 57 103 19 86 18 98 -4 105 -27 8 -44 55 -32 87
10 28 55 44 89 34 16 -6 20 3 30 71 17 109 15 128 -14 174 -14 23 -24 42 -22
43 67 49 82 66 116 134 l37 76 5 -84 c4 -61 11 -95 26 -121z m3 -306 c1 -117
-26 -276 -56 -337 l-15 -29 -20 24 c-30 38 -36 61 -31 113 5 42 10 50 44 72
68 43 90 124 46 168 -13 13 -28 25 -35 27 -16 6 2 68 31 105 l22 28 6 -29 c4
-17 7 -80 8 -142z m-1239 61 c0 -7 -13 -22 -29 -34 -17 -11 -38 -38 -47 -60
-14 -31 -21 -37 -31 -29 -18 16 -17 140 2 186 l16 37 44 -44 c25 -24 45 -50
45 -56z m3587 -9 c104 -89 130 -224 97 -517 l-6 -56 -54 34 c-29 19 -58 34
-64 34 -13 0 -13 23 1 37 20 20 39 119 39 203 0 77 -3 92 -34 155 -19 39 -46
88 -60 110 l-25 41 34 -4 c19 -2 50 -18 72 -37z m-4312 -38 c100 -50 292 -54
508 -11 26 6 28 4 25 -22 -5 -46 -42 -57 -203 -61 -162 -5 -185 -8 -185 -28 0
-26 37 -35 152 -35 148 -1 204 -19 235 -74 24 -43 93 -280 93 -319 0 -22 -5
-25 -67 -30 -125 -12 -154 -9 -238 28 -100 43 -145 44 -245 5 -99 -39 -122
-39 -142 3 -15 32 -44 52 -121 81 -34 14 -37 18 -31 43 12 49 70 155 124 227
79 106 80 108 36 156 -35 39 -37 47 -13 78 9 11 14 10 26 -6 9 -11 30 -27 46
-35z m6046 -102 c-57 -113 -106 -170 -219 -256 -65 -50 -68 -51 -124 -47 -32
2 -60 7 -64 11 -3 3 12 27 34 54 51 61 81 121 89 178 5 40 9 45 32 45 14 1 51
10 81 21 30 11 76 27 102 36 26 8 62 28 80 43 18 16 35 26 37 24 3 -3 -19 -51
-48 -109z m-746 -11 c26 -49 75 -85 125 -91 36 -5 40 -3 40 15 0 12 -11 28
-23 37 -13 8 -29 28 -36 43 l-13 27 34 -31 c45 -43 69 -54 117 -54 39 0 131
-36 131 -52 0 -4 -23 -21 -50 -36 -64 -37 -175 -50 -219 -28 -50 26 -113 112
-135 184 -11 35 7 26 29 -14z m-29 -102 l22 -37 -37 -35 c-20 -20 -42 -48 -50
-63 -13 -25 -13 -32 7 -73 19 -39 22 -61 22 -179 0 -81 -4 -136 -10 -140 -16
-10 -222 -13 -247 -4 -19 7 -25 3 -38 -21 -22 -42 -64 -79 -104 -90 -19 -5
-83 -7 -143 -3 l-109 6 7 31 c13 63 42 104 93 131 57 31 62 45 54 132 -6 64
-6 64 -64 108 -42 33 -62 57 -74 89 -25 65 -15 90 42 113 87 33 303 14 311
-29 5 -25 -100 -57 -191 -58 -44 0 -48 -2 -45 -22 3 -22 7 -23 73 -21 39 2 94
9 123 16 28 8 52 11 52 8 0 -15 -66 -84 -100 -106 -36 -23 -38 -26 -42 -89 -4
-73 -27 -107 -85 -132 -39 -17 -42 -30 -9 -45 29 -13 81 10 91 41 4 11 11 18
16 15 16 -10 10 -22 -28 -59 -20 -19 -34 -39 -30 -42 21 -22 152 20 164 52 3
8 -1 24 -9 37 -29 44 1 64 34 22 17 -22 27 -25 79 -25 61 0 102 17 113 47 4 9
1 42 -5 73 -8 39 -8 72 -1 103 8 38 6 53 -10 89 -14 32 -17 48 -9 65 10 21
101 131 111 132 3 1 15 -16 26 -37z m84 -104 c22 -16 50 -23 102 -27 l72 -6
-50 -43 c-27 -24 -53 -50 -57 -58 -5 -8 -1 -40 8 -73 l17 -58 -31 -90 c-20
-58 -31 -110 -31 -145 0 -100 -30 -111 -147 -53 -73 36 -96 43 -128 39 -27 -4
-47 -1 -60 10 -19 14 -19 16 -2 33 13 14 21 15 35 7 10 -7 51 -9 105 -6 110 6
114 11 97 124 -7 44 -10 106 -6 140 4 45 2 69 -10 94 -9 19 -14 44 -10 56 5
21 50 78 62 78 3 0 18 -10 34 -22z m-5100 -269 c25 -12 62 -25 83 -30 110 -26
124 -27 195 -17 77 11 98 5 86 -25 -14 -37 -325 -196 -399 -205 -58 -6 -145
35 -245 115 -65 53 -161 153 -146 153 3 0 28 -9 56 -20 48 -19 55 -19 113 -6
34 8 82 24 107 35 58 25 95 25 150 0z m-227 -271 c44 -32 90 -61 103 -64 48
-12 130 3 213 39 51 22 89 33 94 28 17 -17 139 -366 148 -425 6 -33 26 -107
44 -166 19 -59 35 -123 35 -142 0 -19 -16 -71 -35 -116 -24 -55 -38 -104 -41
-149 -4 -38 -26 -180 -51 -318 -43 -240 -44 -256 -40 -400 6 -161 16 -247 35
-281 15 -28 124 -127 180 -164 24 -16 78 -43 120 -60 42 -17 88 -36 102 -42
l25 -11 -31 -7 c-18 -4 -92 1 -165 11 -181 24 -227 24 -315 -6 -93 -31 -109
-31 -139 0 -29 28 -31 60 -10 155 37 164 28 417 -20 570 -66 211 -55 346 51
610 12 32 18 73 18 140 1 127 -17 162 -154 305 -164 170 -229 268 -230 343 0
44 -16 72 -40 72 -21 0 -27 -24 -10 -35 6 -3 10 -27 10 -53 0 -84 52 -172 206
-348 41 -47 82 -102 90 -122 29 -67 20 -136 -31 -257 -115 -269 -192 -503
-215 -650 -29 -188 -49 -367 -43 -383 4 -9 44 -58 91 -109 79 -86 87 -92 148
-109 55 -14 64 -20 64 -40 0 -17 -7 -24 -30 -29 -35 -8 -67 -2 -175 32 -52 16
-119 27 -189 32 -91 6 -111 10 -123 27 -15 20 -15 21 15 104 32 87 63 255 69
375 4 86 0 135 -16 224 -36 196 -30 228 83 442 77 146 86 187 63 286 -19 80
-40 230 -62 433 -8 80 -20 177 -26 217 -7 39 -9 79 -6 87 6 14 80 27 102 17 6
-3 45 -31 88 -63z m4239 -5 c42 -23 48 -30 48 -58 0 -55 -28 -197 -56 -280
-29 -90 -110 -271 -132 -297 -18 -22 -9 -48 18 -48 24 0 51 41 136 203 59 114
61 117 68 87 19 -98 -3 -275 -56 -442 -30 -93 -32 -134 -5 -126 17 5 90 157
118 246 13 39 28 72 33 72 5 0 23 -9 40 -19 17 -11 67 -29 110 -41 131 -35
136 -41 136 -158 0 -72 -7 -102 -70 -295 -38 -118 -70 -226 -70 -240 0 -33
-12 -40 -36 -22 -44 33 -89 7 -66 -38 41 -79 33 -205 -17 -305 -18 -36 -31
-77 -31 -98 0 -31 -7 -43 -40 -72 -22 -18 -47 -47 -55 -63 -22 -41 -48 -53
-90 -39 -51 17 -61 34 -37 67 34 48 84 155 114 243 48 143 68 286 67 493 0
100 -4 191 -8 201 -17 43 -25 -14 -32 -209 -9 -272 -44 -435 -132 -610 -48
-97 -78 -126 -201 -195 l-55 -32 -53 16 c-47 14 -59 23 -104 83 -45 60 -85
142 -109 223 -21 71 -87 180 -131 218 -47 40 -48 41 -22 47 57 14 135 -26 244
-126 52 -47 90 -67 145 -75 24 -4 56 -13 71 -20 38 -20 48 -17 48 9 0 26 -14
35 -105 68 -44 16 -77 38 -125 85 -36 34 -62 65 -59 69 4 3 27 1 51 -5 62 -16
113 -2 113 31 0 23 -2 24 -56 21 -59 -4 -71 3 -84 48 -4 14 -23 51 -43 83
l-35 57 9 88 c13 129 10 231 -9 275 -9 20 -40 70 -70 110 -94 127 -109 237
-51 377 46 110 54 195 26 265 -10 28 -22 68 -25 90 l-7 40 19 -40 c40 -87 104
-127 206 -129 97 -1 179 39 283 138 85 82 78 81 174 29z m2746 -840 l2 -283
-705 0 -706 0 7 273 c3 149 7 278 10 285 3 10 147 12 696 10 l693 -3 3 -282z
m88 -359 c13 -19 15 -32 8 -52 l-9 -27 -805 0 -805 0 -3 33 c-2 22 3 41 14 53
17 18 43 19 800 19 l784 0 16 -26z m-106 -377 l0 -204 -92 -146 c-51 -80 -107
-163 -124 -184 l-31 -38 -597 -3 -596 -4 0 391 0 391 720 0 720 0 0 -203z
m-3579 22 c61 -12 77 -23 135 -94 49 -60 64 -88 93 -178 13 -37 42 -93 65
-125 l43 -58 -86 14 c-149 23 -355 -1 -512 -59 -100 -36 -142 -37 -174 -4 -14
13 -25 30 -25 37 0 16 20 47 20 32 0 -7 13 -26 29 -43 35 -38 80 -42 112 -10
19 19 21 30 17 104 -5 88 -5 88 -101 260 l-56 100 137 7 c75 4 155 12 177 17
56 12 65 12 126 0z m-3287 -110 c16 -5 53 -9 82 -9 l54 0 0 -40 c0 -47 8 -45
-140 -25 -58 8 -111 15 -117 15 -8 0 -13 15 -13 39 l0 38 53 -4 c28 -3 65 -9
81 -14z m2734 -45 c21 -8 57 -14 81 -12 l44 3 28 -76 c33 -90 28 -106 -25 -84
-42 18 -87 13 -108 -12 -7 -9 -47 -42 -89 -74 -42 -32 -105 -87 -140 -122 -56
-57 -70 -66 -119 -75 -98 -19 -140 -18 -140 3 0 10 10 15 30 15 21 0 41 12 72
43 24 23 57 49 75 58 20 11 44 40 69 85 20 38 52 87 69 109 18 22 38 58 45 80
26 82 38 89 108 59z m2622 -399 l50 -105 585 0 c351 0 585 -4 585 -9 0 -5 -12
-23 -26 -40 l-26 -31 -563 0 -563 0 -59 123 c-50 101 -58 126 -50 145 6 12 12
22 14 22 2 0 26 -47 53 -105z m-3540 -1020 l0 -605 -107 39 c-629 225 -1171
578 -1657 1079 l-90 92 927 0 927 0 0 -605z m2480 85 l0 -520 -1140 0 -1140 0
0 520 0 520 1140 0 1140 0 0 -520z m2015 478 c-77 -84 -252 -252 -359 -344
-396 -342 -863 -614 -1365 -793 l-81 -29 0 604 0 604 922 0 922 0 -39 -42z
m-4005 -1135 l32 -36 32 37 c29 35 34 37 83 34 l52 -3 -55 -67 -54 -67 101
-126 c56 -70 104 -123 108 -119 6 7 148 186 182 230 6 7 -11 36 -47 80 l-57
69 54 3 c42 3 56 -1 67 -15 7 -10 20 -27 28 -38 15 -19 16 -19 47 18 29 33 37
37 80 37 26 0 47 -2 47 -5 0 -3 -23 -34 -51 -70 l-50 -64 98 -125 c54 -69 100
-125 103 -125 8 0 185 228 188 243 2 7 -20 40 -48 74 -27 33 -50 63 -50 66 0
3 24 6 54 6 50 0 56 -3 84 -37 l31 -38 31 38 c28 32 37 37 76 37 24 0 44 -3
44 -6 0 -3 -23 -33 -50 -67 -28 -34 -49 -65 -48 -68 5 -13 193 -249 198 -248
13 1 191 241 187 252 -2 7 -28 40 -57 75 l-52 62 55 0 c51 0 57 -3 81 -35 15
-19 30 -35 34 -35 4 0 18 16 32 35 23 32 29 34 78 35 l54 0 -51 -64 c-28 -35
-51 -69 -51 -75 0 -6 43 -66 96 -132 l97 -121 23 28 23 29 0 -125 0 -125 -30
34 c-17 18 -34 29 -39 25 -5 -5 -47 -58 -94 -118 l-85 -110 50 -60 c27 -34 61
-76 75 -94 l27 -32 -28 -42 -28 -42 -19 25 c-11 13 -47 57 -79 97 l-60 73 -95
-118 c-51 -65 -94 -123 -94 -130 0 -6 34 -52 75 -101 41 -49 75 -94 75 -99 0
-5 -13 -22 -29 -37 l-29 -28 -78 97 c-62 78 -79 94 -89 83 -7 -7 -52 -62 -100
-121 l-87 -109 49 -56 c81 -96 78 -87 40 -111 -19 -12 -39 -21 -45 -21 -6 0
-29 24 -52 52 -23 29 -45 53 -50 53 -8 0 -176 -209 -182 -227 -3 -8 -19 -7
-56 2 -50 11 -57 18 -135 113 -45 56 -89 110 -98 121 -15 18 -17 18 -50 -26
l-35 -45 -28 22 -29 23 36 47 36 47 -96 119 c-54 65 -101 119 -105 119 -4 0
-29 -27 -55 -60 l-46 -60 -24 22 c-13 12 -23 27 -23 33 0 7 22 41 50 75 58 72
66 45 -65 209 -44 55 -82 100 -85 100 -3 0 -25 -27 -49 -59 -25 -33 -48 -57
-52 -53 -5 5 -15 24 -23 44 l-15 37 44 57 c25 32 45 59 45 61 0 2 -36 48 -81
103 -76 93 -80 102 -77 142 l3 42 90 -116 c50 -64 95 -116 100 -116 12 -1 190
224 190 239 0 11 -186 249 -195 249 -3 0 -45 -51 -94 -114 -49 -63 -91 -115
-92 -115 -2 0 -4 27 -4 60 0 55 3 63 43 112 23 29 55 69 70 89 l28 37 -47 58
c-26 33 -52 65 -57 72 -7 9 2 12 41 12 45 0 53 -4 82 -37z"/>
<path d="M5950 9385 c0 -115 4 -205 8 -199 5 5 30 44 56 87 l46 78 -50 117
c-28 64 -53 119 -56 121 -2 2 -4 -90 -4 -204z"/>
<path d="M5568 9330 c17 -25 56 -76 84 -114 l53 -69 100 2 c55 1 101 4 103 5
1 2 -71 45 -160 96 -90 51 -174 100 -188 109 -23 15 -22 13 8 -29z"/>
<path d="M6162 9266 c-101 -57 -186 -107 -189 -110 -4 -3 44 -6 104 -6 l111 0
81 110 c45 61 80 110 78 110 -1 0 -84 -47 -185 -104z"/>
<path d="M5947 8917 c3 -122 7 -223 8 -224 1 -2 23 48 50 110 26 61 52 116 56
121 5 6 58 5 134 -3 70 -7 128 -11 130 -9 2 2 -84 54 -190 115 l-195 112 7
-222z"/>
<path d="M5722 9011 c-153 -91 -177 -109 -145 -105 21 3 84 11 141 17 l103 12
50 93 c28 50 47 92 42 92 -4 0 -91 -49 -191 -109z"/>
<path d="M7680 3975 c0 -9 7 -29 15 -45 l16 -30 -44 0 c-125 0 -172 -166 -56
-195 37 -9 83 17 100 57 16 41 22 45 87 59 71 14 58 24 -30 21 -84 -3 -108
-14 -108 -47 0 -15 -6 -25 -14 -25 -19 0 -25 20 -15 47 8 21 29 29 104 35 29
3 30 4 28 51 -1 30 -8 56 -19 68 -21 23 -64 26 -64 4z"/>
<path d="M5194 8044 c3 -22 9 -79 12 -129 7 -100 16 -115 69 -115 28 0 34 -6
55 -50 32 -69 53 -86 85 -72 14 6 25 15 25 19 0 5 -20 32 -44 62 -33 39 -52
77 -70 137 -15 46 -30 86 -35 89 -18 11 -20 -12 -4 -73 17 -66 13 -83 -15 -66
-11 7 -19 30 -23 65 -7 63 -36 156 -51 165 -7 5 -8 -6 -4 -32z"/>
<path d="M5440 6018 c0 -7 9 -51 19 -98 53 -232 66 -465 55 -945 -14 -595 -12
-627 46 -718 31 -49 57 -60 80 -32 11 13 9 20 -13 43 -42 44 -47 111 -51 722
-3 435 -8 596 -20 700 -24 196 -66 340 -101 340 -8 0 -15 -5 -15 -12z"/>
<path d="M6799 7253 c-1 -5 -2 -31 -3 -59 -1 -46 -6 -56 -44 -98 -48 -52 -48
-63 -5 -149 13 -27 21 -56 18 -66 -15 -47 27 -68 61 -30 26 29 23 96 -6 158
l-22 49 22 30 c36 48 28 172 -11 172 -5 0 -10 -3 -10 -7z"/>
<path d="M3010 2994 c313 -319 769 -634 1200 -829 129 -59 344 -145 360 -145
6 0 10 198 10 525 l0 525 -822 0 -822 0 74 -76z m1505 7 c27 -6 30 -10 28 -44
-7 -109 -132 -249 -278 -309 l-40 -16 30 -11 c131 -49 218 -156 250 -308 8
-38 15 -90 15 -117 l0 -48 -57 7 c-220 27 -403 195 -437 401 l-7 40 -54 -27
c-72 -36 -134 -44 -220 -26 -83 18 -166 54 -255 112 -147 95 -332 285 -299
305 62 39 311 52 447 24 146 -30 297 -120 353 -211 l22 -36 22 50 c42 93 131
171 234 204 57 18 186 23 246 10z"/>
<path d="M4282 2931 c-53 -18 -74 -33 -124 -86 -35 -38 -78 -121 -78 -152 0
-22 3 -23 38 -17 97 17 185 59 255 123 42 38 97 116 97 138 0 20 -124 16 -188
-6z"/>
<path d="M3338 2933 c-16 -2 -28 -9 -28 -15 0 -15 126 -133 195 -182 190 -136
364 -169 457 -88 16 13 15 17 -11 56 -76 110 -209 193 -355 221 -72 14 -194
18 -258 8z"/>
<path d="M4094 2554 c14 -74 57 -152 112 -204 54 -51 150 -104 212 -116 30 -6
32 -5 32 23 0 47 -30 134 -61 180 -49 70 -154 130 -258 148 l-44 7 7 -38z"/>
<path d="M5231 2985 c-6 -22 -11 -47 -11 -55 0 -37 -33 -138 -56 -172 -22 -35
-23 -42 -14 -85 6 -26 19 -66 30 -89 l18 -42 -41 -4 c-23 -3 -43 -4 -44 -3 -2
1 2 17 8 36 5 19 7 59 3 91 -5 50 -9 58 -34 68 -16 7 -59 43 -96 81 -38 37
-70 66 -73 64 -2 -3 14 -44 37 -93 49 -102 72 -197 72 -299 0 -66 9 -89 24
-64 11 17 101 32 196 32 87 0 126 -7 190 -35 13 -5 15 8 17 80 3 106 23 184
74 293 21 46 39 86 39 89 0 2 -35 -29 -79 -71 -43 -41 -88 -78 -99 -81 -30
-10 -44 -113 -22 -171 9 -23 8 -26 -6 -21 -8 3 -32 6 -51 6 -35 0 -35 1 -19
19 18 20 46 110 46 149 0 13 -8 36 -19 50 -22 33 -47 110 -56 176 -4 27 -10
58 -15 70 -7 18 -9 16 -19 -19z"/>
<path d="M5980 2948 c-15 -94 -36 -160 -62 -193 -19 -24 -19 -31 -8 -88 6 -34
20 -76 30 -94 l18 -31 -42 -4 -43 -3 5 67 c6 92 0 110 -52 143 -25 16 -66 52
-91 82 -25 29 -50 53 -55 53 -5 0 9 -37 30 -83 51 -108 70 -180 77 -293 l6
-92 46 21 c38 17 67 20 161 20 94 0 123 -3 161 -20 l46 -21 6 92 c7 113 26
185 77 293 21 46 35 83 30 83 -5 0 -28 -23 -51 -50 -23 -28 -67 -67 -97 -86
l-54 -37 4 -86 4 -86 -41 3 -42 4 19 36 c10 21 23 63 29 94 11 52 10 59 -9 83
-26 33 -47 99 -62 193 -7 39 -15 72 -20 72 -5 0 -13 -33 -20 -72z"/>
<path d="M6740 2948 c-15 -94 -36 -160 -62 -193 -19 -24 -20 -31 -9 -83 6 -31
19 -73 29 -94 l19 -36 -42 -4 -41 -3 4 87 4 87 -48 30 c-27 16 -71 55 -97 85
-27 31 -52 56 -58 56 -5 0 4 -27 21 -60 51 -101 80 -206 87 -312 l6 -97 28 15
c72 37 285 38 355 1 l31 -16 6 92 c7 114 26 186 77 294 21 46 35 83 30 83 -5
0 -30 -25 -57 -56 -26 -31 -67 -67 -91 -81 -49 -29 -56 -49 -50 -141 l5 -67
-43 3 -42 4 18 31 c10 18 24 60 31 93 12 58 11 63 -9 88 -26 34 -47 99 -62
194 -7 39 -15 72 -20 72 -5 0 -13 -33 -20 -72z"/>
<path d="M5152 2410 c-70 -11 -110 -28 -117 -51 -8 -25 -1 -36 38 -56 48 -25
236 -30 310 -9 93 27 98 78 9 104 -53 15 -178 22 -240 12z"/>
<path d="M5898 2410 c-72 -13 -103 -31 -103 -60 0 -19 9 -30 40 -45 57 -28
239 -33 309 -8 84 30 88 73 11 100 -50 17 -195 25 -257 13z"/>
<path d="M6658 2410 c-72 -13 -103 -31 -103 -60 0 -19 9 -30 40 -45 57 -28
239 -33 309 -8 84 30 88 73 11 100 -50 17 -195 25 -257 13z"/>
<path d="M7420 2545 c0 -394 3 -525 12 -525 20 0 289 111 423 174 406 194 833
494 1130 795 l80 81 -823 0 -822 0 0 -525z m352 432 c77 -34 152 -106 186
-179 l29 -58 32 45 c67 93 202 170 350 200 63 13 115 16 215 12 127 -4 236
-26 236 -47 0 -20 -116 -143 -196 -210 -166 -137 -309 -202 -445 -204 -67 -1
-84 3 -137 30 l-60 32 -7 -47 c-9 -62 -53 -155 -102 -217 -73 -91 -208 -163
-336 -179 l-57 -7 0 38 c0 189 93 357 232 419 l61 27 -69 33 c-126 58 -241
194 -247 291 -2 35 1 39 28 46 17 4 75 5 130 4 82 -3 110 -8 157 -29z"/>
<path d="M7530 2937 c0 -24 56 -102 105 -145 27 -23 76 -56 109 -71 58 -28
173 -58 182 -48 9 9 -34 106 -64 148 -39 53 -101 98 -159 115 -61 18 -173 19
-173 1z"/>
<path d="M8395 2924 c-100 -21 -206 -74 -270 -135 -63 -59 -99 -113 -91 -134
11 -29 69 -49 141 -49 130 1 296 89 451 240 l79 77 -40 8 c-62 12 -193 9 -270
-7z"/>
<path d="M7840 2579 c-100 -27 -182 -79 -229 -144 -30 -42 -61 -135 -61 -183
0 -22 3 -24 33 -18 94 19 221 106 273 187 21 34 54 128 54 156 0 15 -20 15
-70 2z"/>
<path d="M5603 1670 c-48 -62 -91 -118 -95 -125 -8 -14 -5 -19 110 -162 40
-51 77 -93 81 -93 8 0 180 215 187 234 3 9 -145 207 -191 254 -2 2 -43 -47
-92 -108z"/>
<path d="M6097 1658 c-93 -119 -95 -123 -79 -144 133 -172 176 -224 183 -224
5 0 51 54 104 120 l96 120 -101 125 c-56 69 -103 125 -104 125 -2 0 -46 -55
-99 -122z"/>
<path d="M6607 1661 c-48 -60 -87 -114 -87 -120 0 -7 43 -64 96 -127 78 -94
99 -113 109 -102 6 7 45 56 85 108 40 52 77 100 82 107 6 7 -23 50 -88 127
-53 64 -100 116 -104 116 -3 0 -46 -49 -93 -109z"/>
<path d="M6357 1350 c-48 -61 -90 -117 -93 -124 -5 -14 171 -240 190 -243 11
-2 178 210 184 234 3 12 -175 243 -187 243 -3 0 -46 -50 -94 -110z"/>
<path d="M5345 1340 l-87 -111 97 -119 c53 -66 100 -120 104 -120 10 0 171
208 171 221 0 10 -177 232 -190 237 -4 1 -47 -47 -95 -108z"/>
<path d="M5841 1334 l-92 -115 97 -120 c53 -66 100 -122 104 -124 7 -4 176
203 186 228 5 13 -180 247 -195 247 -4 0 -49 -52 -100 -116z"/>
<path d="M5634 1072 c-29 -37 -70 -90 -93 -118 l-41 -52 100 -126 100 -126 28
32 c15 18 45 56 67 83 21 28 54 68 72 91 l33 41 -96 119 c-53 65 -101 120
-107 121 -7 2 -35 -28 -63 -65z"/>
<path d="M6153 1093 c-22 -27 -65 -80 -96 -119 l-56 -72 96 -113 c52 -63 101
-115 107 -117 12 -3 181 211 181 229 0 11 -177 238 -187 239 -3 0 -24 -21 -45
-47z"/>
<path d="M5847 710 c-48 -60 -87 -114 -87 -118 0 -16 180 -254 189 -250 5 2
50 56 101 122 l91 118 -32 42 c-71 90 -162 196 -169 196 -4 0 -46 -49 -93
-110z"/>
<path d="M2920 10485 c-43 -33 -48 -35 -136 -35 l-91 0 -43 -141 -43 -141 101
-101 101 -100 85 33 c85 32 86 33 86 67 0 46 16 73 44 73 20 0 38 -17 98 -97
6 -8 -23 -22 -99 -47 -59 -20 -113 -40 -119 -44 -6 -4 -18 -43 -26 -87 -16
-78 -16 -80 4 -97 27 -24 36 -23 40 4 4 31 47 53 158 81 108 28 126 43 160
134 41 109 42 107 -49 221 -61 76 -87 102 -104 102 -51 0 -143 -22 -154 -38
-18 -22 -17 -12 13 122 14 65 24 119 22 121 -2 2 -23 -12 -48 -30z m-42 -211
c12 -19 27 -32 32 -29 6 4 10 -11 10 -34 0 -30 -5 -43 -19 -51 -36 -19 -56
-10 -115 49 -52 52 -57 61 -47 80 10 17 21 21 64 21 48 0 54 -3 75 -36z"/>
<path d="M8948 10426 c-31 -6 -59 -14 -63 -18 -8 -8 15 -157 25 -163 8 -5 160
21 167 29 4 4 -5 61 -23 144 -5 25 -17 26 -106 8z"/>
<path d="M9205 10073 c-44 -49 -86 -95 -93 -105 -11 -13 -7 -28 25 -92 l37
-76 53 0 c52 0 53 -1 53 -29 0 -22 -10 -38 -41 -65 -23 -19 -45 -33 -49 -31
-4 3 -27 49 -50 103 l-42 98 -86 11 c-78 9 -89 8 -106 -8 -23 -21 -15 -49 14
-49 16 0 30 -20 65 -97 70 -154 59 -142 165 -175 52 -16 103 -27 114 -26 10 2
58 37 106 78 98 83 99 85 75 185 -8 33 -15 63 -15 66 0 3 37 0 83 -7 45 -7 97
-15 115 -18 41 -6 40 5 -3 53 -33 37 -36 45 -42 123 l-6 84 -136 29 c-75 15
-141 30 -146 32 -6 2 -47 -36 -90 -84z m219 -45 c3 -7 7 -32 10 -55 6 -39 4
-43 -24 -60 -16 -9 -30 -23 -30 -30 0 -7 -4 -13 -9 -13 -5 0 -16 -3 -24 -6
-17 -6 -57 29 -57 50 0 20 98 126 116 126 8 0 16 -6 18 -12z"/>
<path d="M8685 10078 c-33 -5 -61 -11 -62 -12 -2 -1 4 -37 12 -80 8 -43 15
-80 15 -82 0 -7 64 -2 120 9 62 13 61 12 39 125 -12 59 -10 58 -124 40z"/>
<path d="M2300 9990 l0 -90 44 0 c42 0 47 -4 165 -120 116 -114 151 -163 151
-210 0 -25 -2 -25 82 1 79 23 83 28 94 138 l7 71 -48 -17 -48 -16 -133 139
c-104 108 -133 145 -134 167 l0 27 -90 0 -90 0 0 -90z"/>
<path d="M2065 10047 c-52 -29 -64 -65 -64 -188 l-1 -96 203 -176 c358 -310
402 -347 409 -347 5 0 8 40 8 90 l0 90 -265 232 -265 233 60 3 60 3 0 89 0 90
-52 0 c-36 0 -66 -8 -93 -23z"/>
<path d="M9811 9713 l-74 -4 7 -46 c3 -25 6 -66 6 -90 l0 -45 78 7 c108 10
110 12 101 82 -4 32 -8 68 -8 81 -1 15 -7 21 -18 20 -10 -1 -51 -4 -92 -5z"/>
<path d="M1860 9561 c-99 -53 -125 -71 -123 -86 1 -11 5 -39 8 -61 l7 -42 -69
-22 c-37 -13 -70 -24 -71 -26 -5 -4 49 -187 58 -197 4 -5 20 -1 35 9 25 16 28
16 63 0 54 -26 181 -113 224 -153 23 -23 39 -49 43 -72 4 -20 9 -39 11 -43 7
-11 164 70 164 85 0 6 -7 45 -17 85 l-17 73 -42 -7 c-41 -6 -47 -3 -178 86
-134 91 -136 92 -136 129 0 35 5 41 54 74 l55 36 18 -36 c14 -28 41 -50 120
-97 126 -75 143 -92 150 -145 3 -22 6 -41 7 -41 0 0 43 20 94 45 l93 45 -6 48
c-15 114 -14 112 -69 86 l-34 -17 -83 51 c-137 83 -203 141 -213 187 -17 80
-9 80 -146 6z"/>
<path d="M9437 9403 c-20 -5 -20 -9 -1 -136 l6 -37 81 6 c45 4 83 8 85 9 2 2
0 40 -4 84 l-7 81 -71 -1 c-39 -1 -79 -3 -89 -6z"/>
<path d="M10068 9384 c-5 -4 -8 -22 -8 -40 0 -29 -10 -40 -92 -107 -200 -160
-212 -167 -285 -167 -76 0 -75 13 -4 -146 l49 -109 57 -6 c63 -7 75 -17 75
-69 0 -19 3 -51 6 -71 6 -36 8 -37 68 -48 33 -7 74 -14 90 -17 27 -6 29 -5 23
22 -3 16 -8 36 -12 44 -4 11 23 39 92 95 146 119 225 177 253 185 23 6 26 14
36 86 6 43 11 80 9 81 -4 6 -110 23 -140 23 -34 0 -45 -13 -45 -55 0 -15 -16
-36 -47 -62 -71 -59 -224 -174 -238 -180 -7 -2 -27 3 -44 11 -22 12 -32 26
-37 53 -4 20 -3 42 2 49 18 26 308 244 324 244 18 0 40 74 40 135 0 29 -4 33
-32 39 -76 13 -133 17 -140 10z"/>
<path d="M1386 9042 c-18 -21 -18 -23 13 -123 17 -56 31 -119 31 -139 l0 -36
160 -78 c165 -81 175 -88 182 -121 2 -11 15 -24 30 -29 29 -10 38 -4 175 126
l62 58 -26 63 c-14 34 -29 73 -35 86 -9 24 -11 22 -82 -54 l-72 -79 -32 13
-32 13 0 125 c0 177 15 166 -275 189 -72 6 -82 4 -99 -14z m192 -144 l112 -21
0 -49 c0 -26 -2 -48 -4 -48 -2 0 -52 23 -112 51 -101 47 -123 62 -124 82 0 10
2 10 128 -15z"/>
<path d="M10423 8822 c-4 -47 -17 -58 -199 -161 -121 -68 -150 -81 -189 -81
-43 0 -45 -1 -45 -27 1 -16 6 -57 13 -92 l12 -65 55 -12 c96 -23 107 -20 113
27 3 22 7 42 9 44 1 1 64 39 139 83 l136 81 52 -17 52 -16 -6 -41 c-11 -67
-15 -75 -41 -75 -13 0 -86 -36 -162 -81 -128 -75 -140 -80 -180 -75 l-43 6 5
-92 c4 -50 7 -92 9 -94 13 -11 150 -74 162 -74 12 0 15 13 15 63 0 71 -12 59
142 143 69 38 110 54 136 54 77 0 77 0 111 136 17 68 31 132 31 142 0 16 -17
24 -87 44 l-88 25 0 34 c0 19 4 59 8 90 8 66 5 69 -98 69 l-60 0 -2 -38z"/>
<path d="M1250 8627 c-41 -17 -77 -32 -79 -33 -2 -2 11 -40 29 -84 26 -65 36
-80 49 -74 65 27 63 27 161 -16 148 -65 216 -106 240 -145 12 -19 24 -35 27
-35 15 0 123 94 123 107 0 14 -25 121 -35 151 -4 10 -14 6 -38 -12 -19 -14
-38 -26 -44 -26 -15 0 -249 106 -299 135 -24 14 -44 32 -44 40 0 24 -13 23
-90 -8z"/>
<path d="M1105 8315 c-49 -24 -93 -45 -97 -47 -4 -2 1 -32 12 -68 11 -36 20
-68 20 -71 0 -3 -25 -23 -55 -44 -33 -22 -55 -45 -55 -56 0 -19 44 -146 54
-156 3 -4 31 1 60 10 l55 18 141 -57 c78 -31 146 -62 151 -68 5 -6 17 -22 28
-35 l18 -25 67 48 67 47 -38 70 c-20 38 -41 69 -46 69 -5 0 -22 -8 -38 -17
-27 -16 -32 -16 -86 1 -78 25 -215 89 -231 108 -7 9 -15 31 -18 50 -6 31 -3
34 42 56 42 21 49 22 59 9 6 -9 67 -38 136 -65 118 -47 170 -79 181 -112 3
-11 22 -1 72 40 46 38 65 59 60 69 -3 9 -15 41 -26 71 -11 30 -23 58 -27 62
-4 4 -24 -6 -45 -24 -36 -29 -41 -31 -70 -19 -17 7 -67 26 -111 43 -90 33
-109 47 -136 101 -12 22 -26 37 -37 36 -9 0 -57 -20 -107 -44z"/>
<path d="M10749 8252 c-5 -15 -13 -33 -17 -41 -14 -24 -340 -161 -383 -161
-66 0 -69 -4 -69 -86 l0 -75 76 -34 c42 -19 80 -35 85 -35 5 0 9 19 9 43 l0
42 181 84 c129 61 191 84 214 83 32 -2 34 -1 54 60 34 100 33 101 -60 125
l-80 21 -10 -26z"/>
<path d="M10845 7957 c-7 -34 -8 -35 -173 -99 -132 -52 -175 -64 -204 -61
l-38 5 0 -136 0 -137 115 -54 115 -54 147 48 c140 45 148 47 175 32 18 -10 30
-12 36 -6 8 9 93 254 89 255 -1 0 -45 9 -97 19 -52 11 -97 17 -99 15 -2 -2 1
-15 8 -28 17 -32 -9 -91 -47 -104 -121 -44 -285 -102 -288 -102 -2 0 -4 27 -4
60 l0 59 48 21 c123 56 274 110 306 110 31 0 38 4 49 33 27 65 51 137 46 141
-2 2 -43 7 -91 11 l-87 7 -6 -35z"/>
<path d="M934 7778 c-8 -26 -29 -46 -101 -96 l-92 -62 36 -78 c19 -42 48 -105
64 -139 31 -70 29 -69 127 -53 57 10 74 8 160 -16 86 -24 102 -32 141 -72 34
-35 45 -42 52 -31 4 8 37 54 73 103 l64 90 -20 50 c-11 28 -34 86 -51 129
l-31 79 -34 -7 c-21 -4 -55 1 -95 14 -34 10 -95 29 -134 40 -44 13 -86 33
-107 51 -18 17 -36 30 -38 30 -3 0 -9 -15 -14 -32z m240 -223 c83 -25 152 -47
154 -50 2 -2 -10 -22 -27 -43 l-31 -40 -137 40 c-76 21 -164 45 -196 52 l-58
12 58 42 c32 22 65 39 73 37 8 -3 82 -25 164 -50z"/>
<path d="M11007 7434 c-3 -4 -76 -26 -162 -49 -134 -37 -159 -42 -185 -32 -25
9 -36 9 -58 -4 -29 -16 -35 -45 -43 -227 l-4 -74 65 -39 c36 -21 71 -39 78
-39 9 0 12 30 12 116 l0 115 36 15 36 15 93 -90 c121 -119 122 -119 270 -8
125 94 146 126 105 158 -14 10 -51 32 -83 50 -32 17 -72 46 -89 65 -29 32 -56
42 -71 28z"/>
<path d="M550 7257 c0 -42 33 -136 49 -141 9 -3 140 -32 291 -66 151 -33 275
-62 276 -63 1 -1 11 -24 23 -51 l22 -50 23 35 c13 19 39 59 59 90 l36 56 -46
68 -45 67 -33 -32 -33 -32 -311 70 c-296 66 -311 68 -311 49z"/>
<path d="M11116 6963 l-17 -38 -162 -32 -162 -31 -36 24 c-35 24 -59 31 -59
17 -1 -5 -7 -62 -14 -128 -8 -65 -12 -125 -9 -131 2 -7 29 -29 60 -49 39 -26
58 -33 63 -25 4 6 10 42 13 78 4 40 12 71 21 77 8 6 67 19 131 30 103 17 120
17 143 4 37 -20 36 -30 -8 -64 -22 -16 -39 -35 -40 -41 0 -15 79 -104 92 -104
6 0 53 28 104 63 83 55 93 65 94 93 0 26 -6 33 -45 52 l-45 22 35 57 c19 32
35 63 35 68 0 12 -141 95 -162 95 -8 0 -23 -17 -32 -37z"/>
<path d="M700 6920 c0 -24 -16 -47 -75 -109 -41 -43 -75 -81 -75 -85 0 -5 112
-164 159 -226 l19 -24 71 22 c62 20 82 22 175 16 105 -7 115 -10 183 -60 22
-16 23 -15 73 91 27 59 50 112 50 117 0 12 -117 196 -140 221 -14 15 -21 16
-42 6 -20 -9 -58 -9 -160 0 -107 9 -143 16 -181 36 -27 14 -51 25 -53 25 -2 0
-4 -14 -4 -30z m332 -181 l117 -12 -25 -48 c-13 -27 -29 -49 -35 -49 -6 0 -89
7 -186 16 -96 9 -184 13 -196 10 -15 -4 -11 5 19 37 73 77 40 72 306 46z"/>
<path d="M11190 6520 c-43 -28 -53 -30 -245 -45 -110 -8 -213 -18 -228 -21
-16 -3 -42 0 -58 6 -16 7 -32 10 -36 7 -7 -7 31 -63 79 -119 l33 -37 145 9
c80 5 190 12 245 16 55 3 129 12 165 19 44 9 70 10 83 3 18 -9 18 -11 -7 -37
-14 -15 -26 -32 -26 -38 0 -11 52 -48 108 -77 l33 -17 51 49 c32 31 49 55 46
64 -4 8 -62 54 -130 101 -68 47 -136 100 -153 116 -36 38 -48 38 -105 1z"/>
<path d="M580 6339 c-47 -38 -86 -73 -88 -77 -1 -5 34 -48 78 -97 45 -48 85
-96 91 -106 9 -18 26 -19 225 -19 195 0 218 -2 254 -20 l40 -20 4 22 c18 98
28 151 40 199 l13 56 -69 63 c-80 72 -83 71 -93 -29 -9 -90 -12 -99 -45 -116
-22 -11 -66 -15 -187 -15 l-158 0 55 49 55 49 -20 23 c-35 43 -99 109 -105
109 -3 -1 -43 -32 -90 -71z"/>
<path d="M11252 6223 l-20 -28 -189 -6 c-182 -5 -190 -5 -238 18 l-50 23 -33
-71 -32 -70 52 -65 c29 -35 58 -64 64 -64 6 0 19 18 29 39 l17 40 204 1 c141
0 209 -3 222 -11 27 -17 42 -8 98 56 l48 57 -59 54 c-33 30 -67 54 -77 54 -9
0 -25 -12 -36 -27z"/>
<path d="M10756 5839 c-46 -99 -47 -102 -29 -122 54 -64 79 -87 94 -87 8 0 30
23 48 50 l32 50 133 0 132 0 -7 -52 c-14 -97 -16 -93 54 -117 35 -11 66 -21
69 -21 3 0 9 26 12 58 4 31 10 71 13 89 l5 32 111 3 110 3 -57 67 c-54 63 -60
67 -97 65 -23 -1 -43 4 -48 11 -7 12 -99 42 -128 42 -6 0 -16 -13 -22 -30
l-10 -30 -133 0 -134 0 -44 45 c-24 25 -47 45 -51 45 -3 0 -27 -46 -53 -101z"/>
<path d="M1024 5763 c-27 -36 -52 -72 -56 -78 -5 -8 22 -32 77 -69 l85 -56 38
53 c55 75 72 101 72 108 0 8 -145 109 -157 109 -5 0 -31 -30 -59 -67z"/>
<path d="M592 5685 c-29 -41 -50 -80 -47 -85 13 -21 158 -112 164 -103 3 5 27
39 54 75 26 36 47 70 47 75 0 10 -145 113 -158 113 -4 0 -31 -34 -60 -75z"/>
<path d="M10752 5528 c-16 -29 -43 -78 -61 -109 -17 -31 -31 -61 -31 -67 0 -5
16 -29 35 -52 l35 -42 -55 -61 c-30 -34 -55 -67 -55 -74 0 -13 65 -97 102
-131 l25 -23 27 35 c14 19 26 39 26 44 0 30 30 29 185 -4 88 -18 167 -34 175
-34 8 0 58 39 110 87 52 47 110 92 128 100 17 7 32 18 32 23 0 6 -18 26 -39
45 -22 20 -57 63 -78 95 -43 68 -63 76 -63 26 0 -27 -14 -53 -61 -115 -33 -45
-66 -81 -72 -81 -23 1 -278 57 -283 63 -4 3 0 29 7 57 l13 52 183 -4 c101 -2
183 1 183 5 0 5 -19 38 -42 73 l-42 64 -123 0 -122 0 -46 40 c-25 22 -50 40
-55 40 -5 0 -22 -24 -38 -52z"/>
<path d="M1021 5326 c-73 -13 -117 -26 -122 -36 -5 -8 -20 -45 -33 -82 -27
-74 -29 -70 42 -109 39 -21 42 -26 36 -54 -3 -16 -9 -33 -13 -36 -3 -4 -41
-17 -84 -29 -70 -21 -80 -22 -93 -8 -14 14 -14 19 4 55 26 50 46 66 83 66 16
0 29 3 29 7 0 10 -210 183 -215 178 -3 -2 -1 -24 3 -49 8 -40 5 -52 -34 -131
l-43 -87 111 -104 111 -104 136 42 c152 47 145 39 153 158 l5 58 -43 29 c-32
23 -41 34 -37 50 7 27 28 37 96 48 l56 9 -5 -26 c-2 -14 -10 -68 -18 -120 -15
-107 -20 -95 72 -168 44 -36 62 -40 92 -21 19 12 19 13 -2 35 l-22 23 20 130
20 130 -74 85 c-52 60 -80 85 -95 84 -12 -1 -73 -11 -136 -23z"/>
<path d="M10607 4873 l-57 -126 40 -53 c22 -30 47 -54 54 -54 8 0 32 29 54 64
l41 63 103 -23 c57 -13 113 -26 125 -29 l22 -5 -24 -64 -24 -64 22 -19 c44
-39 96 -73 111 -73 9 0 24 28 41 83 15 45 31 86 36 91 4 5 51 -3 108 -19 56
-16 104 -25 107 -22 4 4 -6 26 -21 49 -55 85 -84 115 -115 121 -24 5 -30 12
-30 32 0 22 -10 31 -66 57 -64 30 -68 30 -80 13 -7 -10 -15 -22 -16 -27 -3 -8
-208 34 -288 57 -8 3 -26 21 -39 40 -13 19 -29 35 -35 35 -6 0 -37 -57 -69
-127z"/>
<path d="M1246 4818 c-3 -13 -7 -32 -8 -43 -3 -16 -34 -29 -178 -72 -164 -50
-192 -55 -230 -39 -11 4 -25 -13 -52 -64 -21 -38 -38 -74 -38 -80 0 -10 131
-80 150 -80 5 0 18 16 28 37 19 36 22 37 173 80 167 47 183 49 245 39 48 -9
49 -8 59 85 l7 65 -71 47 c-39 26 -73 47 -76 47 -2 0 -7 -10 -9 -22z"/>
<path d="M10536 4515 c-95 -123 -91 -112 -62 -177 14 -31 30 -59 36 -63 6 -4
35 16 65 43 l54 50 118 -45 c65 -24 138 -52 163 -61 26 -10 49 -27 55 -40 5
-12 15 -22 21 -22 12 0 144 57 153 65 8 9 -63 155 -76 155 -8 0 -28 -7 -44
-16 -30 -15 -35 -14 -157 35 -70 27 -137 53 -150 56 -13 4 -39 29 -59 56 -19
27 -39 49 -43 49 -5 0 -38 -38 -74 -85z"/>
<path d="M1370 4478 c-23 -94 -15 -87 -156 -143 l-132 -52 -21 74 -22 73 -69
0 c-38 0 -71 -4 -74 -9 -3 -5 6 -46 19 -92 14 -45 25 -86 25 -90 0 -4 -33 -20
-72 -35 -135 -51 -143 -55 -127 -65 8 -5 47 -22 86 -39 70 -29 74 -30 110 -15
28 12 38 13 44 4 5 -9 25 -10 76 -3 68 9 68 9 67 40 -2 31 -1 31 141 88 l142
58 53 -27 c29 -15 56 -23 60 -18 4 4 11 58 14 119 l7 112 -75 31 c-41 17 -77
31 -80 31 -3 0 -10 -19 -16 -42z"/>
<path d="M10440 4231 c0 -25 -14 -40 -100 -108 l-99 -78 0 -115 -1 -115 110
-62 c60 -35 115 -63 121 -63 7 0 41 16 76 35 36 20 68 33 72 31 4 -3 14 -47
21 -98 7 -51 16 -97 20 -101 4 -5 22 11 39 36 28 41 39 48 112 72 l82 27 -7
97 c-3 53 -9 119 -12 148 l-6 51 -129 58 -130 57 -41 -39 c-55 -51 -88 -84
-88 -88 0 -2 6 -22 14 -44 14 -38 13 -40 -8 -50 -18 -8 -32 -5 -72 16 -27 15
-47 32 -44 37 3 6 41 40 86 77 l81 67 -16 81 c-16 80 -28 100 -63 100 -13 0
-18 -8 -18 -29z m285 -353 c76 -38 84 -59 26 -76 -51 -16 -67 -15 -96 4 -13 9
-28 13 -34 10 -5 -3 -14 8 -20 26 -9 26 -8 35 5 50 24 25 44 23 119 -14z"/>
<path d="M1470 4142 l0 -61 -52 -19 c-29 -11 -107 -39 -173 -62 -66 -23 -125
-48 -132 -54 -6 -6 -25 -58 -42 -115 -17 -57 -40 -119 -51 -138 -11 -19 -20
-36 -20 -38 0 -2 26 -9 58 -15 31 -7 88 -23 125 -37 38 -13 71 -22 75 -19 3 4
-2 22 -11 41 -13 27 -15 52 -10 119 l6 85 155 55 c85 31 156 55 156 54 25 -54
36 -81 36 -92 0 -7 -70 -53 -155 -101 -86 -48 -158 -91 -160 -95 -3 -5 7 -12
23 -18 15 -5 50 -19 78 -30 l51 -21 115 64 115 63 68 -6 67 -5 -5 29 c-4 16
-9 68 -13 116 -3 48 -11 92 -18 96 -6 5 -35 15 -63 23 -60 14 -59 13 -38 109
7 36 11 68 7 71 -4 4 -41 16 -82 27 -41 11 -83 24 -92 27 -16 6 -18 0 -18 -53z"/>
<path d="M1753 3593 c-1 -41 -7 -70 -15 -75 -7 -5 -62 -38 -123 -73 l-110 -65
-34 67 c-18 38 -34 69 -36 71 -2 3 -138 -28 -143 -33 -2 -1 15 -42 38 -91 31
-67 37 -90 28 -96 -7 -4 -50 -29 -95 -54 -46 -25 -83 -49 -83 -53 0 -4 39 -18
87 -31 l87 -23 37 20 c21 12 41 17 46 12 5 -5 37 0 73 10 65 18 68 21 59 65
-3 14 23 34 125 93 l129 75 61 -16 c33 -8 62 -13 64 -12 1 2 -3 54 -10 115
-14 126 -11 122 -103 141 -33 7 -64 14 -70 16 -6 3 -11 -22 -12 -63z"/>
<path d="M10128 3576 c-48 -11 -89 -24 -93 -27 -5 -5 40 -177 48 -185 8 -8
181 44 185 55 2 7 0 30 -6 50 -6 20 -16 57 -23 84 -6 26 -14 47 -18 46 -3 -1
-45 -11 -93 -23z"/>
<path d="M10470 3368 c-41 -11 -77 -21 -79 -23 -2 -3 1 -17 7 -32 5 -15 16
-54 23 -86 7 -32 16 -60 21 -63 4 -3 49 5 99 17 l91 23 -6 40 c-4 23 -14 65
-23 94 -18 60 -19 61 -133 30z"/>
<path d="M1925 3313 c4 -21 7 -41 8 -45 4 -13 -323 -218 -347 -218 -27 0 -30
-9 -42 -112 -7 -63 -9 -61 81 -73 28 -3 58 -8 68 -11 14 -4 17 1 17 27 0 26 9
41 44 73 67 63 262 176 314 183 24 3 46 12 49 20 3 7 0 42 -7 77 l-12 64 -83
26 c-46 14 -86 26 -90 26 -4 0 -4 -17 0 -37z"/>
<path d="M9752 3298 c-8 -8 -12 -47 -12 -110 l0 -98 265 -177 c146 -97 265
-179 265 -183 0 -4 -21 -11 -46 -15 l-46 -7 7 -71 c4 -40 9 -74 11 -76 5 -6
170 20 184 29 8 5 8 32 0 101 -6 52 -13 112 -16 135 l-5 40 -259 172 c-143 95
-268 182 -279 193 -10 11 -21 34 -25 50 -6 30 -24 37 -44 17z"/>
<path d="M2025 3033 c-22 -15 -79 -57 -127 -95 -70 -55 -93 -68 -122 -68 l-36
0 0 -135 0 -135 33 0 c39 0 159 19 167 26 3 3 -3 10 -13 15 -12 7 -17 23 -17
57 l0 47 135 108 c75 59 140 105 145 102 4 -3 16 -29 26 -57 l17 -52 -79 -75
c-122 -115 -193 -171 -225 -178 l-29 -5 0 -94 c0 -52 3 -94 8 -94 4 0 23 4 42
9 19 6 54 15 78 21 39 10 42 13 42 44 0 38 22 62 190 205 76 65 101 81 128 81
17 0 32 3 32 6 0 18 -94 264 -100 264 -5 0 -42 4 -82 9 -179 23 -170 23 -213
-6z"/>
<path d="M9581 2922 l-93 -47 6 -75 c3 -41 10 -78 14 -82 5 -5 36 0 69 10 l61
19 94 -74 c51 -41 97 -79 103 -84 6 -6 -9 -28 -40 -59 l-49 -50 17 -33 c10
-18 28 -46 41 -62 l23 -29 68 62 c37 34 71 62 76 62 4 0 41 -27 82 -60 41 -33
80 -60 86 -60 9 0 10 19 6 63 -11 115 -14 125 -44 143 -16 10 -27 23 -25 29 5
11 -70 115 -82 115 -2 0 -15 -7 -29 -16 -23 -15 -26 -13 -133 70 -114 89 -122
101 -122 177 0 39 -15 37 -129 -19z"/>
<path d="M2400 2698 c0 -5 6 -24 14 -42 l14 -34 -164 -156 c-100 -96 -171
-156 -184 -156 -18 0 -20 -6 -20 -85 l0 -85 90 0 90 0 0 43 c0 41 4 46 118
158 153 151 184 176 232 189 22 6 40 16 39 23 0 7 -10 39 -22 72 l-22 60 -93
11 c-50 5 -92 6 -92 2z"/>
<path d="M9315 2616 l-120 -64 -6 -55 c-3 -30 -9 -59 -13 -65 -3 -5 -29 -16
-56 -23 -28 -7 -55 -18 -59 -24 -5 -5 -11 -47 -14 -91 l-6 -81 46 8 c46 9 48
8 93 -33 137 -129 200 -194 200 -209 0 -21 29 -29 113 -29 l67 0 0 33 c0 17 3
56 6 85 l7 52 -33 0 c-53 0 -91 25 -200 135 l-104 104 17 35 c12 27 26 38 57
47 l41 13 125 -125 c68 -68 124 -132 124 -141 0 -16 11 -18 90 -18 l90 0 0 39
c0 21 3 60 7 86 6 45 5 47 -16 40 -45 -14 -76 6 -197 123 -116 112 -122 120
-130 170 l-9 51 -120 -63z"/>
<path d="M2675 2448 c-38 -5 -72 -11 -74 -14 -2 -2 26 -35 63 -75 36 -39 66
-76 66 -81 0 -29 -39 -86 -126 -183 l-99 -110 -3 78 -3 77 -89 0 -90 0 0 -120
0 -120 134 0 c74 0 141 -3 149 -6 10 -3 51 37 124 123 130 151 195 213 223
213 11 0 20 3 20 6 0 3 -41 55 -91 115 -67 81 -96 109 -112 108 -12 -1 -53 -6
-92 -11z"/>
<path d="M8868 2191 l-137 -46 -1 -42 c0 -26 -14 -72 -40 -128 -22 -48 -40
-90 -40 -93 0 -4 58 -79 128 -167 l127 -160 51 -6 c28 -4 103 -10 167 -14
l116 -7 -6 -29 c-4 -21 -2 -29 9 -29 31 0 48 26 59 90 9 56 8 66 -6 76 -9 7
-69 24 -133 39 -65 15 -134 31 -154 36 -32 8 -53 29 -137 133 l-99 123 66 31
c37 17 69 27 72 23 3 -4 51 -62 108 -129 89 -105 107 -122 133 -122 27 0 29
-2 29 -42 1 -41 1 -42 16 -23 28 34 75 145 67 158 -4 6 -60 74 -125 151 -113
133 -119 142 -116 180 1 22 -2 40 -7 41 -6 1 -72 -18 -147 -44z"/>
<path d="M3170 2032 c-41 -8 -77 -16 -78 -18 -2 -1 6 -46 18 -98 20 -88 24
-96 46 -96 22 0 175 30 183 36 3 3 -23 133 -35 177 -6 21 -30 21 -134 -1z"/>
<path d="M8470 1889 c-30 -5 -57 -13 -61 -17 -8 -9 -59 -139 -59 -150 0 -5 19
-6 43 -2 l42 6 103 -153 c58 -87 102 -163 102 -176 0 -22 7 -26 78 -40 88 -17
88 -17 97 58 4 27 9 58 11 67 4 13 -5 20 -34 28 -36 9 -48 23 -136 150 -90
131 -96 142 -96 190 0 56 4 54 -90 39z"/>
<path d="M3601 1801 l-84 -25 98 -90 97 -91 -22 -38 -22 -37 -128 0 -129 0
-23 -32 c-20 -28 -24 -52 -33 -172 -9 -127 -9 -141 7 -162 l18 -22 97 29 c54
16 119 29 145 29 l47 0 48 103 c94 201 117 241 146 255 15 7 27 19 27 27 0 7
3 20 6 29 6 17 -65 97 -156 176 l-55 47 -84 -26z m26 -363 c-3 -7 -26 -59 -53
-115 -35 -76 -52 -103 -66 -103 -10 0 -18 5 -18 11 0 31 34 196 43 207 5 6 30
12 54 12 32 0 44 -4 40 -12z"/>
<path d="M8072 1632 c-18 -42 -32 -79 -32 -82 0 -3 19 -4 43 -2 l42 4 85 -154
c62 -111 85 -162 83 -185 -1 -31 -1 -31 76 -52 43 -12 80 -21 83 -21 9 0 41
139 35 154 -3 7 -19 16 -35 19 -26 5 -40 24 -111 152 -71 127 -81 152 -81 195
l0 50 -77 0 -78 0 -33 -78z"/>
<path d="M2945 1665 c-55 -12 -99 -26 -99 -31 8 -57 38 -194 43 -194 3 0 50
10 104 22 60 13 97 26 97 34 0 13 -41 195 -43 193 -1 -1 -47 -11 -102 -24z"/>
<path d="M3983 1586 c-39 -17 -74 -33 -77 -36 -2 -3 32 -28 77 -55 108 -66
109 -71 24 -263 l-64 -142 -18 65 c-9 36 -21 68 -26 71 -10 6 -159 -33 -172
-45 -4 -4 -1 -27 7 -52 8 -24 22 -69 30 -99 9 -30 20 -61 24 -68 8 -11 70 4
287 73 6 1 30 49 54 106 94 222 129 288 155 300 14 7 26 15 26 19 0 11 -228
160 -242 159 -7 -1 -45 -15 -85 -33z"/>
<path d="M7706 1444 c-15 -47 -26 -87 -24 -88 14 -11 174 -54 179 -48 15 16
52 163 43 171 -9 9 -143 51 -161 51 -6 0 -23 -39 -37 -86z"/>
<path d="M4585 1424 c-44 -19 -98 -38 -119 -42 l-39 -7 -57 -145 c-31 -80 -83
-212 -115 -295 l-59 -149 -19 57 c-18 54 -21 57 -50 57 -38 -1 -115 -15 -123
-23 -3 -3 2 -44 12 -91 l17 -86 51 -19 51 -19 104 27 105 28 41 114 c23 63 63
175 90 249 26 74 65 169 86 212 36 71 42 77 86 94 26 9 51 20 55 24 8 6 -18
50 -30 50 -4 0 -43 -16 -87 -36z"/>
<path d="M7906 1092 c-14 -42 -26 -80 -26 -84 0 -7 155 -58 176 -58 6 0 20 33
31 73 12 39 24 79 28 88 5 13 -9 20 -79 38 -47 11 -90 21 -95 21 -5 0 -21 -35
-35 -78z"/>
<path d="M4682 884 l-83 -46 37 -67 c20 -37 44 -78 54 -91 l17 -23 92 50 91
49 -49 85 c-26 46 -54 85 -62 86 -8 2 -51 -18 -97 -43z"/>
</g>
</svg>
