<?xml version="1.0" standalone="no"?>
<!DOCTYPE svg PUBLIC "-//W3C//DTD SVG 20010904//EN"
 "http://www.w3.org/TR/2001/REC-SVG-20010904/DTD/svg10.dtd">
<svg version="1.0" xmlns="http://www.w3.org/2000/svg"
 width="1200.000000pt" height="1200.000000pt" viewBox="0 0 1200.000000 1200.000000"
 preserveAspectRatio="xMidYMid meet">
<metadata>
Created by potrace 1.11, written by Peter Selinger 2001-2013
</metadata>
<g transform="translate(0.000000,1200.000000) scale(0.100000,-0.100000)"
fill="#000000" stroke="none">
<path d="M5698 11995 c-2 -1 -48 -6 -104 -9 -55 -3 -118 -8 -140 -11 -21 -2
-66 -7 -99 -10 -95 -8 -143 -15 -245 -31 -52 -9 -111 -18 -129 -20 -19 -3 -91
-16 -160 -30 -847 -171 -1639 -517 -2331 -1018 -128 -93 -354 -271 -424 -335
-22 -20 -67 -60 -100 -90 -109 -97 -399 -393 -493 -503 -569 -662 -961 -1369
-1213 -2188 -62 -201 -136 -506 -165 -680 -2 -14 -11 -65 -19 -115 -19 -111
-28 -184 -41 -310 -4 -38 -8 -81 -11 -94 -25 -163 -25 -868 0 -1091 3 -19 7
-69 11 -110 4 -41 9 -84 11 -95 2 -11 6 -42 9 -70 3 -27 11 -76 16 -108 6 -32
12 -70 14 -85 10 -78 100 -495 110 -512 2 -3 6 -18 8 -31 7 -38 43 -158 94
-314 200 -617 502 -1197 896 -1725 56 -74 106 -140 112 -146 5 -7 26 -31 45
-55 203 -251 473 -529 740 -759 35 -30 68 -60 74 -65 6 -6 31 -26 56 -45 25
-19 47 -37 50 -40 10 -12 276 -208 355 -261 295 -201 711 -431 989 -545 34
-14 75 -31 91 -39 140 -63 623 -228 735 -250 8 -2 51 -12 95 -23 158 -41 305
-71 486 -101 190 -32 225 -36 344 -47 39 -3 81 -8 95 -10 153 -25 867 -25
1080 0 19 3 67 7 105 11 39 4 117 13 175 21 58 8 116 17 130 19 297 40 807
174 1120 292 272 103 394 156 615 268 267 136 412 220 650 378 111 74 335 236
361 261 6 6 26 22 44 36 39 29 83 65 125 101 174 150 234 207 390 363 99 100
205 210 235 246 30 35 71 83 91 105 82 93 244 304 345 450 317 457 561 935
742 1455 77 220 164 527 187 661 3 18 7 35 9 38 2 3 7 23 10 43 3 21 10 57 15
80 10 45 16 77 26 142 4 21 8 48 11 59 3 18 21 144 29 207 2 14 6 59 10 100 4
41 9 89 11 105 19 155 26 709 12 925 -79 1165 -484 2265 -1178 3195 -53 72
-113 150 -134 175 -20 25 -44 54 -53 65 -183 228 -562 606 -798 798 -11 8 -40
33 -65 53 -209 173 -567 414 -860 578 -122 69 -445 224 -605 291 -161 67 -531
195 -680 235 -188 51 -471 113 -639 140 -194 31 -215 34 -376 50 -58 6 -130
13 -160 16 -57 6 -736 14 -742 9z m607 -69 c72 -4 146 -8 165 -10 19 -3 67 -7
105 -10 73 -6 140 -13 190 -21 17 -3 50 -8 75 -11 403 -51 897 -181 1325 -349
659 -257 1281 -642 1807 -1117 770 -695 1344 -1576 1666 -2558 50 -151 59
-180 108 -365 22 -84 66 -281 79 -350 28 -160 45 -257 49 -295 4 -25 8 -54 10
-66 2 -11 7 -54 11 -95 3 -41 8 -81 10 -89 2 -8 7 -60 10 -115 4 -55 9 -125
11 -155 5 -69 4 -589 0 -650 -2 -25 -7 -85 -10 -135 -4 -49 -8 -101 -10 -115
-4 -24 -10 -79 -21 -185 -3 -27 -7 -61 -10 -75 -2 -14 -7 -45 -10 -70 -15
-108 -73 -394 -106 -524 -12 -45 -22 -88 -24 -96 -25 -123 -200 -631 -269
-785 -265 -586 -471 -932 -820 -1375 -50 -63 -94 -117 -97 -120 -4 -3 -21 -23
-39 -45 -147 -186 -518 -548 -745 -730 -27 -22 -56 -46 -63 -53 -29 -27 -282
-213 -387 -284 -124 -83 -306 -196 -408 -252 -37 -20 -82 -45 -100 -55 -54
-30 -248 -127 -312 -156 -566 -256 -1065 -403 -1660 -490 -22 -4 -50 -8 -63
-10 -13 -2 -53 -7 -90 -10 -37 -3 -80 -8 -97 -10 -32 -4 -133 -13 -255 -20
-82 -6 -591 -6 -655 -1 -22 2 -85 6 -140 10 -55 4 -113 10 -130 12 -16 2 -57
6 -90 9 -33 3 -69 8 -80 10 -11 2 -42 7 -70 10 -27 3 -77 11 -110 17 -33 5
-69 11 -80 13 -11 1 -81 14 -155 29 -897 179 -1775 586 -2490 1154 -115 91
-137 109 -215 177 -201 175 -427 401 -595 595 -36 41 -69 79 -75 85 -11 12
-26 31 -131 165 -455 579 -820 1300 -1023 2019 -37 130 -104 408 -116 481 -3
19 -15 84 -25 143 -11 60 -22 130 -25 156 -3 26 -7 56 -9 67 -2 10 -7 53 -11
94 -4 41 -9 83 -10 92 -2 9 -7 61 -10 115 -4 54 -9 118 -11 143 -6 72 -6 588
0 665 14 184 17 213 22 260 11 101 41 334 49 373 2 11 6 37 9 58 4 22 8 46 11
54 2 8 6 31 9 50 9 60 55 259 92 400 159 601 433 1213 779 1735 79 119 230
329 287 400 579 717 1228 1248 1998 1634 359 179 592 271 1015 401 134 41 468
118 627 145 121 20 147 25 183 29 22 3 56 8 75 11 35 5 76 9 185 20 33 3 79 8
103 10 23 3 106 7 185 11 78 3 143 7 144 8 4 3 341 -3 458 -8z"/>
<path d="M5719 11805 c-2 -2 -53 -6 -114 -10 -60 -3 -123 -8 -140 -9 -16 -2
-64 -7 -105 -10 -41 -4 -82 -9 -90 -11 -8 -2 -37 -7 -65 -10 -41 -4 -156 -23
-310 -49 -250 -43 -817 -208 -1020 -296 -11 -5 -81 -34 -155 -65 -394 -165
-840 -423 -1205 -697 -128 -95 -173 -132 -360 -292 -61 -52 -412 -399 -476
-471 -612 -689 -1034 -1458 -1278 -2330 -17 -60 -33 -119 -35 -130 -2 -11 -11
-47 -19 -80 -31 -120 -83 -397 -102 -545 -3 -25 -8 -56 -10 -70 -2 -14 -6 -54
-10 -90 -3 -36 -8 -81 -10 -100 -26 -201 -26 -988 0 -1090 2 -8 7 -51 10 -95
3 -44 8 -87 10 -95 3 -8 7 -35 10 -60 70 -572 273 -1227 555 -1790 239 -478
511 -879 875 -1289 110 -125 430 -437 555 -541 36 -30 67 -57 70 -60 17 -17
123 -100 240 -187 488 -363 1003 -633 1586 -833 149 -51 387 -122 449 -134 11
-2 47 -11 80 -19 171 -44 509 -103 703 -122 28 -3 73 -7 100 -10 26 -2 90 -7
142 -10 l95 -6 -39 20 c-21 11 -60 34 -86 51 -39 25 -65 32 -136 40 -49 6
-111 13 -139 16 -27 4 -64 8 -81 9 -75 8 -352 60 -489 92 -359 83 -662 182
-985 321 -194 83 -492 233 -592 298 -21 13 -40 24 -43 24 -8 0 -236 144 -314
197 -84 59 -274 196 -281 203 -3 3 -52 43 -110 90 -58 46 -110 89 -116 95 -6
5 -44 39 -85 74 -41 36 -155 146 -254 245 -615 617 -1070 1346 -1356 2175 -67
195 -165 555 -185 677 -3 21 -8 42 -10 45 -2 3 -6 21 -9 40 -3 19 -7 45 -10
59 -3 14 -7 41 -10 60 -3 19 -10 60 -15 90 -5 30 -12 78 -15 105 -4 28 -8 59
-10 70 -1 11 -6 56 -10 100 -4 44 -8 90 -10 103 -24 151 -24 868 -1 1012 3 14
7 52 10 85 32 348 125 794 242 1155 51 159 166 465 195 520 11 19 19 38 19 43
0 17 175 364 249 495 91 159 156 263 260 417 67 98 216 302 230 315 3 3 24 28
46 55 440 557 1067 1078 1734 1440 586 318 1300 550 1941 630 30 4 62 9 71 10
9 2 52 6 95 10 43 4 90 8 104 11 143 23 818 23 1000 0 19 -3 66 -8 104 -11
133 -12 251 -29 401 -57 61 -11 121 -22 135 -25 267 -49 766 -198 995 -298 17
-7 55 -23 85 -35 452 -185 975 -499 1375 -824 311 -253 642 -587 886 -896 545
-687 945 -1536 1113 -2365 27 -134 49 -259 66 -372 17 -124 19 -134 25 -213 4
-41 8 -86 10 -99 24 -148 25 -804 1 -1001 -2 -19 -7 -66 -11 -105 -9 -101 -24
-211 -40 -308 -29 -168 -37 -212 -40 -217 -2 -3 -6 -22 -9 -44 -12 -73 -78
-332 -126 -492 -195 -645 -520 -1276 -934 -1814 -286 -371 -642 -731 -1006
-1017 -620 -487 -1350 -848 -2098 -1039 -125 -31 -322 -75 -399 -88 -192 -33
-303 -49 -428 -61 -108 -10 -127 -16 -206 -62 -44 -25 -79 -48 -79 -50 0 -4
145 4 215 11 17 2 62 7 100 10 39 4 81 9 95 11 14 2 45 7 70 10 175 23 423 70
543 101 34 9 71 18 81 20 106 20 488 142 661 209 244 96 580 253 733 344 29
17 55 31 57 31 9 0 241 144 358 222 151 101 358 257 522 394 118 99 484 454
580 564 265 302 515 648 701 970 65 114 264 501 264 514 0 3 13 33 29 68 53
115 138 341 195 515 50 152 137 473 152 558 3 17 9 46 14 65 5 19 11 49 14 65
37 225 55 340 61 390 3 33 8 71 10 85 4 26 10 91 22 240 15 181 7 840 -12 938
-1 9 -6 51 -10 92 -3 41 -8 86 -10 100 -2 14 -7 45 -10 70 -3 25 -10 70 -15
100 -5 30 -12 71 -15 90 -24 151 -48 260 -101 469 -41 159 -161 541 -196 622
-9 19 -41 97 -73 174 -236 570 -588 1125 -1030 1625 -99 112 -441 446 -546
534 -612 511 -1220 856 -1924 1092 -185 62 -475 144 -563 160 -13 3 -52 11
-86 19 -84 19 -361 66 -481 80 -27 3 -63 8 -80 10 -16 2 -66 7 -110 10 -44 4
-98 9 -120 12 -52 5 -692 13 -696 8z"/>
<path d="M5908 11458 c-110 -28 -149 -168 -77 -270 69 -96 228 -75 274 35 57
137 -55 270 -197 235z"/>
<path d="M6858 11360 c-53 -10 -87 -36 -109 -83 -54 -121 20 -247 146 -247 80
0 135 43 156 121 33 124 -66 232 -193 209z"/>
<path d="M4901 11334 c-61 -26 -98 -91 -93 -163 2 -40 45 -115 78 -136 86 -57
221 -4 241 95 31 149 -94 262 -226 204z"/>
<path d="M4270 11160 c-84 -15 -135 -86 -128 -177 12 -143 175 -206 278 -108
68 65 55 207 -23 258 -35 23 -88 34 -127 27z"/>
<path d="M7545 11143 c-67 -23 -97 -64 -108 -148 -8 -64 35 -138 96 -165 123
-55 244 45 223 185 -16 100 -116 161 -211 128z"/>
<path d="M5522 11088 c-7 -7 -12 -27 -12 -45 l0 -33 -222 -2 -222 -3 -1 -762
c0 -419 3 -759 7 -755 4 4 48 86 97 183 87 168 91 179 91 240 0 70 -15 139
-30 139 -6 0 -10 -6 -11 -12 -4 -67 -28 -108 -63 -108 -28 0 -43 33 -40 90 1
51 12 78 35 85 18 6 17 10 -16 48 -19 22 -36 48 -36 56 -1 9 -3 26 -4 38 -1
12 4 35 13 52 12 25 21 31 47 31 35 0 65 -26 68 -58 1 -22 17 -20 17 2 0 7 9
21 19 30 26 23 57 13 69 -23 12 -33 -11 -106 -45 -146 -28 -31 -28 -29 -3 -79
16 -35 22 -53 29 -96 1 -3 35 62 77 144 71 140 76 153 77 215 0 67 -18 145
-32 136 -5 -2 -11 -23 -14 -46 -9 -68 -62 -105 -87 -60 -24 47 -1 171 33 171
9 0 9 2 1 8 -24 15 -64 86 -64 113 0 110 98 128 132 24 6 -19 6 -19 7 1 3 53
90 73 92 21 3 -63 -14 -115 -53 -157 -20 -22 -20 -24 -5 -54 10 -17 23 -50 30
-73 l12 -43 76 148 76 147 -2 75 c-4 118 -36 171 -48 80 -6 -50 -22 -70 -53
-70 -29 0 -42 27 -42 85 0 43 22 95 39 95 6 0 -1 14 -15 31 -46 54 -39 59 79
59 l105 0 0 28 c0 15 -5 33 -12 40 -18 18 -56 14 -70 -7 -11 -18 -12 -18 -31
5 -20 26 -74 33 -95 12z"/>
<path d="M6325 11088 c-11 -6 -24 -18 -28 -25 -7 -12 -12 -11 -28 6 -11 12
-26 21 -34 21 -21 0 -45 -29 -45 -56 0 -23 -3 -24 -60 -24 l-60 0 62 -125 c35
-69 66 -125 69 -125 4 0 10 17 14 37 4 20 16 55 27 76 19 39 19 39 0 61 -19
21 -42 59 -42 70 0 3 45 6 100 6 112 0 123 -8 74 -57 -23 -22 -24 -28 -12 -37
53 -40 50 -176 -4 -176 -28 0 -45 26 -54 80 -7 41 -17 50 -31 28 -12 -20 -17
-58 -17 -138 0 -73 2 -79 69 -212 38 -76 74 -138 80 -138 6 0 12 12 13 27 1
15 11 45 22 68 11 23 20 44 20 48 0 3 -14 26 -30 49 -51 72 -54 168 -6 168 27
0 39 -13 53 -55 l10 -30 7 30 c4 17 15 38 23 48 19 20 66 23 81 4 32 -38 19
-132 -23 -169 l-24 -21 24 -29 c20 -23 25 -41 25 -83 0 -48 -16 -85 -36 -85
-24 0 -44 27 -55 75 -7 30 -16 55 -20 55 -15 0 -30 -71 -32 -148 -2 -74 0 -83
41 -165 57 -115 104 -197 114 -197 4 0 8 13 8 28 0 16 11 50 24 76 l24 47 -23
27 c-35 42 -55 88 -55 124 0 37 8 52 31 60 17 7 59 -24 59 -42 0 -6 5 -10 10
-10 6 0 10 7 10 15 0 23 37 55 64 55 31 0 45 -19 48 -61 3 -67 -2 -89 -30
-120 l-28 -32 23 -23 c22 -22 26 -42 25 -108 -1 -42 -25 -63 -56 -48 -19 8
-27 23 -36 66 -6 31 -14 56 -16 56 -16 0 -34 -79 -34 -147 1 -77 2 -79 83
-242 45 -90 86 -163 92 -162 9 1 16 1452 7 1491 -3 13 -34 15 -218 13 l-214
-1 0 22 c0 45 -47 75 -85 54z"/>
<path d="M5751 11010 c-12 -3 -37 -27 -55 -53 l-35 -49 19 -36 c10 -21 21 -52
24 -70 2 -19 7 -36 10 -39 5 -5 126 230 126 244 0 9 -58 11 -89 3z"/>
<path d="M5942 10928 c-24 -31 -338 -674 -335 -685 3 -7 11 -13 18 -13 7 0 82
50 165 111 84 61 158 113 165 115 7 3 79 -44 159 -105 206 -155 228 -158 167
-21 -42 94 -288 578 -304 598 -5 6 -13 12 -17 12 -4 0 -12 -6 -18 -12z"/>
<path d="M3633 10839 c-105 -52 -118 -221 -23 -289 37 -26 108 -36 153 -21
143 48 136 280 -10 320 -54 15 -72 14 -120 -10z"/>
<path d="M8193 10820 c-68 -10 -110 -46 -129 -110 -12 -43 -14 -62 -5 -90 28
-90 81 -134 163 -133 92 2 158 71 158 166 0 106 -84 182 -187 167z"/>
<path d="M4256 10728 c-22 -24 -89 -95 -147 -158 -59 -63 -119 -129 -135 -146
-77 -82 -185 -202 -203 -226 -20 -25 -21 -37 -21 -380 l0 -353 28 54 c16 29
50 82 76 118 46 62 48 65 41 114 l-7 51 -27 -32 c-17 -21 -33 -31 -46 -28 -17
3 -20 11 -19 54 1 27 9 65 18 82 l17 33 -36 33 c-41 39 -48 91 -17 119 36 33
102 10 102 -36 0 -21 13 -22 29 -3 23 28 77 2 81 -39 4 -41 -1 -55 -34 -87
-34 -34 -37 -51 -21 -117 l6 -24 31 29 c17 16 52 55 79 87 44 52 49 63 49 108
l0 50 -31 -16 c-28 -15 -33 -15 -55 0 -32 21 -34 92 -4 120 20 18 20 19 1 39
-28 30 -32 96 -7 128 7 9 24 19 39 22 35 6 57 -24 58 -79 0 -22 3 -34 6 -27 7
17 44 15 71 -4 34 -23 30 -75 -9 -113 -27 -27 -29 -35 -24 -73 9 -58 18 -64
53 -39 16 11 41 25 55 30 33 13 50 88 38 174 -1 4 -12 5 -25 1 -39 -10 -65 24
-62 82 2 35 8 51 27 65 13 10 29 19 36 19 9 0 8 9 -3 35 -32 78 -10 159 46
170 77 15 113 -53 84 -154 -14 -47 -11 -61 11 -61 23 0 45 -42 45 -87 0 -46
-25 -73 -67 -73 -21 0 -23 -5 -23 -49 0 -88 7 -103 62 -134 57 -32 60 -30 78
35 9 32 8 40 -10 58 -28 28 -28 95 1 111 12 6 34 8 50 5 28 -5 29 -4 29 33 0
48 26 75 64 65 15 -3 31 -14 36 -24 17 -31 11 -90 -10 -117 -20 -25 -20 -25 0
-50 25 -32 26 -85 2 -106 -23 -21 -46 -21 -78 -1 -13 9 -26 15 -28 13 -2 -2
-8 -24 -14 -49 -13 -50 -19 -38 73 -148 28 -34 53 -61 56 -61 18 -2 14 43 -7
83 -29 55 -30 90 -4 116 16 16 24 18 47 9 15 -5 33 -14 39 -20 8 -6 11 -4 11
8 0 36 4 41 34 52 24 8 37 7 60 -4 52 -27 47 -84 -10 -132 -25 -21 -26 -21 -7
-42 22 -24 25 -93 6 -116 -19 -23 -61 -18 -91 11 l-26 25 -6 -31 c-6 -25 3
-47 47 -123 29 -51 65 -123 80 -162 16 -38 30 -73 32 -77 3 -4 0 -9 -6 -13 -5
-3 -24 22 -41 57 -107 213 -354 484 -480 528 -31 11 -41 10 -74 -6 -36 -17
-141 -113 -190 -174 -123 -152 -235 -347 -280 -484 -26 -81 -27 -84 -10 -110
12 -18 16 -37 12 -62 -13 -78 -69 -120 -136 -102 -33 10 -80 51 -82 73 0 6 -2
18 -4 28 -2 10 3 34 11 53 12 28 14 100 12 394 l-3 361 -110 -72 c-628 -408
-1156 -980 -1522 -1649 -179 -326 -326 -700 -417 -1065 -23 -94 -69 -313 -80
-380 -2 -16 -7 -48 -11 -70 -10 -67 -19 -144 -30 -265 -22 -243 -22 -646 0
-829 2 -14 6 -55 10 -91 6 -65 7 -74 20 -160 39 -270 120 -595 218 -875 116
-330 331 -750 534 -1045 332 -481 751 -895 1233 -1218 79 -53 154 -102 165
-108 11 -6 65 -37 120 -69 323 -185 685 -335 1052 -436 l113 -31 1 -102 c1
-194 24 -298 98 -451 71 -146 150 -253 291 -395 188 -189 409 -333 599 -391
150 -45 307 1 545 162 312 210 548 502 632 786 21 72 27 116 31 241 l6 152 26
6 c43 10 330 94 354 104 12 5 67 26 122 45 55 20 114 42 130 50 17 7 59 25 95
40 82 34 368 177 421 210 21 14 41 25 43 25 20 0 396 252 510 342 210 166 464
402 616 573 371 417 674 917 869 1433 77 203 147 438 186 622 9 41 18 84 21
95 9 40 34 191 39 230 3 22 7 51 10 65 4 23 11 82 20 165 23 221 23 762 1 882
-2 10 -7 45 -10 78 -7 69 -17 141 -22 170 -2 11 -7 40 -10 65 -3 25 -8 54 -11
65 -4 22 -6 31 -29 145 -34 168 -111 434 -184 635 -71 196 -229 532 -318 679
-23 37 -42 70 -42 73 0 11 -197 304 -267 397 -233 310 -526 612 -824 848 -167
132 -498 358 -525 358 -4 0 -15 7 -25 16 -17 15 -18 -1 -17 -367 l0 -384 24
-24 c13 -13 24 -26 25 -30 11 -70 -15 -132 -64 -152 -117 -49 -206 97 -123
199 l22 27 0 471 -1 472 -124 128 c-68 71 -198 204 -289 296 l-165 167 -25
-27 c-14 -15 -68 -74 -121 -131 -53 -57 -107 -116 -121 -131 -163 -179 -214
-234 -267 -290 l-62 -65 0 -315 0 -315 24 40 c13 22 49 74 79 116 43 59 56 85
56 112 0 20 -4 39 -10 42 -5 3 -10 0 -10 -8 0 -37 -75 -64 -82 -29 -5 23 16
118 31 136 9 11 7 18 -12 32 -28 23 -53 64 -51 84 1 8 2 20 3 27 2 21 32 43
60 43 33 0 50 -17 53 -52 l2 -25 33 20 c31 18 35 18 58 3 38 -25 34 -76 -10
-125 -36 -39 -40 -55 -29 -110 l6 -31 67 72 c85 92 92 102 96 146 5 48 -1 55
-31 36 -22 -15 -26 -15 -49 0 -14 9 -26 24 -27 34 0 9 -2 24 -3 32 -2 20 16
60 27 60 4 0 8 7 8 15 0 8 -4 15 -9 15 -15 0 -31 54 -26 89 6 43 25 64 60 64
36 0 47 -14 48 -61 2 -38 3 -40 32 -35 71 11 95 -69 39 -129 -29 -31 -30 -36
-21 -78 5 -25 10 -46 12 -48 6 -7 121 62 127 76 4 9 7 47 7 84 1 61 0 66 -19
61 -11 -3 -31 2 -45 11 -49 32 -26 137 35 158 10 3 11 11 1 41 -23 69 -11 155
22 158 7 1 25 2 41 4 66 5 94 -70 62 -163 -15 -40 -15 -41 13 -50 35 -12 56
-59 47 -107 -7 -37 -30 -55 -69 -55 -23 0 -24 -2 -21 -67 2 -36 5 -72 8 -78 4
-13 91 -65 107 -65 5 0 15 21 23 48 13 43 13 48 -3 62 -25 22 -33 62 -20 100
11 31 14 32 53 28 41 -5 41 -5 40 28 -2 39 20 74 45 74 11 0 29 -9 42 -19 34
-27 34 -99 0 -135 -14 -14 -19 -26 -12 -26 7 0 18 -15 26 -34 24 -58 4 -106
-45 -106 -15 0 -33 7 -40 15 -16 20 -32 15 -37 -11 -16 -81 -16 -84 19 -117
18 -18 48 -51 66 -75 19 -23 38 -40 43 -36 15 9 10 45 -12 80 -23 39 -28 86
-9 109 16 19 59 19 80 0 16 -14 18 -13 23 14 9 45 73 59 108 23 35 -35 33 -59
-9 -104 -38 -42 -39 -43 -21 -62 26 -27 25 -90 -1 -116 -23 -23 -43 -18 -82
18 l-27 24 -6 -36 c-6 -29 -3 -44 17 -74 63 -94 138 -255 138 -294 0 -17 -19
-7 -25 13 -4 12 -34 66 -67 120 -101 168 -187 272 -296 360 -96 77 -145 102
-184 94 -33 -8 -118 -74 -185 -144 -67 -71 -199 -273 -263 -406 -63 -129 -84
-209 -67 -254 23 -61 -27 -149 -86 -152 -90 -5 -129 39 -125 143 2 59 -2 71
-62 193 -68 139 -205 374 -287 492 -165 240 -405 445 -519 445 -74 0 -197 -77
-319 -199 -164 -165 -321 -398 -471 -700 -86 -173 -93 -193 -81 -247 15 -70
-69 -146 -136 -124 -41 14 -62 33 -77 69 -16 37 -6 91 24 126 l22 28 0 461 -1
462 -265 272 c-146 150 -282 290 -302 311 -21 21 -42 39 -49 39 -6 0 -30 -19
-53 -42z m4544 -1987 c168 -56 247 -120 329 -262 78 -135 98 -306 49 -423 -28
-68 -39 -80 -60 -64 -21 17 -142 167 -155 193 -22 44 21 195 84 296 22 34 11
59 -24 59 -38 -1 -117 -43 -122 -65 -3 -18 7 -18 51 0 15 6 14 -1 -7 -38 -14
-24 -34 -80 -45 -123 -11 -43 -26 -84 -33 -91 -8 -8 -50 -13 -117 -14 -92 -1
-184 -16 -270 -43 -20 -7 -18 -3 10 16 19 13 41 36 48 51 11 23 10 32 -7 65
-16 32 -27 41 -56 46 -43 8 -47 36 -9 56 24 13 25 18 20 63 -6 48 7 121 26
144 7 9 14 9 29 0 14 -9 21 -9 31 1 17 17 -18 52 -52 52 -49 0 -77 -51 -91
-168 -9 -81 -28 -113 -92 -156 -34 -24 -41 -25 -70 -13 -18 7 -36 12 -42 12
-36 -3 -96 -18 -127 -32 -59 -25 -51 -48 29 -84 77 -34 179 -105 216 -148 14
-17 30 -47 37 -68 19 -64 42 -113 51 -108 4 3 3 19 -1 37 -11 37 16 110 48
127 50 27 146 5 176 -41 8 -12 18 -36 22 -53 12 -50 40 -98 83 -140 23 -21 41
-48 41 -60 0 -27 -85 -193 -115 -223 -7 -8 -29 -15 -49 -17 -38 -4 -56 8 -78
48 -6 12 -28 45 -49 72 -26 36 -39 64 -44 102 -5 40 -10 50 -21 46 -8 -3 -25
3 -37 14 -26 24 -57 36 -57 23 0 -5 14 -35 30 -65 l30 -55 -22 -9 c-13 -5 -52
-19 -88 -31 -94 -34 -94 -32 -59 -100 42 -83 45 -120 13 -191 -14 -32 -34 -65
-44 -74 -17 -15 -20 -15 -43 0 -14 9 -28 12 -31 7 -7 -12 41 -65 53 -57 5 3
11 -7 13 -22 2 -19 10 -29 23 -31 28 -5 90 -75 130 -146 39 -70 50 -127 47
-246 -1 -81 0 -88 33 -141 65 -105 58 -170 -28 -252 -48 -46 -51 -47 -83 -37
-18 6 -52 12 -76 12 -35 0 -48 6 -73 34 -32 35 -78 46 -88 21 -3 -7 1 -31 9
-52 l13 -40 -27 32 c-15 18 -36 44 -47 58 -11 15 -35 30 -55 34 l-35 7 47 46
c25 26 65 56 89 68 54 28 67 41 81 82 6 18 24 53 40 78 32 52 50 126 28 118
-7 -2 -19 -21 -26 -41 -7 -21 -23 -51 -34 -67 -11 -16 -27 -46 -34 -66 -10
-32 -25 -44 -96 -84 -83 -48 -119 -81 -120 -111 0 -17 -67 -89 -84 -90 -6 0
-21 -2 -34 -3 -25 -3 -57 16 -72 43 -7 14 -4 25 11 45 12 15 22 34 23 44 2 13
16 19 55 23 63 8 77 19 106 84 13 27 38 66 55 85 48 52 62 76 59 102 -4 30 8
64 39 111 30 45 25 55 -12 26 -36 -28 -56 -70 -56 -118 0 -35 -7 -49 -51 -97
-28 -31 -59 -75 -68 -98 -24 -54 -37 -63 -90 -63 -34 0 -49 -5 -63 -23 -10
-13 -17 -29 -14 -36 3 -7 -2 -18 -10 -24 -8 -7 -14 -21 -14 -32 0 -13 -6 -18
-16 -16 -25 5 -35 41 -19 72 12 23 12 28 0 33 -8 3 -15 13 -15 24 0 13 12 21
43 29 62 17 86 36 108 88 11 26 38 63 60 82 39 35 40 36 42 113 3 86 21 121
73 146 60 29 114 99 114 150 0 43 -29 34 -46 -15 -7 -21 -22 -46 -33 -55 -60
-49 -193 35 -176 112 6 28 -7 41 -20 19 -10 -16 -57 -12 -87 8 -95 63 -164
258 -129 365 l12 36 60 -29 c34 -16 63 -31 66 -34 3 -2 0 -20 -7 -40 -6 -19
-11 -58 -12 -87 0 -43 4 -57 22 -71 36 -29 75 -23 121 20 23 20 44 36 45 35 2
-2 4 0 4 5 -1 12 -43 2 -76 -19 -38 -23 -60 -24 -68 -3 -11 29 -6 59 19 112
14 30 25 56 25 58 0 3 -38 22 -84 43 -46 22 -87 44 -90 50 -11 18 61 131 83
131 5 0 38 -38 75 -86 58 -73 70 -84 89 -78 90 29 249 22 278 -12 6 -8 15 -14
20 -14 11 0 107 142 125 185 13 33 13 34 -22 64 -36 32 -148 88 -196 98 -16 3
-31 15 -37 32 -14 33 -32 131 -27 140 2 3 5 31 7 61 8 156 99 315 243 424 67
51 116 74 196 94 109 27 216 21 330 -17z m-3757 -147 c10 -13 24 -41 31 -62
11 -31 20 -39 55 -51 l42 -13 -24 -27 c-14 -14 -30 -36 -36 -49 -32 -60 -3
-126 53 -120 33 3 61 47 69 108 8 58 16 68 73 90 85 31 102 26 65 -22 -43 -55
-84 -152 -85 -201 -1 -46 -2 -48 -25 -42 -99 25 -263 4 -364 -46 -33 -16 -61
-28 -61 -27 -1 2 -8 17 -16 33 -8 17 -54 70 -101 118 -87 88 -87 88 -62 100
22 10 34 6 95 -27 52 -29 77 -37 99 -32 34 7 43 -4 24 -30 -31 -40 -13 -80 39
-90 86 -15 112 94 40 170 -35 37 -36 61 -4 71 10 3 17 14 16 28 -2 29 10 95
23 129 12 31 27 29 54 -8z m4637 -31 c21 -27 22 -39 4 -102 -7 -23 -5 -23 28
-17 42 8 68 -11 68 -50 0 -17 -12 -31 -42 -50 -24 -15 -46 -32 -51 -38 -13
-19 -6 -425 9 -521 19 -124 20 -126 54 -165 39 -45 41 -100 5 -135 -13 -14
-33 -25 -44 -25 -33 0 -34 -18 -2 -34 39 -21 72 -68 78 -114 3 -20 -4 -107
-16 -192 -11 -85 -23 -180 -26 -210 -3 -30 -7 -66 -10 -80 -2 -14 -6 -50 -9
-80 -8 -84 -15 -159 -21 -225 -3 -33 -8 -80 -10 -105 -23 -241 -23 -665 0
-790 3 -14 7 -41 10 -60 4 -29 10 -59 20 -100 1 -3 5 -28 9 -57 6 -39 16 -60
42 -87 24 -25 34 -44 34 -66 0 -36 -23 -85 -44 -93 -15 -6 -339 -8 -1062 -9
-306 0 -366 3 -391 16 -51 26 -69 66 -64 139 1 12 16 24 41 34 47 19 48 35 1
41 -27 3 -39 -3 -72 -36 -34 -35 -39 -45 -39 -87 0 -53 20 -102 55 -135 l24
-23 -5 -271 c-3 -149 -7 -281 -10 -293 -2 -14 -12 -23 -22 -23 -30 0 -61 -43
-68 -92 -7 -53 4 -80 47 -105 30 -18 30 -19 24 -83 -3 -36 -8 -76 -10 -90 -3
-14 -7 -41 -10 -60 -34 -217 -78 -389 -115 -448 -18 -29 -24 -33 -53 -28 -40
6 -107 34 -107 44 0 4 4 23 9 42 5 19 12 48 15 63 4 17 16 31 32 38 21 8 24
12 14 24 -6 8 -9 18 -7 22 7 11 11 44 47 333 11 91 23 208 26 260 3 52 7 110
9 130 2 19 7 116 10 215 9 282 14 375 20 385 3 5 1 19 -6 31 -9 18 -13 19 -19
8 -19 -35 -38 -215 -44 -429 -3 -93 -6 -141 -21 -295 -4 -43 -15 -130 -20
-156 -2 -9 -6 -52 -9 -95 -16 -198 -42 -304 -89 -351 -17 -18 -28 -34 -24 -34
4 -1 12 -3 17 -4 6 -1 19 -3 30 -4 27 -1 25 -19 -2 -30 -53 -20 -195 -92 -213
-108 -12 -10 -40 -43 -63 -75 -61 -80 -76 -83 -187 -42 -88 33 -168 92 -206
152 -35 56 -36 76 -5 150 35 82 46 172 31 241 -4 20 -3 31 4 31 16 0 50 -59
57 -97 3 -18 23 -52 44 -75 l37 -42 -38 -28 c-30 -21 -39 -35 -39 -57 0 -60
86 -87 133 -43 43 41 54 130 22 182 -10 16 15 31 39 24 13 -4 27 4 48 30 27
33 90 68 146 83 22 5 23 4 13 -14 -12 -23 -6 -33 20 -33 35 0 40 65 6 81 -18
8 -36 6 -83 -11 -81 -30 -89 -30 -88 0 8 151 19 281 29 340 2 14 7 45 11 70 3
24 8 48 11 53 12 19 3 149 -16 230 -34 142 -29 162 70 302 64 91 83 125 97
177 14 52 -2 56 -31 8 l-24 -40 -27 53 c-27 54 -29 83 -7 140 12 31 82 107
118 129 27 16 31 16 73 -3 25 -11 40 -23 34 -27 -22 -16 -55 -67 -64 -103 -17
-61 -21 -129 -25 -364 -3 -202 -7 -281 -20 -405 -3 -25 -7 -97 -9 -160 -3 -63
-7 -122 -11 -130 -9 -25 -12 -89 -4 -101 18 -30 40 39 53 166 3 22 8 65 11 96
4 31 8 98 10 150 1 52 5 119 9 149 4 30 8 156 10 280 3 200 5 232 25 290 34
102 42 110 104 108 78 -3 131 43 124 107 -3 28 40 47 201 89 113 31 164 45
252 72 12 4 12 7 1 13 -12 8 -104 -6 -187 -28 -39 -10 -66 -15 -140 -26 -22
-3 -56 -10 -75 -15 -47 -14 -49 -13 -36 14 12 25 143 112 220 146 25 11 66 24
91 29 65 12 108 -14 259 -155 52 -49 76 -64 98 -64 37 0 37 15 0 34 -16 9 -40
35 -55 59 -14 25 -53 69 -87 100 -34 30 -59 60 -55 66 4 6 46 10 109 9 148 -1
206 19 313 108 113 95 209 260 243 419 15 65 18 102 12 108 -16 16 -37 -8 -39
-46 -5 -73 -96 -291 -145 -347 -32 -36 -165 -123 -217 -142 -92 -33 -277 -56
-322 -39 -19 7 -18 9 15 24 40 19 133 90 159 122 70 84 110 249 123 507 7 147
15 215 36 307 11 46 18 86 15 88 -2 2 -13 -7 -24 -22 -12 -15 -26 -60 -36
-113 -15 -85 -18 -120 -32 -307 -8 -114 -32 -190 -92 -297 -59 -106 -70 -120
-162 -197 -99 -83 -119 -93 -178 -86 -88 11 -87 11 -38 66 58 64 96 142 96
195 l0 41 58 6 c31 3 71 12 87 21 17 9 34 16 39 16 18 0 115 52 132 71 13 15
15 22 6 31 -9 9 -16 8 -29 -4 -31 -28 -42 -24 -68 22 -71 124 -125 289 -125
382 0 57 28 135 83 232 22 39 46 87 53 106 11 31 16 34 51 35 51 1 116 34 181
91 55 48 62 61 36 71 -9 3 -28 -6 -47 -25 -104 -99 -217 -123 -217 -47 0 32
32 85 51 85 6 0 1 -12 -10 -26 -22 -28 -19 -51 7 -57 23 -5 141 55 175 89 32
32 33 69 3 69 -14 0 -22 -10 -28 -32 -10 -40 -84 -85 -99 -61 -5 7 -9 17 -9
22 0 6 -12 22 -26 37 l-26 27 26 52 c14 28 33 61 41 73 8 12 15 32 15 44 0 25
16 29 40 10 34 -27 63 -82 97 -185 19 -59 42 -119 49 -134 19 -37 70 -74 122
-87 23 -7 42 -15 42 -20 0 -4 31 -49 70 -99 50 -66 74 -109 85 -150 9 -31 20
-70 25 -85 5 -15 7 -65 5 -110 -3 -45 -7 -125 -10 -177 -3 -52 -7 -105 -9
-117 -13 -64 -21 -170 -21 -268 0 -103 2 -112 27 -150 l28 -39 -28 -51 -28
-50 22 -80 c21 -72 34 -171 38 -280 4 -92 -36 -250 -76 -301 -39 -48 -120 -76
-233 -80 -92 -3 -106 -1 -168 26 l-67 28 -56 -19 c-63 -22 -295 -34 -327 -17
-10 5 -22 20 -27 34 -10 24 -36 42 -46 31 -3 -3 0 -16 7 -29 7 -12 15 -34 17
-48 7 -56 2 -55 395 -55 408 0 449 6 526 72 100 85 182 239 196 365 2 20 6 56
10 80 14 98 16 149 20 503 2 204 -1 399 -5 435 -5 36 -12 121 -15 190 -3 69
-8 132 -11 141 -2 10 -6 30 -8 45 -2 16 -7 58 -12 94 -18 147 0 223 59 250 41
19 45 42 12 60 -54 29 -62 99 -17 138 48 43 53 83 55 448 1 203 -1 235 -16
258 -10 14 -28 28 -41 32 -26 6 -49 46 -39 70 8 21 44 34 66 22 29 -15 39 1
17 29 -24 31 -26 70 -4 101 21 30 58 28 84 -5z m-6293 -43 c3 -12 21 -53 40
-93 l34 -72 -28 -22 c-15 -13 -30 -23 -33 -23 -12 0 -39 -57 -35 -76 2 -10 4
-22 4 -26 2 -17 35 -38 59 -38 41 0 70 26 82 72 l11 40 42 -5 c24 -3 74 1 115
10 103 23 112 4 20 -43 -59 -30 -139 -108 -158 -153 -14 -36 -26 -38 -54 -12
-28 25 -148 91 -178 96 -118 24 -271 -23 -340 -104 -37 -43 -68 -127 -69 -188
-2 -57 -20 -77 -113 -122 -90 -44 -146 -84 -146 -107 0 -16 25 -30 88 -50 57
-18 127 -96 173 -194 17 -36 46 -96 64 -135 58 -121 197 -350 265 -435 20 -25
46 -60 59 -78 l23 -32 -22 -65 c-31 -92 -42 -102 -135 -121 -96 -20 -289 -26
-364 -13 -68 13 -111 44 -111 80 0 40 -38 155 -76 232 l-35 68 58 85 c56 82
59 84 91 79 27 -5 32 -3 32 15 0 31 -40 25 -93 -15 -25 -19 -50 -43 -55 -52
-6 -9 -84 -92 -176 -183 -193 -194 -185 -175 -135 -341 17 -57 33 -113 35
-124 1 -11 7 -45 13 -75 5 -30 12 -75 15 -100 3 -25 10 -61 16 -80 9 -33 8
-37 -26 -65 l-36 -30 79 -1 c82 -1 202 -36 211 -62 4 -12 -46 -10 -88 3 -10 3
-25 -2 -34 -11 -15 -14 -14 -19 16 -57 18 -23 51 -62 75 -87 48 -51 41 -66
-24 -55 -41 6 -55 15 -98 64 -50 56 -70 75 -118 108 -88 61 -127 148 -202 447
-55 220 -75 369 -55 420 5 14 48 66 94 114 46 48 108 112 137 142 174 180 400
320 510 316 27 -1 49 2 49 5 0 13 -61 31 -107 32 -56 0 -98 -19 -227 -107
-103 -70 -462 -424 -484 -478 -27 -65 -27 -166 1 -263 24 -85 30 -120 42 -225
13 -105 16 -119 102 -385 9 -27 29 -77 45 -110 38 -81 36 -140 -6 -180 -27
-26 -84 -65 -95 -65 -7 0 -36 -15 -65 -34 -87 -55 -116 -139 -91 -260 27 -128
94 -198 203 -211 52 -6 80 -12 133 -26 111 -29 45 -184 -177 -420 -91 -96
-108 -136 -108 -249 0 -118 75 -244 180 -306 40 -24 123 -43 209 -49 22 -2 45
-3 51 -4 8 -1 9 -12 5 -33 -7 -33 -7 -33 -64 -31 -58 1 -162 31 -229 64 -47
24 -108 77 -108 94 0 7 -9 24 -21 39 -49 63 -73 245 -49 376 4 25 11 62 14 84
4 21 9 42 12 47 3 5 7 17 8 26 20 108 27 172 24 234 -3 82 1 87 68 74 74 -13
81 -104 18 -249 -29 -68 -31 -76 -13 -60 12 10 33 37 47 59 71 111 75 223 10
264 -34 21 -119 25 -179 8 -49 -15 -105 -22 -136 -18 -18 2 -53 69 -53 102 0
17 16 94 35 172 55 226 63 299 59 587 -1 140 -5 296 -8 345 -3 50 -8 179 -11
288 -10 301 13 366 156 441 29 15 65 38 78 50 25 23 58 90 85 173 32 98 76
142 244 248 101 63 110 71 93 88 -20 20 -13 76 14 103 17 17 24 32 20 44 -15
47 60 120 167 161 82 31 91 41 99 109 4 33 19 84 33 113 29 61 107 144 141
153 13 3 26 13 29 21 13 34 -19 184 -55 255 -25 50 -24 67 4 64 32 -4 62 -25
82 -59 10 -17 33 -47 52 -68 l34 -37 -21 -35 c-36 -60 -7 -107 65 -107 28 0
65 35 65 62 0 10 -9 37 -20 59 l-21 40 23 32 c88 126 114 149 125 107z m2998
-212 c4 -24 20 -74 37 -111 16 -37 27 -76 24 -85 -3 -9 -8 -42 -11 -72 -4 -30
-13 -66 -22 -80 -17 -26 -134 -140 -144 -140 -10 0 -31 57 -32 87 -1 16 5 52
12 81 15 62 10 90 -25 131 -14 17 -24 31 -22 32 33 7 45 3 76 -27 19 -19 36
-34 36 -34 1 0 -1 22 -2 50 -4 49 -3 50 23 50 26 0 27 2 20 38 -4 20 -9 47
-11 60 -5 24 11 62 25 62 5 0 12 -19 16 -42z m2001 -12 c3 -8 20 -17 39 -20
33 -7 46 -21 38 -43 -6 -17 -18 -16 -38 3 -15 15 -18 15 -32 2 -20 -21 -2 -55
32 -64 29 -7 33 -23 8 -25 -61 -5 -88 2 -146 39 -34 23 -84 51 -112 62 -45 20
-48 23 -28 31 29 11 77 5 128 -15 40 -15 40 -15 65 14 28 32 38 36 46 16z
m458 -131 c60 -9 118 -58 213 -180 17 -22 52 -62 77 -89 49 -54 54 -69 45
-135 -8 -55 4 -99 42 -159 27 -43 29 -53 29 -143 0 -107 -3 -112 -60 -97 -102
26 -162 85 -175 173 -7 48 -30 122 -57 187 -17 39 -30 54 -77 80 -83 47 -144
113 -161 172 -18 66 -51 101 -116 125 -70 27 -108 26 -152 -1 -22 -14 -33 -17
-30 -8 10 32 103 59 278 83 29 3 87 0 144 -8z m-3562 -24 c26 -2 72 -77 106
-176 28 -80 38 -96 86 -140 39 -35 54 -56 51 -70 -2 -11 -4 -23 -4 -26 -1 -4
-26 -28 -56 -53 -53 -46 -55 -47 -83 -32 -16 8 -32 13 -35 9 -3 -3 -17 -3 -30
1 -26 6 -47 42 -48 84 l0 27 -11 -25 c-6 -14 -19 -42 -30 -63 -21 -43 -23 -88
-6 -105 25 -25 -82 -88 -134 -78 -66 12 -108 30 -108 47 0 10 4 20 8 23 5 3 7
19 4 36 -3 24 -9 30 -28 30 -28 0 -108 35 -124 54 -7 10 -3 29 15 70 29 66 31
96 9 178 -8 33 -14 77 -12 97 3 31 10 39 48 60 88 49 205 65 382 52z m-1861
-87 c41 -24 46 -49 23 -110 l-17 -45 -48 6 c-51 7 -75 -8 -46 -30 10 -7 17
-17 17 -24 0 -6 9 -11 20 -11 19 0 21 -5 19 -51 -2 -35 -10 -61 -26 -83 -12
-17 -35 -50 -50 -73 -34 -52 -60 -65 -106 -52 -43 12 -84 52 -108 104 -22 49
-25 19 -4 -33 22 -52 81 -102 123 -102 30 0 32 -2 26 -27 -9 -37 -6 -35 -71
-40 -52 -4 -66 0 -133 34 -86 44 -102 72 -53 95 49 23 77 96 83 218 5 92 9
110 33 148 16 24 49 57 75 73 44 29 52 30 128 27 57 -3 91 -10 115 -24z m4758
-134 c44 -23 82 -47 84 -54 6 -16 -69 -145 -89 -153 -8 -3 -20 -1 -27 5 -33
26 -180 37 -239 16 l-37 -13 -56 76 c-30 41 -55 79 -55 83 0 12 96 59 151 74
30 7 84 12 121 10 56 -2 81 -10 147 -44z m-4430 -26 c2 -2 -6 -4 -18 -4 -45 0
-101 -50 -101 -90 0 -21 45 -50 77 -50 38 0 57 26 30 42 -32 18 -14 68 25 68
28 0 59 -37 55 -65 -1 -14 -12 -33 -24 -44 -16 -15 -20 -32 -21 -77 -1 -72 20
-115 88 -183 27 -28 51 -56 52 -63 6 -50 3 -470 -3 -474 -4 -2 -22 8 -39 23
l-31 28 -1 150 c0 83 1 159 3 170 3 14 -2 21 -16 23 -20 3 -20 -2 -16 -193 3
-184 2 -197 -18 -231 -20 -33 -22 -50 -20 -177 1 -119 4 -148 20 -180 11 -21
27 -41 35 -44 9 -3 20 -17 25 -30 7 -19 15 -24 35 -21 40 5 53 32 29 59 -11
12 -14 19 -8 15 7 -4 23 -9 35 -11 21 -4 38 -21 38 -38 0 -5 -13 -21 -28 -37
-45 -45 -115 -60 -274 -60 l-139 0 5 -32 c12 -74 25 -191 41 -388 10 -109 18
-200 29 -300 3 -25 8 -81 12 -124 3 -44 7 -87 9 -97 2 -10 7 -80 10 -156 4
-76 9 -154 11 -173 2 -19 6 -215 9 -435 6 -430 4 -459 -44 -549 -53 -100 -197
-213 -299 -235 -60 -12 -72 -9 -72 20 0 35 17 55 50 57 74 6 195 99 269 205
85 124 75 212 -42 368 -73 98 -90 135 -91 191 -1 49 16 73 75 104 68 35 108
123 89 194 -16 60 -53 95 -130 127 -86 35 -101 60 -77 126 45 121 51 164 51
417 1 219 -8 452 -18 469 -2 3 -6 31 -10 61 -7 62 -16 134 -21 167 -2 12 6 37
19 55 18 28 31 35 86 46 74 14 155 64 183 111 25 43 24 227 -2 279 -15 31 -19
63 -20 192 -1 85 -6 159 -12 164 -10 11 -10 17 -12 -152 l-2 -124 -34 -30
c-23 -20 -36 -26 -41 -19 -4 7 -6 113 -5 235 1 196 4 227 19 251 16 24 21 26
54 19 92 -20 217 0 192 31 -7 8 -23 10 -51 5 -45 -8 -51 -8 -89 4 -37 13 -40
25 -18 62 23 38 40 104 28 104 -4 0 -13 -14 -19 -32 -12 -34 -60 -102 -68 -95
-2 3 10 24 26 48 17 24 33 60 36 81 5 31 2 41 -25 68 -16 17 -31 36 -31 43 -1
7 -3 23 -4 37 -6 59 58 116 115 103 14 -3 27 -7 29 -9z m2468 -45 c13 -68 44
-111 77 -106 37 5 45 16 41 58 -5 49 6 75 16 39 11 -38 10 -99 -1 -120 -6 -11
-41 -35 -78 -55 -90 -47 -161 -111 -196 -176 -16 -30 -49 -75 -73 -101 -32
-33 -48 -58 -53 -88 -4 -23 -6 -141 -5 -263 4 -246 -6 -319 -53 -416 -84 -171
-276 -268 -351 -177 -11 13 -9 16 16 21 141 31 246 136 303 305 27 81 32 160
35 515 2 258 6 331 19 378 22 78 40 111 75 136 39 28 193 111 206 111 6 0 16
-28 22 -61z m-341 -156 c-17 -55 -22 -146 -21 -388 4 -503 -35 -643 -210 -759
-49 -32 -65 -34 -38 -3 50 54 103 170 103 223 0 12 6 24 13 27 6 2 8 8 4 13
-16 17 -42 -15 -67 -84 -14 -39 -36 -85 -50 -102 -32 -41 -98 -76 -114 -60 -7
7 -12 61 -13 142 -2 72 -5 133 -7 135 -2 3 -10 -6 -17 -19 -19 -35 -21 -193
-3 -268 13 -60 88 -262 105 -285 9 -13 67 -229 74 -280 3 -22 10 -62 15 -90
11 -59 17 -118 25 -235 3 -47 8 -101 10 -120 2 -19 7 -75 10 -125 3 -49 8
-110 10 -135 2 -25 7 -76 10 -115 6 -78 13 -145 20 -190 13 -88 22 -284 27
-585 2 -97 -8 -250 -17 -258 -3 -3 -30 -6 -60 -7 -72 -2 -99 -24 -91 -76 l6
-37 -36 8 c-19 5 -40 7 -47 6 -53 -10 -74 -31 -97 -100 -7 -21 -28 -56 -47
-77 l-35 -39 -35 30 c-43 38 -61 38 -116 -4 -24 -19 -49 -31 -55 -27 -9 5 3
93 32 246 27 137 28 727 2 861 -2 12 -7 45 -11 75 -17 146 -55 339 -67 339
-12 0 -10 -64 6 -160 25 -146 30 -255 31 -595 0 -403 -6 -498 -41 -618 l-27
-93 -62 -42 c-70 -46 -92 -51 -124 -24 -20 16 -21 19 -7 47 14 29 19 62 31
190 3 33 8 78 10 100 18 159 27 656 13 762 -3 29 -9 85 -13 125 -4 40 -9 85
-10 99 -2 15 -7 55 -10 90 -3 35 -8 75 -10 89 -2 14 -7 59 -10 100 -3 41 -8
82 -10 90 -5 20 -16 146 -20 225 -5 107 -30 116 -35 13 -5 -110 -4 -128 15
-303 2 -16 7 -82 10 -145 7 -127 9 -143 21 -245 5 -38 9 -205 9 -370 0 -267
-3 -350 -20 -540 -13 -157 -18 -221 -17 -227 1 -3 -5 -11 -12 -17 -10 -8 -24
-7 -56 4 -65 23 -77 20 -101 -27 -18 -34 -20 -50 -14 -97 19 -141 15 -151 -57
-156 -133 -9 -186 -32 -262 -117 l-47 -53 -97 -1 c-99 -1 -162 9 -162 26 0 12
60 43 115 60 71 22 121 58 177 127 31 37 80 94 111 126 50 53 54 60 51 99 -5
61 -10 70 -41 67 -16 -1 -39 1 -52 5 -27 9 -26 20 4 166 5 25 10 61 19 155 9
80 9 177 1 581 l-8 382 31 73 c41 100 109 308 167 516 40 142 53 174 70 179
25 8 65 44 65 59 0 7 -9 24 -20 38 -16 20 -18 30 -10 53 29 89 45 413 26 526
-8 46 -8 46 28 63 20 10 36 21 36 25 0 4 -12 20 -26 35 -37 41 -56 90 -57 153
0 49 3 55 36 83 31 26 37 37 37 70 0 98 -134 143 -187 62 -14 -21 -14 -31 -3
-78 12 -48 11 -60 -5 -102 -17 -45 -79 -116 -134 -153 l-23 -16 36 -43 c20
-23 36 -50 37 -59 1 -22 -2 -91 -6 -122 -2 -14 -4 -29 -4 -33 -1 -5 -5 -6 -11
-2 -16 10 -77 -22 -95 -49 -21 -32 -15 -88 15 -128 15 -20 19 -37 15 -60 -10
-57 -15 -66 -66 -112 -29 -26 -47 -50 -44 -58 12 -32 68 -53 142 -53 73 -1
100 -9 69 -21 -9 -3 -16 -11 -16 -16 0 -7 19 -8 53 -3 125 18 157 3 60 -27
-32 -10 -75 -32 -96 -49 -27 -22 -43 -28 -59 -23 -12 3 -43 8 -70 9 -27 2 -54
8 -61 13 -7 6 -23 37 -36 69 -37 95 -43 103 -68 103 -27 0 -27 -6 -7 70 11 42
14 83 10 124 -19 204 -19 213 3 256 11 22 21 45 21 51 0 18 55 148 120 283 34
71 66 139 71 150 22 52 87 159 122 200 39 47 35 46 215 94 l74 20 41 -24 c61
-35 125 -32 251 11 57 19 111 35 119 35 65 0 -24 -116 -112 -146 -43 -15 -114
-3 -143 23 -15 13 -23 14 -43 5 -44 -20 -30 -42 42 -65 65 -21 109 -21 170 -1
135 44 230 167 173 224 -25 25 -48 22 -189 -27 -57 -19 -124 -37 -149 -38 -48
-4 -117 22 -146 54 -14 15 -14 19 -1 39 l15 21 68 -31 c96 -45 172 -45 263 0
93 45 114 43 167 -19 l44 -50 70 2 c42 1 83 9 103 19 24 12 37 14 44 7 23 -23
11 -63 -41 -129 -16 -20 -25 -39 -20 -42 11 -7 75 53 89 84 20 43 21 54 7 88
-18 44 -9 80 34 138 69 90 196 174 178 117z m2558 -136 c0 -80 -4 -100 -28
-149 -32 -66 -96 -143 -125 -151 -10 -2 -25 -1 -32 4 -11 7 -7 21 20 70 47 85
53 165 17 231 -15 28 -21 50 -15 53 31 20 145 51 154 43 6 -5 10 -50 9 -101z
m-5547 1 c38 -33 210 -117 248 -121 26 -2 62 4 102 19 53 19 62 20 67 7 30
-77 -52 -104 -190 -62 -109 33 -188 73 -238 119 -25 24 -46 46 -46 51 0 13 37
5 57 -13z m4123 -123 c21 -25 20 -78 -1 -101 -20 -21 -20 -21 26 -77 49 -61
52 -67 31 -67 -8 0 -26 -14 -41 -32 -43 -52 -25 -89 65 -129 58 -26 64 -38 34
-67 -22 -23 -24 -42 -3 -42 5 0 19 11 31 25 26 31 44 19 54 -34 9 -46 28 -84
59 -115 34 -34 31 -51 -7 -62 -28 -8 -34 -15 -36 -44 -2 -19 -8 -41 -14 -47
-17 -21 -89 -15 -133 10 -39 22 -40 24 -40 81 0 71 -17 86 -74 64 -45 -18 -61
-13 -61 18 0 31 -18 66 -29 59 -13 -7 -7 -123 6 -136 9 -9 23 -8 58 6 25 9 48
15 51 13 2 -3 1 -32 -2 -66 -5 -45 -11 -62 -22 -62 -8 0 -55 16 -104 36 -61
24 -93 33 -100 26 -14 -14 -2 -29 42 -52 57 -29 136 -133 174 -229 30 -76 16
-299 -18 -288 -13 4 -36 48 -42 82 -6 34 -111 252 -147 305 -40 59 -83 103
-96 99 -5 -2 17 -43 48 -92 73 -108 147 -274 167 -368 13 -65 13 -75 -2 -116
-13 -35 -14 -46 -5 -56 10 -9 18 -6 36 16 13 15 29 27 35 27 5 0 47 -24 93
-53 118 -76 173 -100 240 -105 46 -4 54 -7 42 -16 -24 -18 -76 -156 -81 -217
-4 -44 -1 -64 16 -97 12 -22 27 -43 35 -46 28 -10 99 70 88 100 -2 6 3 14 12
18 40 15 30 -87 -11 -121 -57 -45 -112 -28 -160 49 -55 91 -164 166 -376 260
-62 28 -119 55 -126 61 -19 15 -39 57 -45 92 -7 47 -93 250 -130 308 -35 54
-67 91 -73 84 -2 -2 18 -53 45 -113 52 -117 79 -192 107 -292 9 -35 30 -83 46
-107 16 -25 27 -49 24 -54 -11 -18 -92 -59 -128 -66 -31 -6 -41 -3 -60 17 -13
13 -28 33 -34 44 -10 16 -13 17 -28 5 -22 -18 -21 -20 17 -62 86 -96 179 -87
252 25 16 24 22 27 54 21 20 -4 38 -8 40 -11 7 -7 -32 -59 -76 -101 -57 -54
-124 -86 -193 -91 -45 -3 -61 0 -90 20 -81 55 -104 166 -54 265 l27 52 -36 88
c-45 112 -48 128 -54 306 -7 195 9 260 76 318 25 21 50 39 55 39 5 0 50 20
101 45 96 47 141 89 114 106 -8 5 -19 9 -26 9 -21 0 -24 19 -8 44 33 51 -4
124 -85 166 -60 32 -97 94 -84 146 23 95 98 190 182 231 50 24 69 28 150 28
72 0 95 -3 102 -15 13 -20 -19 -47 -66 -56 -51 -9 -43 -28 9 -20 54 8 87 33
112 84 22 46 27 49 45 27z m-3998 -30 c128 -61 244 -74 288 -33 25 23 46 18
105 -28 53 -40 69 -85 71 -199 2 -88 11 -210 19 -255 9 -45 19 -137 17 -151
-2 -9 2 -29 8 -44 l11 -29 -23 19 c-51 42 -108 111 -108 132 0 12 7 43 16 68
19 58 17 157 -7 248 -23 91 -33 97 -24 17 11 -97 7 -178 -13 -242 l-18 -57
-25 22 c-14 12 -36 38 -49 57 -14 19 -32 44 -42 55 -60 72 -136 171 -181 240
-56 83 -131 215 -124 215 3 0 38 -16 79 -35z m117 -315 c77 -95 68 -83 126
-165 27 -38 63 -86 80 -105 63 -73 142 -156 188 -199 46 -43 48 -45 27 -53
-26 -10 -67 20 -150 109 -134 144 -207 246 -343 483 -26 46 -6 26 72 -70z
m1597 51 c16 -32 8 -48 -24 -49 -40 0 -54 15 -40 42 7 11 11 25 10 29 -6 20
44 0 54 -22z m2394 -59 c6 -14 8 -27 6 -30 -10 -9 -65 20 -80 43 -15 22 -14
24 7 27 29 5 53 -10 67 -40z m-2469 -124 c1 -71 6 -95 31 -147 l22 -45 -25
-15 c-59 -39 -108 -122 -117 -199 -4 -40 -3 -43 26 -53 40 -14 50 -50 22 -89
-11 -16 -34 -31 -50 -35 -39 -9 -46 -24 -49 -113 -2 -53 2 -79 13 -97 16 -24
16 -24 -32 -31 -26 -3 -56 -8 -67 -10 -22 -4 -85 14 -85 24 0 3 20 24 45 46
45 41 51 56 62 149 4 30 2 47 -5 47 -32 0 -56 73 -34 107 11 18 57 32 81 26
12 -3 22 0 22 6 1 6 2 14 4 19 5 21 15 82 18 119 3 32 -2 53 -23 90 l-27 47
43 34 c32 23 53 52 76 102 18 38 36 70 41 70 4 0 7 -24 8 -52z m-2180 -248
c10 -33 9 -43 -5 -65 -21 -32 -40 -32 -55 1 -9 21 -8 33 9 70 22 52 34 50 51
-6z m2208 -78 c2 -26 4 -96 3 -156 -1 -120 -33 -293 -62 -328 -15 -20 -17 -19
-44 21 -26 36 -28 46 -23 98 4 44 11 62 27 73 59 41 81 68 82 103 1 40 -24 87
-48 87 -28 0 -6 86 34 133 23 26 27 22 31 -31z m-1275 -12 c25 -27 46 -54 46
-59 0 -5 -14 -19 -30 -31 -17 -12 -41 -42 -54 -68 l-23 -46 -18 27 c-14 22
-16 40 -12 95 6 65 25 132 38 132 3 0 27 -22 53 -50z m3612 -44 c40 -27 92
-107 109 -169 10 -35 17 -97 17 -150 0 -117 -13 -277 -22 -277 -4 0 -33 16
-65 35 -32 19 -62 36 -68 38 -8 2 -6 13 6 30 26 39 44 132 42 217 -2 84 -19
132 -86 238 l-41 65 41 -6 c23 -3 53 -12 67 -21z m-4324 -38 c59 -51 278 -70
460 -40 54 9 100 14 102 11 2 -2 2 -17 -1 -32 -8 -43 -50 -55 -225 -60 -84 -3
-154 -6 -155 -6 -8 -3 -1 -31 8 -37 7 -4 59 -9 118 -11 161 -5 188 -11 226
-45 28 -24 40 -48 64 -126 42 -134 66 -240 58 -249 -8 -7 -35 -10 -157 -17
-69 -3 -81 -1 -160 34 -101 45 -133 45 -243 1 -103 -41 -122 -40 -143 4 -17
36 -54 61 -126 84 -36 12 -36 12 -26 49 17 63 66 153 128 237 33 44 60 87 60
96 0 9 -13 30 -30 47 -36 38 -38 58 -7 90 20 21 22 22 26 6 2 -11 12 -26 23
-36z m5330 -133 c39 -64 124 -113 151 -86 9 10 7 16 -8 29 -28 23 -55 63 -55
81 0 10 14 2 38 -21 40 -38 65 -49 123 -53 40 -3 102 -29 119 -51 10 -10 2
-19 -35 -43 -53 -34 -112 -46 -207 -42 -54 2 -141 108 -172 209 -13 39 17 25
46 -23z m-5485 -57 c5 -51 4 -56 -23 -77 -27 -21 -29 -21 -41 -5 -20 27 -16
61 13 110 32 54 43 48 51 -28z m5454 -108 c-15 -14 -39 -41 -53 -60 l-25 -35
19 -45 c26 -60 34 -303 11 -326 -11 -11 -39 -14 -106 -14 -51 1 -99 0 -107 -1
-8 -1 -24 1 -36 5 -17 5 -26 -2 -49 -38 -41 -65 -80 -78 -219 -75 -61 2 -116
4 -122 6 -15 5 1 77 26 118 10 16 36 39 57 50 60 31 63 37 63 114 0 59 -3 73
-22 91 -12 11 -25 20 -29 20 -30 0 -109 117 -104 155 3 27 18 54 33 60 34 13
148 32 177 28 123 -13 188 -41 164 -69 -16 -20 -104 -43 -172 -46 -61 -3 -77
-12 -58 -31 20 -20 184 1 229 29 17 11 22 12 22 1 0 -27 -83 -127 -106 -127
-29 0 -44 -32 -44 -91 0 -53 -4 -63 -31 -94 -17 -19 -41 -35 -53 -37 -28 -4
-27 -32 1 -36 31 -5 62 15 74 45 8 21 12 23 24 13 18 -15 5 -44 -32 -73 -25
-20 -23 -37 5 -37 9 0 41 11 70 25 37 17 52 30 52 44 0 11 -4 23 -10 26 -16
10 -12 42 6 49 9 4 24 -4 38 -21 19 -22 31 -26 80 -28 47 -1 61 3 81 21 27 25
30 46 15 112 -7 29 -7 56 1 86 9 38 8 50 -9 88 -18 41 -18 47 -4 73 8 16 31
46 51 68 68 74 60 72 91 25 l28 -43 -27 -25z m111 -51 c17 -8 53 -17 81 -18
28 -1 54 -5 57 -8 3 -3 -19 -26 -48 -52 -54 -48 -61 -67 -42 -116 20 -52 16
-82 -24 -186 -13 -37 -22 -76 -19 -88 8 -29 -5 -88 -23 -106 -24 -24 -54 -18
-138 26 -65 34 -86 40 -121 36 -50 -5 -75 6 -75 33 0 25 36 46 54 31 10 -8
108 -9 179 -2 16 2 24 47 14 86 -5 22 -9 83 -8 135 1 64 -4 107 -15 136 -15
39 -15 44 2 70 33 51 54 65 76 51 11 -7 34 -19 50 -28z m-5122 -258 c19 -10
67 -26 106 -36 60 -15 85 -17 153 -9 188 22 132 -48 -140 -179 -104 -49 -165
-68 -202 -62 -75 13 -202 98 -299 199 -78 82 -76 92 15 59 45 -16 52 -16 113
0 36 9 80 23 97 31 63 28 97 27 157 -3z m-190 -298 c74 -51 128 -51 257 2 50
21 97 35 105 33 17 -7 145 -361 154 -425 3 -26 22 -97 42 -158 44 -138 45
-180 4 -270 -33 -73 -38 -93 -48 -190 -5 -55 -19 -139 -74 -445 -30 -168 -16
-453 25 -515 62 -92 244 -214 383 -255 43 -14 52 -24 28 -33 -14 -6 -134 -1
-186 7 -183 28 -226 27 -325 -8 -66 -23 -85 -26 -108 -17 -30 12 -59 65 -53
97 9 52 17 91 21 114 18 91 25 260 14 340 -4 25 -9 68 -13 96 -3 28 -12 67
-21 86 -30 74 -47 190 -42 288 6 107 23 184 65 286 41 100 57 190 43 254 -19
90 -39 120 -172 257 -149 154 -207 245 -214 331 -3 43 -19 72 -37 72 -6 0 -7
-11 -3 -27 4 -16 9 -48 12 -73 3 -25 15 -67 27 -95 21 -47 111 -167 182 -245
85 -92 104 -134 100 -222 -2 -46 -11 -82 -35 -133 -129 -278 -221 -580 -244
-800 -3 -22 -10 -85 -17 -141 -8 -60 -9 -107 -4 -116 5 -9 46 -57 92 -106 77
-84 87 -92 137 -103 64 -14 76 -25 64 -56 -13 -36 -61 -34 -209 9 -68 20 -131
31 -180 33 -103 2 -107 3 -124 21 -21 21 -20 52 4 106 22 50 67 266 73 349 2
29 0 90 -4 134 -7 77 -9 97 -28 212 -17 111 -2 168 99 358 65 121 80 177 68
240 -30 152 -65 407 -74 545 -3 47 -11 110 -18 140 -20 95 -17 105 29 108 22
2 44 7 49 12 5 5 29 -6 55 -25 25 -19 71 -51 101 -72z m4170 37 c65 -33 83
-56 75 -97 -2 -16 -7 -53 -11 -83 -9 -81 -74 -271 -133 -387 -28 -57 -51 -108
-51 -114 0 -5 10 -9 22 -7 25 3 79 89 149 235 22 45 43 84 48 87 4 3 9 -18 10
-47 2 -29 4 -72 5 -97 4 -65 -32 -263 -65 -359 -16 -46 -26 -87 -23 -92 11
-19 32 -8 44 24 7 17 28 64 46 103 18 39 38 90 45 115 20 69 24 72 79 44 27
-13 83 -34 126 -45 92 -25 99 -30 115 -77 22 -67 5 -163 -67 -383 -37 -113
-69 -221 -71 -240 -3 -19 -6 -36 -8 -38 -1 -2 -18 6 -37 18 -29 17 -37 18 -53
7 -17 -13 -17 -15 1 -41 13 -21 19 -51 21 -112 2 -88 -6 -122 -53 -223 -17
-36 -24 -63 -20 -82 4 -24 0 -31 -25 -46 -17 -10 -46 -41 -65 -70 -39 -59 -62
-67 -116 -41 -50 24 -53 33 -24 70 50 66 134 277 152 383 2 17 7 37 9 45 28
97 32 548 4 499 -4 -9 -10 -95 -13 -191 -3 -97 -9 -202 -15 -234 -6 -33 -12
-70 -15 -84 -15 -87 -52 -200 -97 -295 -45 -95 -48 -100 -119 -152 -82 -61
-136 -85 -179 -80 -41 4 -101 33 -101 47 0 6 -16 27 -35 49 -36 40 -71 109
-106 213 -42 127 -97 208 -165 246 -30 17 -5 33 46 31 65 -3 103 -23 193 -102
81 -70 121 -92 189 -102 22 -4 51 -13 63 -21 15 -10 25 -12 30 -5 14 23 -16
49 -84 70 -58 18 -81 33 -140 88 -54 50 -68 69 -60 79 8 9 18 10 35 3 29 -10
85 -12 108 -3 9 3 16 15 16 26 0 19 -4 20 -50 14 -42 -6 -53 -3 -70 14 -11 11
-20 28 -20 39 0 10 -8 29 -19 42 -10 13 -28 43 -40 67 -23 46 -23 66 -1 207
17 109 -2 174 -85 290 -46 63 -62 96 -76 155 -23 94 -19 136 25 242 47 112 51
163 20 257 -13 40 -24 90 -24 110 0 36 0 36 29 -24 42 -85 92 -119 187 -123
68 -4 76 -2 152 38 54 28 101 62 143 106 35 35 69 64 77 64 7 0 39 -13 72 -30z
m-4634 -221 c17 -66 18 -141 2 -157 -18 -18 -43 -15 -63 8 -17 19 -17 22 4 77
20 55 29 90 30 122 2 25 12 5 27 -50z m210 -399 c-1 -37 -5 -46 -26 -57 -20
-10 -29 -10 -45 1 -32 21 -30 61 7 136 l33 68 16 -51 c8 -29 15 -72 15 -97z
m7195 23 c1 -31 1 -421 0 -498 l-1 -50 -702 1 c-387 1 -706 2 -709 3 -3 0 -4
45 -2 99 5 141 11 348 12 415 l1 57 700 0 700 0 1 -27z m-7381 -312 c8 -16 19
-83 22 -131 2 -33 -6 -52 -28 -67 -26 -16 -27 -16 -45 6 -15 19 -18 33 -13 70
3 25 10 56 15 68 5 13 13 34 19 48 11 30 16 31 30 6z m7467 -294 c20 -19 20
-77 0 -92 -9 -7 -277 -10 -811 -10 -696 0 -798 2 -806 15 -16 25 -11 60 13 83
l22 22 783 -1 c704 -1 785 -2 799 -17z m-7608 -49 c22 -72 23 -98 7 -123 -19
-29 -60 -33 -74 -9 -15 27 25 164 48 164 5 0 13 -15 19 -32z m1230 -84 c26
-49 21 -86 -14 -102 -17 -8 -28 -7 -44 4 -26 18 -27 59 -5 133 17 60 10 64 63
-35z m-986 -133 c2 -56 0 -64 -17 -67 -31 -4 -56 18 -56 50 0 16 10 66 22 110
l22 81 13 -55 c8 -30 15 -84 16 -119z m7250 80 c4 -1 7 -94 7 -208 l0 -207
-42 -70 c-53 -92 -177 -274 -191 -283 -19 -12 -118 -14 -667 -15 l-545 -1 3
384 c1 211 4 389 6 394 2 7 247 9 712 8 390 0 712 -1 717 -2z m-6759 -180 c19
-50 11 -66 -26 -52 -35 13 -41 36 -22 77 19 40 24 37 48 -25z m3251 -17 c17
-8 46 -36 65 -62 19 -26 42 -55 50 -64 9 -9 30 -59 49 -110 21 -59 49 -114 77
-150 47 -62 46 -64 -37 -48 -147 28 -374 3 -544 -60 -111 -42 -185 -23 -185
46 0 47 15 50 40 8 26 -41 60 -57 93 -45 66 25 58 180 -13 286 -15 22 -42 69
-59 105 -18 35 -37 70 -43 77 -13 16 -25 14 122 18 69 2 154 10 190 17 70 15
140 9 195 -18z m-3330 -92 c17 -5 49 -8 72 -7 37 2 41 0 45 -24 7 -51 -2 -73
-25 -67 -12 2 -49 8 -82 11 -33 3 -84 10 -114 16 -30 5 -56 9 -58 9 -2 0 -3
18 -3 41 l0 40 68 -5 c37 -3 81 -9 97 -14z m2716 -43 c48 -18 63 -19 90 -10
18 6 33 10 34 9 9 -10 55 -160 55 -177 0 -25 2 -25 -43 -6 -51 21 -90 19 -113
-6 -10 -11 -41 -37 -69 -57 -65 -48 -98 -76 -154 -135 -56 -60 -79 -72 -160
-87 -70 -12 -121 -6 -121 16 0 8 3 14 8 15 51 5 70 15 95 45 16 19 44 41 61
48 35 14 63 48 102 122 13 25 40 66 59 91 19 25 40 64 46 87 12 44 26 66 42
66 5 0 36 -10 68 -21z m2623 -394 l49 -105 593 0 593 0 -20 -35 c-12 -20 -29
-41 -39 -48 -13 -9 -150 -12 -579 -11 -309 0 -563 3 -565 5 -2 2 -29 58 -61
123 -51 108 -55 122 -44 148 6 15 14 28 18 28 3 0 28 -48 55 -105z m-3546
-1028 c1 -382 -1 -607 -7 -607 -17 0 -195 67 -324 121 -109 46 -363 170 -442
216 -393 232 -701 471 -974 757 -42 43 -84 86 -93 94 -9 9 -15 18 -13 21 2 4
419 6 927 6 l923 0 3 -608z m2477 604 c7 -1 10 -177 9 -513 -1 -282 -2 -516
-3 -521 0 -4 -515 -6 -1143 -5 l-1143 3 0 500 c0 275 1 509 3 520 3 20 9 20
1135 19 623 -1 1137 -2 1142 -3z m2059 -2 c8 -8 -250 -266 -368 -367 -56 -48
-107 -93 -115 -100 -32 -31 -284 -213 -371 -269 -205 -131 -430 -252 -630
-338 -109 -47 -341 -135 -357 -135 -10 0 -13 128 -13 608 l0 607 924 0 c509 0
927 -3 930 -6z m-4039 -1171 l26 -33 28 33 c25 29 33 32 84 32 31 0 57 -2 57
-5 0 -3 -23 -34 -51 -70 l-50 -64 80 -101 c44 -56 88 -111 96 -123 14 -19 17
-20 28 -7 92 118 154 198 164 208 7 7 13 15 13 17 0 2 -25 34 -56 72 l-56 68
62 3 c55 3 64 0 79 -19 9 -13 20 -28 24 -33 5 -7 18 1 36 22 27 31 32 33 86
30 l57 -3 -52 -67 -52 -68 33 -42 c18 -24 61 -78 96 -121 l62 -78 48 58 c26
32 69 86 96 120 l47 61 -56 69 -56 68 63 3 c62 3 65 2 92 -29 l27 -33 28 33
c25 30 31 32 79 29 l52 -3 -49 -64 c-28 -35 -50 -66 -50 -70 0 -5 52 -72 170
-220 11 -14 21 -23 23 -20 2 2 43 55 93 118 49 62 88 115 88 118 -1 3 -25 33
-53 69 -28 35 -51 66 -51 69 0 3 26 5 57 5 52 0 59 -3 83 -32 l27 -33 28 33
c24 29 32 32 81 32 30 0 54 -3 54 -6 0 -3 -23 -35 -51 -70 l-50 -63 78 -98
c43 -54 87 -108 98 -121 l20 -23 22 28 23 28 1 -62 c1 -86 1 -148 -1 -180 l-1
-28 -30 34 c-17 18 -34 29 -39 25 -4 -5 -45 -55 -90 -112 -55 -70 -78 -107
-72 -115 5 -7 39 -48 75 -93 l66 -81 -29 -47 c-16 -25 -31 -46 -33 -46 -2 0
-37 43 -78 95 -41 52 -76 94 -79 94 -3 0 -39 -43 -80 -96 -41 -52 -83 -105
-92 -116 -11 -11 -15 -25 -10 -31 37 -49 138 -172 144 -174 5 -2 8 -8 8 -14 0
-12 -67 -84 -73 -78 -2 3 -36 47 -76 98 -40 50 -74 92 -76 92 -1 0 -44 -52
-94 -116 l-92 -116 38 -46 c20 -26 40 -49 43 -52 3 -3 13 -15 23 -27 18 -21
18 -21 -29 -49 -46 -27 -47 -27 -63 -8 -9 11 -30 37 -48 59 l-32 38 -20 -24
c-12 -13 -53 -66 -93 -116 -77 -98 -82 -101 -150 -83 -29 9 -54 32 -129 126
l-94 115 -33 -41 c-19 -22 -37 -40 -40 -40 -4 1 -20 11 -36 24 l-29 24 38 46
37 46 -97 120 -97 120 -50 -65 c-49 -64 -51 -65 -70 -48 -44 39 -42 50 12 119
57 72 57 69 -4 139 -15 17 -50 60 -79 97 -28 37 -54 67 -57 67 -3 0 -25 -26
-49 -59 -25 -32 -48 -57 -52 -55 -10 7 -39 71 -39 88 0 8 18 37 40 65 22 27
40 53 40 56 0 4 -34 49 -75 100 l-75 93 0 124 c0 121 7 151 40 179 3 3 21 25
40 50 19 25 38 47 42 48 16 7 7 26 -35 76 -78 94 -77 86 -9 86 56 0 62 -2 87
-32z"/>
<path d="M8610 8533 c1 -10 7 -29 14 -42 13 -24 14 -24 24 -4 9 16 7 24 -9 42
-24 26 -29 26 -29 4z"/>
<path d="M8650 8455 c0 -8 11 -17 25 -21 30 -7 30 -8 4 -45 -39 -56 -20 -133
36 -140 70 -10 107 61 79 150 -7 23 -6 24 39 17 39 -6 47 -4 56 12 5 10 7 22
3 28 -11 14 -102 16 -150 3 -32 -9 -46 -9 -55 0 -16 16 -37 14 -37 -4z m100
-125 c0 -28 -25 -43 -49 -30 -26 13 -26 18 1 47 16 17 24 20 35 12 7 -6 13
-19 13 -29z"/>
<path d="M8640 7881 c-19 -10 -40 -16 -47 -14 -9 3 -11 0 -7 -10 10 -27 43
-27 74 0 50 42 39 55 -20 24z"/>
<path d="M8453 7836 c8 -23 36 -30 55 -13 10 9 21 15 23 13 3 -3 2 -35 -1 -71
-6 -68 3 -101 23 -88 7 4 17 8 22 8 6 0 10 5 10 10 0 6 -10 9 -22 7 -21 -2
-22 0 -17 70 l6 73 -51 0 c-28 0 -50 -4 -48 -9z"/>
<path d="M8583 7653 c-17 -2 -34 -11 -37 -20 -6 -14 1 -15 50 -10 31 3 62 11
67 16 8 8 6 11 -5 11 -9 0 -22 2 -30 3 -7 2 -27 2 -45 0z"/>
<path d="M8596 7601 c-24 -5 -27 -8 -15 -18 8 -6 17 -13 20 -15 8 -4 39 22 39
33 0 10 -1 10 -44 0z"/>
<path d="M8000 7511 c-9 -19 -8 -21 14 -21 38 0 64 -34 61 -79 -3 -49 23 -86
53 -76 27 8 28 26 2 43 -15 9 -19 20 -15 40 3 17 -4 42 -18 67 -18 32 -29 41
-54 43 -24 2 -34 -2 -43 -17z"/>
<path d="M7953 7378 c-27 -13 -29 -25 -7 -49 13 -14 21 -16 36 -8 11 6 17 17
14 25 -3 8 -1 14 4 14 6 0 10 7 10 15 0 17 -25 18 -57 3z"/>
<path d="M7830 7340 c-20 -12 -1 -45 26 -45 13 0 20 -9 24 -30 6 -33 33 -41
38 -12 6 29 -17 73 -44 86 -30 13 -25 13 -44 1z"/>
<path d="M7912 7193 c-6 -2 -10 -9 -6 -14 9 -14 41 -10 48 6 5 15 -15 19 -42
8z"/>
<path d="M7935 7150 c4 -6 11 -8 16 -5 14 9 11 15 -7 15 -8 0 -12 -5 -9 -10z"/>
<path d="M7737 4046 c-3 -8 -2 -18 3 -21 13 -8 24 15 12 27 -6 6 -11 4 -15 -6z"/>
<path d="M7686 3982 c-3 -5 2 -21 10 -36 20 -41 19 -43 -34 -50 -49 -6 -77
-26 -101 -73 -28 -55 7 -113 68 -113 37 0 81 38 81 70 0 22 29 38 85 47 50 8
42 13 -21 12 -80 -2 -101 -11 -109 -49 -5 -22 -11 -30 -22 -26 -8 3 -17 6 -19
6 -2 0 -4 11 -4 23 0 37 33 60 87 61 53 1 60 11 49 72 -10 49 -53 84 -70 56z"/>
<path d="M5201 8023 c5 -21 12 -74 14 -117 3 -44 8 -83 12 -87 5 -4 24 -9 43
-11 30 -3 39 -9 60 -50 38 -69 59 -89 81 -77 27 14 25 20 -25 80 -24 30 -47
70 -51 89 -9 43 -53 141 -54 120 0 -8 6 -39 13 -68 13 -46 13 -54 0 -59 -27
-10 -44 5 -44 39 0 39 -39 178 -50 178 -5 0 -4 -17 1 -37z"/>
<path d="M5103 7988 c-23 -5 -47 -16 -54 -25 -12 -14 -10 -15 19 -9 25 6 32 4
32 -8 0 -10 9 -16 25 -16 18 0 25 5 25 20 0 11 5 19 11 18 6 -2 13 2 16 8 6
17 -26 21 -74 12z"/>
<path d="M4901 7963 c-14 -11 -14 -12 7 -13 15 0 22 -6 22 -20 0 -11 6 -20 13
-20 14 0 47 20 33 20 -5 0 -1 9 8 19 11 12 13 21 7 25 -15 10 -71 3 -90 -11z"/>
<path d="M4908 7865 c-6 -6 -3 -47 8 -113 3 -20 21 -51 43 -75 21 -23 44 -52
50 -65 17 -33 56 -45 97 -32 19 7 34 15 34 20 0 5 -14 4 -32 -2 -29 -10 -33
-9 -52 16 -12 15 -39 48 -62 74 -40 46 -49 65 -60 127 -7 36 -18 58 -26 50z"/>
<path d="M5060 7828 c0 -9 -11 -19 -25 -22 -34 -9 -32 -26 4 -26 40 0 60 25
38 48 -15 15 -17 15 -17 0z"/>
<path d="M5024 7716 c-17 -13 -17 -15 -2 -21 9 -4 25 -2 37 4 11 6 29 11 40
11 11 0 23 5 26 10 10 16 -78 12 -101 -4z"/>
<path d="M5068 7682 c-24 -5 -23 -32 1 -32 11 0 22 4 25 8 8 13 -8 28 -26 24z"/>
<path d="M3140 7949 c-13 -8 -13 -11 3 -23 9 -7 17 -18 17 -24 0 -20 49 -26
69 -8 10 9 21 13 24 9 4 -3 7 1 7 9 0 25 -94 54 -120 37z"/>
<path d="M3215 7790 c-3 -5 5 -16 19 -25 20 -14 29 -14 48 -4 l23 12 -30 13
c-37 16 -52 17 -60 4z"/>
<path d="M3180 7727 c0 -32 79 -58 100 -32 13 16 11 18 -42 29 -14 3 -33 9
-42 12 -10 4 -16 1 -16 -9z"/>
<path d="M3203 7658 c2 -7 10 -13 17 -13 7 0 15 6 18 13 2 7 -5 12 -18 12 -13
0 -20 -5 -17 -12z"/>
<path d="M3621 7312 c-8 -16 -7 -21 5 -26 31 -12 45 -7 42 16 -4 29 -34 35
-47 10z"/>
<path d="M3510 6496 c0 -8 10 -22 22 -30 40 -29 278 -19 278 11 0 5 -57 8
-128 8 -81 1 -135 5 -149 13 -19 11 -23 10 -23 -2z"/>
<path d="M5714 6875 c-15 -38 29 -62 55 -31 9 11 8 18 -4 30 -21 20 -44 21
-51 1z"/>
<path d="M5448 6018 c-3 -7 2 -33 9 -58 8 -25 16 -61 19 -80 3 -19 11 -75 19
-125 29 -186 37 -628 22 -1130 -8 -264 2 -321 69 -394 22 -24 25 -24 40 -9 16
15 15 19 -9 47 -15 18 -28 49 -32 78 -7 55 -16 221 -15 273 4 127 0 875 -5
920 -3 30 -8 73 -10 95 -2 22 -7 67 -10 100 -15 150 -79 337 -97 283z"/>
<path d="M6799 7254 c0 -5 0 -34 1 -65 1 -53 -1 -57 -39 -92 -48 -43 -50 -62
-16 -135 14 -30 25 -69 25 -86 0 -40 7 -48 31 -35 50 26 52 85 7 177 l-21 42
21 20 c37 35 42 141 7 170 -8 7 -15 9 -16 4z"/>
<path d="M6907 7110 c-26 -16 -47 -36 -47 -45 0 -18 5 -19 31 -5 15 8 23 7 35
-5 22 -21 39 -14 40 16 0 14 3 30 8 37 8 13 0 32 -13 32 -4 0 -28 -13 -54 -30z"/>
<path d="M7131 6889 c-41 -25 -58 -57 -35 -66 12 -4 24 2 38 20 12 15 27 27
33 27 6 0 16 6 22 14 19 22 -23 27 -58 5z"/>
<path d="M7153 6831 c-17 -14 -19 -20 -9 -24 17 -7 58 21 51 34 -9 13 -17 11
-42 -10z"/>
<path d="M6678 6705 c-14 -31 0 -50 30 -41 27 9 34 32 16 51 -22 21 -33 19
-46 -10z"/>
<path d="M2717 6453 c-14 -14 -6 -42 14 -48 26 -8 54 16 46 39 -6 16 -48 22
-60 9z"/>
<path d="M7370 6162 c0 -14 11 -21 26 -15 21 8 17 23 -6 23 -11 0 -20 -4 -20
-8z"/>
<path d="M2971 3043 c13 -14 57 -58 98 -97 41 -39 82 -78 92 -87 32 -32 196
-166 275 -226 303 -231 705 -451 1061 -582 l81 -30 -1 525 0 524 -815 0 -815
0 24 -27z m1548 -37 c41 -9 45 -21 27 -78 -41 -127 -169 -256 -279 -284 -28
-6 -27 -7 31 -35 136 -66 220 -213 223 -394 2 -70 1 -75 -13 -70 -7 2 -36 6
-63 9 -139 14 -279 104 -359 229 -35 54 -66 142 -66 184 l0 23 -52 -26 c-64
-33 -162 -42 -239 -24 -163 38 -365 177 -515 352 -24 28 -44 55 -44 59 0 3 12
11 28 17 128 50 359 51 521 3 101 -31 230 -121 276 -193 l17 -27 30 59 c48 97
155 176 270 200 42 9 159 6 207 -4z"/>
<path d="M4284 2924 c-62 -25 -77 -35 -117 -79 -42 -45 -94 -151 -81 -164 9
-10 114 18 170 46 69 34 160 115 192 172 13 22 20 42 15 43 -51 9 -131 2 -179
-18z"/>
<path d="M3365 2932 c-52 -6 -52 -19 1 -70 113 -112 256 -205 363 -238 82 -25
191 -12 226 26 14 15 12 21 -13 56 -85 117 -207 190 -369 220 -36 7 -169 11
-208 6z"/>
<path d="M4105 2530 c25 -95 94 -185 180 -235 42 -25 154 -68 156 -59 10 34
-13 123 -45 178 -15 25 -50 64 -79 85 -52 40 -155 81 -201 81 -24 0 -24 0 -11
-50z"/>
<path d="M5232 2959 c-6 -30 -14 -70 -17 -89 -3 -19 -19 -63 -36 -97 -25 -50
-30 -69 -25 -98 6 -29 32 -96 54 -136 1 -4 -10 -6 -25 -6 -15 1 -41 -2 -57 -6
-25 -7 -28 -6 -20 10 4 10 8 53 9 96 0 59 -4 80 -15 86 -60 35 -89 58 -115 91
-38 50 -59 60 -43 22 7 -15 15 -32 19 -37 34 -47 75 -216 74 -308 0 -56 2 -66
15 -61 84 37 295 43 358 10 19 -10 35 -16 37 -14 1 2 5 44 8 93 6 98 33 198
78 288 16 31 27 57 25 57 -3 0 -29 -25 -58 -56 -29 -31 -70 -65 -90 -75 -31
-16 -38 -25 -39 -52 -4 -73 1 -120 12 -133 17 -20 8 -25 -27 -15 -16 4 -42 6
-57 4 l-28 -4 24 43 c14 24 30 67 36 96 10 48 9 57 -9 82 -27 38 -49 101 -56
163 -4 27 -9 61 -13 75 -6 22 -9 18 -19 -29z"/>
<path d="M5981 2923 c-13 -78 -40 -154 -65 -183 -7 -8 -12 -24 -10 -35 8 -49
29 -112 46 -136 16 -24 16 -28 2 -33 -9 -3 -19 -4 -23 -1 -5 2 -23 0 -41 -5
-31 -9 -32 -9 -25 18 15 57 16 69 10 119 -6 45 -10 53 -37 64 -17 7 -60 42
-95 78 l-64 66 40 -86 c49 -104 72 -198 73 -296 0 -40 2 -73 3 -73 1 0 17 8
36 17 25 13 65 18 154 20 113 2 137 -2 207 -31 14 -6 16 -2 14 31 -5 101 29
244 86 358 l30 60 -65 -66 c-35 -36 -78 -71 -96 -78 -17 -8 -32 -21 -33 -30
-7 -73 -4 -130 9 -154 14 -27 14 -28 -14 -20 -15 4 -43 7 -60 7 -39 0 -39 0
-13 36 28 39 52 156 35 170 -23 19 -53 103 -65 183 -7 42 -16 77 -19 77 -4 0
-13 -35 -20 -77z"/>
<path d="M6749 2978 c0 -13 -2 -31 -4 -40 -17 -89 -30 -130 -55 -174 -16 -29
-27 -54 -25 -56 3 -2 7 -21 10 -41 8 -45 31 -103 45 -112 20 -12 9 -22 -22
-22 -18 0 -46 -3 -63 -8 -27 -7 -29 -7 -16 8 15 19 23 99 14 151 -4 27 -12 37
-34 45 -16 5 -58 40 -95 78 l-66 68 37 -74 c46 -93 75 -204 77 -303 2 -43 3
-78 3 -78 0 0 24 9 52 20 44 17 72 19 170 17 84 -2 127 -8 150 -19 18 -9 34
-13 36 -10 2 4 4 35 5 69 2 95 27 194 72 290 l41 87 -64 -65 c-35 -36 -78 -71
-95 -78 -18 -8 -33 -21 -33 -30 -1 -9 -3 -36 -4 -60 -2 -25 2 -62 10 -83 l13
-38 -27 7 c-14 4 -41 8 -58 7 -18 0 -33 2 -33 4 0 2 9 16 20 32 11 15 26 56
34 91 13 55 13 65 1 79 -25 28 -53 103 -65 177 -12 72 -29 106 -31 61z"/>
<path d="M5957 2414 c-1 -1 -23 -5 -50 -8 -59 -8 -89 -19 -106 -40 -17 -21 -2
-41 48 -63 53 -23 230 -23 297 0 116 40 49 101 -119 109 -37 2 -69 3 -70 2z"/>
<path d="M6687 2408 c-67 -8 -119 -27 -132 -49 -4 -5 1 -19 11 -30 54 -59 328
-59 388 1 19 18 19 20 2 38 -17 19 -47 29 -116 38 -72 10 -87 10 -153 2z"/>
<path d="M5121 2400 c-90 -21 -105 -61 -36 -94 51 -25 247 -28 309 -4 123 46
26 110 -163 107 -42 -1 -91 -5 -110 -9z"/>
<path d="M7429 3068 c-3 -5 -5 -1048 -3 -1048 20 0 351 143 477 206 400 199
737 436 1049 740 l108 104 -815 0 c-448 0 -816 -1 -816 -2z m250 -58 c125 -24
228 -98 280 -201 l29 -58 26 37 c50 72 171 155 266 181 25 7 61 17 80 22 60
17 268 19 345 3 76 -16 125 -32 125 -43 0 -12 -70 -93 -134 -155 -127 -124
-299 -228 -425 -256 -77 -18 -175 -8 -236 23 l-51 25 -11 -57 c-35 -186 -201
-340 -404 -375 -41 -7 -78 -10 -82 -6 -4 4 -8 34 -8 66 -1 172 95 336 234 399
29 13 45 24 37 24 -32 2 -134 63 -185 112 -53 51 -108 150 -119 215 -6 31 -5
32 42 41 72 14 131 15 191 3z"/>
<path d="M7543 2943 c-29 -11 64 -130 142 -182 56 -38 138 -71 192 -78 44 -5
45 -5 38 18 -45 145 -158 238 -298 244 -34 1 -68 0 -74 -2z"/>
<path d="M8498 2935 c-2 -2 -23 -5 -48 -8 -153 -18 -286 -89 -373 -199 -53
-67 -52 -77 12 -104 25 -11 57 -14 107 -11 120 7 266 88 419 231 75 70 78 75
55 81 -26 6 -167 14 -172 10z"/>
<path d="M7815 2566 c-98 -31 -184 -97 -221 -169 -24 -46 -41 -118 -35 -144
l6 -22 53 19 c147 52 259 168 278 288 6 40 5 42 -17 41 -13 0 -42 -6 -64 -13z"/>
<path d="M5161 1748 c-68 -79 -161 -205 -158 -216 1 -7 43 -64 92 -127 100
-128 85 -124 150 -40 17 21 51 65 78 98 26 33 47 63 47 67 0 3 -43 59 -95 124
l-94 117 -20 -23z"/>
<path d="M5603 1660 c-48 -61 -89 -117 -90 -123 -1 -7 40 -65 91 -129 l93
-118 97 122 97 121 -29 31 c-16 17 -57 67 -92 111 -35 44 -67 84 -71 89 -4 4
-47 -42 -96 -104z"/>
<path d="M6104 1654 c-49 -64 -88 -120 -87 -125 2 -5 44 -60 94 -124 l91 -114
22 27 c13 15 55 69 95 120 l73 93 -97 119 c-53 66 -98 120 -99 120 -2 0 -43
-52 -92 -116z"/>
<path d="M6640 1693 c-30 -38 -69 -87 -87 -109 l-33 -42 90 -110 c50 -61 94
-113 99 -116 5 -3 48 46 96 109 l87 115 -92 110 c-50 60 -95 110 -99 110 -4 0
-32 -30 -61 -67z"/>
<path d="M5879 1371 c-35 -43 -76 -93 -91 -112 -15 -19 -28 -36 -28 -39 0 -7
190 -240 195 -240 2 0 34 39 71 88 37 48 78 98 91 112 l23 26 -99 122 -99 122
-63 -79z"/>
<path d="M6427 1426 c-9 -13 -22 -29 -29 -37 -39 -42 -128 -158 -128 -168 0
-16 169 -225 184 -228 6 -1 51 50 99 113 l88 115 -73 92 c-125 157 -117 151
-141 113z"/>
<path d="M5353 1340 c-43 -56 -79 -105 -81 -108 -3 -9 178 -232 188 -232 4 0
27 26 51 57 24 31 61 79 81 105 l37 49 -91 112 c-50 62 -94 113 -99 115 -4 2
-43 -42 -86 -98z"/>
<path d="M5614 1038 c-43 -56 -85 -110 -92 -120 -12 -16 -2 -32 83 -138 l96
-121 86 108 c47 59 90 114 96 120 6 9 -4 29 -34 65 -24 29 -46 55 -49 58 -4 3
-13 14 -21 26 -8 11 -30 39 -50 62 l-36 42 -79 -102z"/>
<path d="M6115 1037 c-44 -55 -86 -108 -93 -118 -11 -16 -2 -31 74 -121 48
-57 92 -109 99 -116 9 -10 28 9 94 94 45 58 85 112 87 118 4 9 -136 199 -175
237 -3 4 -42 -38 -86 -94z"/>
<path d="M5913 784 c-15 -20 -56 -71 -90 -114 l-62 -78 93 -126 93 -126 91
119 c51 66 92 123 92 127 0 4 -15 23 -32 43 -31 35 -54 63 -126 154 l-30 38
-29 -37z"/>
<path d="M2915 10475 c-26 -21 -41 -25 -123 -27 l-94 -3 -43 -138 -43 -138
101 -98 100 -98 81 32 81 33 3 50 c3 43 6 51 25 54 34 6 59 -10 100 -63 l38
-49 -23 -9 c-13 -4 -67 -23 -121 -41 -77 -26 -98 -37 -102 -54 -23 -108 -25
-141 -8 -153 24 -18 33 -16 33 7 0 12 12 26 31 36 30 15 48 21 180 58 52 15
57 19 81 68 14 29 33 77 42 106 l15 54 -80 99 c-44 54 -85 100 -92 100 -27 3
-51 1 -107 -11 l-60 -13 0 -53 c0 -48 -3 -55 -27 -67 -42 -21 -61 -14 -124 49
-55 55 -57 59 -45 83 12 23 19 25 67 22 47 -2 58 -6 81 -34 l26 -32 6 25 c19
84 46 211 46 220 0 16 -12 11 -45 -15z"/>
<path d="M8961 10423 c-41 -7 -75 -14 -77 -15 -2 -3 11 -90 22 -136 4 -22 9
-23 47 -18 113 15 117 16 117 48 0 33 -20 120 -29 129 -3 3 -39 -1 -80 -8z"/>
<path d="M9200 10059 c-47 -51 -86 -98 -88 -105 -2 -7 13 -44 33 -83 l35 -71
45 2 c51 1 54 0 60 -33 4 -19 -5 -33 -42 -66 -37 -32 -50 -40 -59 -30 -6 7
-28 53 -49 102 -21 50 -40 91 -41 93 -3 5 -100 16 -143 16 -50 1 -72 -41 -25
-48 10 -2 22 -9 26 -17 17 -30 98 -210 98 -218 0 -5 10 -11 23 -14 12 -3 60
-17 106 -31 l84 -26 31 24 c96 74 167 146 162 164 -2 10 -10 43 -17 75 -7 32
-17 61 -22 64 -5 3 -31 5 -58 4 -45 -1 -50 2 -65 30 -14 29 -14 32 2 52 37 45
98 107 105 107 20 0 36 -33 38 -76 2 -46 -1 -51 -30 -68 -17 -10 -27 -21 -22
-25 4 -4 51 -13 103 -20 52 -7 110 -15 128 -17 17 -3 32 -3 32 0 0 3 -16 23
-35 44 -18 21 -34 47 -34 58 -2 64 -5 144 -7 144 -1 0 -61 14 -134 30 -73 17
-138 30 -144 30 -7 0 -50 -41 -96 -91z"/>
<path d="M8702 10077 l-73 -10 5 -36 c4 -20 9 -54 12 -76 8 -50 12 -57 32 -51
10 3 42 8 72 11 30 4 59 9 63 12 14 8 -16 165 -31 162 -4 -1 -40 -6 -80 -12z"/>
<path d="M2319 10072 c-12 -2 -15 -19 -15 -82 0 -47 5 -80 11 -81 5 0 24 -2
42 -2 25 -2 50 -20 125 -92 123 -119 178 -183 178 -209 0 -44 12 -49 72 -31
72 21 85 32 92 80 3 22 9 57 12 78 3 20 4 37 1 37 -2 0 -23 -7 -47 -15 l-42
-15 -131 135 c-74 76 -137 150 -143 167 -11 31 -13 32 -76 32 -35 1 -71 0 -79
-2z"/>
<path d="M2077 10046 c-56 -28 -65 -48 -70 -166 l-5 -105 37 -34 c20 -19 122
-108 226 -199 105 -90 204 -176 220 -191 17 -14 50 -43 73 -63 23 -21 47 -38
52 -38 6 0 10 34 10 83 l-1 82 -269 235 c-148 129 -267 236 -265 238 2 2 28 5
57 7 29 1 56 3 61 4 4 1 7 38 7 84 l0 83 -47 0 c-27 -1 -65 -9 -86 -20z"/>
<path d="M9785 9701 c-40 -6 -40 -6 -36 -46 3 -22 5 -56 5 -75 1 -19 6 -38 11
-41 6 -4 45 -2 88 4 l78 9 -6 57 c-11 103 -10 101 -58 100 -23 -1 -60 -5 -82
-8z"/>
<path d="M1966 9613 c-4 -5 -56 -33 -114 -63 -116 -60 -114 -57 -100 -142 l7
-37 -74 -26 c-68 -25 -73 -29 -65 -49 5 -11 19 -54 30 -93 11 -40 23 -73 26
-73 3 0 18 7 35 15 29 16 31 15 112 -34 134 -81 199 -139 214 -190 7 -24 14
-46 17 -48 3 -3 143 62 154 72 2 2 -7 39 -19 83 l-22 80 -34 -10 c-33 -9 -41
-6 -156 72 -163 108 -158 103 -162 143 -4 43 -2 46 65 90 l54 37 11 -33 c7
-23 27 -43 73 -72 159 -100 187 -122 196 -151 20 -68 13 -66 108 -20 48 24 86
45 84 47 -2 2 -7 33 -11 69 -4 36 -8 66 -9 67 -1 1 -20 -7 -43 -17 l-42 -19
-78 47 c-96 58 -199 136 -213 162 -10 19 -18 52 -19 83 -1 18 -12 22 -25 10z"/>
<path d="M9466 9402 l-38 -3 5 -75 c7 -84 12 -97 35 -90 10 3 40 6 67 7 76 3
77 4 69 66 -3 30 -6 65 -6 78 0 26 -10 27 -132 17z"/>
<path d="M10069 9372 c-6 -73 -3 -69 -206 -223 l-113 -86 -60 2 c-33 2 -60 -1
-60 -6 0 -5 20 -53 43 -106 24 -54 47 -106 50 -115 4 -10 14 -18 24 -19 20 -1
58 -6 89 -14 11 -2 21 -10 21 -17 1 -17 12 -98 17 -123 3 -11 5 -22 5 -26 1
-8 150 -31 161 -24 7 4 7 12 0 25 -20 38 -10 55 76 125 48 39 92 75 98 80 42
38 157 115 165 111 16 -11 20 1 36 117 6 41 5 47 -11 48 -11 0 -28 2 -39 4
-57 12 -104 14 -110 6 -3 -5 -7 -24 -9 -41 -4 -37 -22 -54 -184 -176 l-113
-85 -37 19 c-32 16 -38 25 -43 63 -4 26 -2 48 5 54 56 52 304 238 320 239 16
1 22 12 31 61 17 95 16 98 -30 106 -109 18 -125 18 -126 1z"/>
<path d="M1397 9041 c-24 -16 -24 -17 -10 -61 36 -116 46 -158 45 -193 l-2
-37 158 -77 c168 -81 192 -97 192 -122 0 -9 10 -22 21 -29 19 -12 25 -10 53
16 17 16 47 43 66 60 19 17 52 47 73 66 l38 35 -32 82 -33 82 -72 -79 -72 -79
-29 17 c-28 17 -28 17 -33 140 -7 170 -7 170 -195 183 -49 3 -102 7 -117 9
-15 2 -38 -4 -51 -13z m173 -136 c127 -24 127 -24 127 -84 -1 -28 -2 -51 -4
-51 -1 0 -57 25 -123 56 -105 50 -120 60 -120 81 0 18 4 23 18 19 9 -2 55 -12
102 -21z"/>
<path d="M10430 8825 c0 -50 -20 -67 -200 -167 -143 -80 -158 -86 -197 -81
-38 5 -42 3 -39 -13 2 -11 7 -49 11 -87 7 -68 11 -75 42 -82 10 -2 40 -8 67
-15 27 -6 51 -9 53 -6 6 5 11 34 12 61 1 16 36 41 141 104 l141 83 47 -12 c72
-17 72 -17 58 -84 -11 -55 -13 -59 -41 -61 -17 -2 -70 -27 -120 -57 -159 -97
-185 -108 -227 -101 l-39 6 6 -69 c10 -111 8 -107 87 -145 40 -19 78 -34 83
-34 6 0 10 26 10 59 0 69 2 71 143 147 76 42 110 55 156 59 l58 5 27 106 c16
58 31 120 34 137 l6 32 -87 26 c-80 25 -106 39 -97 54 2 3 6 40 10 83 l7 77
-33 1 c-19 0 -53 2 -76 5 l-43 4 0 -35z"/>
<path d="M1255 8624 c-33 -13 -64 -29 -69 -34 -10 -10 28 -115 50 -139 11 -12
16 -12 29 -1 29 24 75 12 220 -59 114 -56 147 -77 160 -100 8 -16 20 -33 25
-36 6 -4 37 12 68 36 31 23 58 43 59 44 2 1 -3 26 -11 56 -7 30 -17 67 -20 82
l-7 29 -35 -27 -35 -27 -97 43 c-168 73 -250 117 -257 139 -8 25 -7 25 -80 -6z"/>
<path d="M1123 8317 c-51 -24 -97 -47 -103 -53 -6 -6 -3 -32 10 -74 11 -36 20
-66 20 -67 0 -1 -27 -21 -60 -43 -33 -22 -60 -42 -60 -44 0 -8 41 -124 51
-143 11 -21 12 -21 64 -3 l52 18 134 -55 c74 -30 144 -58 156 -63 12 -5 25
-21 29 -35 3 -14 11 -25 18 -25 12 0 126 78 126 87 0 2 -16 33 -36 68 l-35 64
-35 -21 -36 -21 -86 33 c-103 39 -194 83 -209 102 -6 7 -13 30 -15 52 -4 38
-3 39 46 62 49 23 51 23 68 5 9 -11 72 -40 140 -67 115 -45 159 -71 170 -104
5 -17 25 -5 92 53 l38 34 -23 64 c-12 35 -25 67 -29 72 -4 4 -24 -6 -45 -23
-21 -17 -43 -29 -49 -27 -226 88 -237 95 -266 149 -14 27 -27 48 -30 48 -3 0
-47 -20 -97 -43z"/>
<path d="M10748 8233 c-14 -38 -20 -41 -192 -116 -133 -58 -188 -77 -221 -77
l-45 0 0 -74 0 -74 69 -32 c39 -18 74 -31 78 -29 7 4 9 14 12 62 1 12 24 29
74 51 39 19 121 57 181 85 72 34 119 51 139 49 28 -3 31 0 53 62 13 36 23 70
24 77 0 6 -24 18 -52 27 -109 31 -103 31 -120 -11z"/>
<path d="M10854 7967 c-5 -12 -7 -25 -6 -29 3 -13 -28 -28 -178 -88 -117 -46
-165 -60 -195 -58 l-40 3 0 -130 0 -130 105 -52 c68 -34 114 -51 130 -49 14 3
84 23 155 46 122 39 132 41 157 26 17 -9 30 -11 34 -5 8 14 84 242 81 245 -3
3 -166 34 -180 34 -7 0 -7 -4 1 -12 15 -15 15 -50 1 -82 -12 -26 -30 -34 -241
-110 -54 -19 -98 -32 -99 -28 -4 29 -4 114 1 121 8 12 102 54 222 100 74 28
116 39 136 35 27 -6 29 -4 56 76 16 44 26 83 24 85 -3 3 -25 8 -49 11 -24 3
-58 7 -76 9 -26 4 -33 1 -39 -18z"/>
<path d="M939 7771 c-9 -24 -34 -47 -100 -92 -49 -33 -88 -63 -86 -67 2 -4 30
-66 62 -139 l59 -132 30 7 c17 4 67 7 111 6 109 -1 217 -38 263 -90 17 -21 33
-35 35 -33 12 15 125 176 130 185 6 10 -17 83 -48 151 -8 17 -15 33 -15 36 0
2 -7 21 -15 40 -13 33 -17 35 -43 28 -21 -6 -49 -2 -100 15 -39 13 -89 26
-109 30 -46 8 -110 39 -140 67 l-23 20 -11 -32z m226 -207 c82 -25 156 -49
162 -53 10 -5 7 -15 -9 -38 -42 -58 -44 -59 -221 -8 -89 26 -176 47 -194 48
-18 1 -32 5 -30 9 4 14 111 87 127 88 8 0 82 -21 165 -46z"/>
<path d="M11020 7431 c-8 -5 -84 -28 -169 -51 -131 -37 -158 -42 -183 -32 -32
12 -70 3 -84 -19 -4 -7 -8 -29 -10 -48 -11 -158 -12 -217 -6 -227 8 -12 107
-73 125 -77 8 -1 12 29 12 110 0 66 5 117 11 123 6 6 26 13 45 16 32 5 39 1
116 -79 115 -118 119 -118 265 -7 142 107 147 121 60 174 -33 20 -64 36 -70
36 -5 0 -29 20 -53 45 -32 31 -48 42 -59 36z m113 -123 c4 -15 -27 -37 -127
-93 l-68 -38 -33 39 -33 39 66 18 c37 10 72 23 79 29 7 6 13 7 13 4 0 -4 8 -2
18 3 24 15 80 13 85 -1z"/>
<path d="M557 7238 c3 -18 12 -50 18 -73 l12 -40 93 -22 c52 -12 109 -25 128
-28 19 -3 38 -7 42 -10 3 -2 21 -7 38 -10 18 -3 62 -12 99 -21 38 -9 79 -18
93 -20 71 -12 85 -21 109 -67 l25 -46 31 47 c17 26 41 63 53 83 l22 36 -41 63
-41 63 -29 -30 c-17 -19 -35 -30 -46 -27 -21 5 -323 71 -356 78 -12 3 -65 14
-117 25 -52 12 -105 23 -117 26 -21 5 -22 3 -16 -27z"/>
<path d="M11122 6961 l-17 -40 -168 -32 -168 -32 -29 21 c-16 12 -34 23 -40
24 -14 3 -14 0 -29 -122 -18 -137 -18 -134 44 -176 31 -20 58 -35 60 -33 2 2
7 31 10 64 13 108 -3 97 193 132 75 13 104 10 130 -12 l26 -23 -34 -28 c-18
-16 -40 -34 -48 -40 -12 -9 -6 -19 34 -62 l49 -52 80 56 c44 30 86 59 93 63
15 8 23 43 14 58 -4 6 -24 18 -44 26 -41 17 -46 31 -25 62 7 11 23 36 35 57
l22 36 -79 46 c-44 25 -83 46 -86 46 -4 0 -14 -18 -23 -39z"/>
<path d="M708 6933 c0 -5 -2 -12 -3 -18 -5 -32 -23 -57 -84 -119 l-68 -69 84
-119 c47 -65 88 -120 93 -123 4 -2 31 5 61 16 61 22 98 25 219 14 73 -6 90
-12 123 -37 21 -17 40 -28 42 -27 1 2 26 50 54 106 l51 103 -72 115 c-67 106
-75 115 -98 109 -85 -20 -355 13 -375 47 -7 11 -24 12 -27 2z m202 -177 c30
-3 84 -8 120 -12 80 -7 111 -12 117 -18 6 -6 -37 -89 -51 -98 -6 -4 -18 -6
-26 -3 -8 2 -49 6 -90 10 -41 3 -97 8 -125 11 -27 3 -76 6 -107 6 -32 0 -58 4
-58 7 0 4 23 30 51 59 45 44 56 51 83 47 17 -2 56 -6 86 -9z"/>
<path d="M11217 6530 c-45 -36 -89 -48 -197 -55 -58 -4 -118 -8 -135 -9 -16
-2 -66 -7 -110 -11 -44 -4 -83 -9 -87 -11 -4 -3 -19 3 -33 12 -14 9 -28 15
-30 12 -2 -2 19 -35 48 -73 l52 -70 95 1 c52 1 136 4 185 8 50 3 124 8 165 10
41 3 86 8 100 11 57 15 101 17 116 4 13 -11 11 -16 -17 -45 l-32 -33 54 -34
c83 -53 87 -53 142 -2 26 24 47 48 47 52 0 5 -53 44 -117 88 -64 44 -137 99
-163 123 -27 23 -50 42 -53 42 -2 0 -16 -9 -30 -20z"/>
<path d="M583 6333 c-46 -36 -83 -71 -83 -77 0 -6 25 -36 56 -66 31 -30 71
-76 91 -102 l35 -48 217 2 c190 2 220 0 241 -15 14 -9 27 -17 31 -17 3 0 9 21
13 46 3 25 15 84 26 130 l21 85 -63 59 c-35 33 -66 59 -69 60 -7 0 -15 -36
-25 -122 -10 -88 -20 -92 -233 -94 l-174 -1 49 43 c27 24 52 43 57 44 4 0 7 6
7 13 0 16 -88 121 -104 124 -6 2 -48 -27 -93 -64z"/>
<path d="M11256 6219 c-16 -17 -39 -30 -54 -30 -15 -1 -81 -3 -147 -4 -66 -2
-138 -4 -160 -5 -22 -1 -60 7 -85 19 -52 23 -54 22 -90 -56 l-23 -52 26 -33
c15 -18 39 -48 55 -67 l29 -34 24 43 24 43 201 4 c175 5 205 3 226 -11 25 -16
26 -16 77 40 28 32 51 60 51 64 0 9 -86 87 -109 99 -13 8 -24 3 -45 -20z"/>
<path d="M10762 5839 c-23 -49 -42 -94 -42 -98 0 -11 91 -111 101 -111 4 0 21
23 39 50 18 28 39 50 49 51 9 1 71 2 139 3 l123 1 -7 -65 c-3 -36 -7 -69 -7
-73 -2 -10 90 -47 116 -47 9 0 16 3 15 8 -3 11 12 140 19 158 4 10 17 15 42
14 20 -1 67 -2 104 -1 l68 1 -52 60 c-49 56 -55 60 -96 60 -28 0 -46 5 -49 14
-3 8 -26 19 -52 25 -26 7 -54 14 -63 17 -12 3 -18 -4 -23 -29 l-6 -33 -139 1
-139 2 -39 41 c-22 23 -44 42 -49 42 -6 0 -29 -41 -52 -91z"/>
<path d="M1026 5755 c-31 -41 -56 -76 -56 -78 0 -4 44 -34 131 -91 l27 -17 51
69 c28 38 51 74 51 79 0 5 -33 33 -74 61 l-74 52 -56 -75z"/>
<path d="M600 5685 c-25 -35 -45 -70 -45 -77 0 -11 129 -108 145 -108 3 0 29
34 58 75 l52 75 -75 50 c-41 27 -78 50 -82 50 -4 0 -28 -29 -53 -65z"/>
<path d="M10769 5548 c-49 -93 -74 -137 -90 -165 l-20 -31 41 -47 40 -46 -59
-66 c-68 -76 -69 -70 12 -158 l55 -60 32 53 c18 28 39 52 45 52 7 0 57 -9 111
-21 55 -11 129 -26 166 -33 l66 -13 79 74 c43 40 102 87 131 104 l53 31 -38
33 c-21 18 -58 62 -83 98 -24 36 -46 64 -48 62 -3 -2 -6 -18 -7 -35 -3 -31
-47 -102 -103 -167 l-27 -31 -145 29 c-80 17 -148 34 -152 37 -4 4 0 31 8 60
l16 53 179 -2 c98 -1 180 2 180 6 2 8 -72 125 -80 126 -3 1 -49 3 -101 4 -52
2 -107 4 -122 4 -17 1 -43 15 -67 36 -45 41 -56 43 -72 13z"/>
<path d="M1155 5345 c-5 -2 -64 -13 -130 -25 l-121 -21 -21 -62 c-12 -34 -25
-70 -28 -79 -5 -13 5 -24 44 -45 51 -28 58 -41 45 -89 -7 -28 -158 -78 -188
-62 -42 22 18 134 75 140 31 3 31 4 -52 73 -130 110 -122 106 -114 48 6 -46 3
-56 -36 -128 l-42 -78 80 -76 c43 -42 93 -89 110 -104 l31 -29 131 42 c72 24
133 46 136 49 2 4 7 43 10 88 l7 80 -31 12 c-41 18 -54 36 -47 66 7 29 31 40
105 50 l52 7 -6 -57 c-3 -31 -10 -79 -15 -107 -15 -78 -14 -83 47 -129 79 -61
80 -61 102 -47 20 12 20 12 0 34 -19 21 -20 24 -5 115 8 52 17 110 20 131 5
34 1 42 -70 122 -41 47 -76 86 -77 85 -1 0 -6 -2 -12 -4z"/>
<path d="M10631 4911 c-80 -172 -77 -154 -34 -216 21 -30 41 -55 45 -55 4 0
27 30 50 66 48 73 44 72 163 40 6 -1 37 -8 70 -15 72 -16 79 -19 67 -34 -5 -7
-17 -34 -26 -60 -14 -36 -15 -51 -6 -61 15 -19 119 -91 123 -85 1 2 15 44 31
92 16 48 32 90 36 92 4 2 54 -9 110 -25 57 -16 105 -28 107 -26 6 6 -98 146
-116 156 -11 5 -29 10 -41 10 -17 0 -20 5 -18 27 3 24 -3 31 -52 55 -68 34
-78 34 -90 4 -10 -27 0 -28 -221 24 -92 22 -98 25 -120 61 -13 21 -27 39 -30
39 -3 0 -25 -40 -48 -89z"/>
<path d="M1245 4790 l-7 -39 -81 -25 c-269 -82 -295 -88 -317 -76 -12 6 -23
10 -24 8 -8 -10 -75 -142 -73 -144 1 -1 35 -18 76 -37 l75 -35 19 36 c11 21
20 38 21 39 1 1 77 22 169 47 142 39 177 45 223 40 48 -6 54 -5 55 12 0 11 2
26 4 34 18 89 20 85 -51 134 -36 25 -69 46 -74 46 -4 0 -11 -18 -15 -40z"/>
<path d="M10547 4522 c-26 -37 -59 -80 -72 -97 l-23 -30 31 -62 32 -63 54 50
c30 28 58 50 62 50 5 0 54 -18 111 -39 57 -22 127 -48 157 -58 35 -12 60 -27
70 -45 18 -29 6 -31 124 21 l48 21 -21 37 c-11 21 -26 54 -34 75 l-14 36 -45
-16 -44 -16 -153 60 c-142 55 -154 62 -182 102 -16 23 -34 42 -41 42 -7 -1
-34 -31 -60 -68z"/>
<path d="M1369 4448 l-14 -63 -130 -52 c-72 -28 -134 -51 -139 -49 -5 1 -19
33 -31 72 l-22 69 -62 -1 c-34 -1 -64 -4 -67 -7 -3 -3 6 -45 20 -94 14 -48 22
-91 18 -94 -4 -3 -23 -12 -42 -19 -19 -7 -48 -18 -65 -25 -16 -8 -43 -17 -58
-20 -42 -11 -28 -27 49 -59 67 -28 70 -28 111 -14 35 13 45 13 53 2 6 -7 19
-11 28 -10 9 2 38 7 65 10 26 4 47 9 47 11 0 2 -4 15 -9 28 -9 23 -7 27 32 42
23 9 56 22 72 30 17 7 64 26 105 42 l76 30 52 -25 c28 -14 54 -23 57 -20 9 8
20 158 16 214 -1 10 -118 64 -139 64 -5 0 -15 -28 -23 -62z"/>
<path d="M10444 4229 c4 -26 -5 -36 -97 -110 l-102 -81 -1 -109 -1 -109 101
-57 c56 -32 108 -61 116 -64 15 -6 155 65 155 78 -1 4 -7 27 -14 50 -16 48
-11 69 22 84 19 9 36 5 96 -22 64 -29 72 -35 69 -57 -3 -21 -12 -28 -55 -40
-49 -14 -53 -13 -79 7 -15 12 -29 20 -30 18 -2 -2 1 -30 6 -63 6 -32 13 -78
16 -101 3 -23 9 -55 13 -70 l7 -28 28 42 c15 22 39 46 54 51 15 6 53 20 84 32
l57 22 -5 41 c-2 23 -6 78 -9 122 -9 125 -1 115 -132 173 -65 29 -122 52 -128
52 -5 0 -37 -25 -69 -54 l-60 -54 13 -42 c14 -46 4 -70 -30 -70 -19 0 -119 50
-119 60 0 3 26 25 58 50 111 87 123 100 117 134 -26 137 -24 134 -56 138 -28
4 -29 3 -25 -23z"/>
<path d="M1470 4134 l0 -59 -179 -65 -179 -64 -37 -120 c-20 -66 -46 -133 -57
-148 l-19 -28 33 0 c18 -1 76 -16 130 -34 l96 -33 -18 48 c-10 26 -17 49 -15
51 3 2 7 37 9 77 3 40 6 74 8 75 5 4 292 107 303 109 12 2 43 -59 47 -92 2
-17 -5 -27 -27 -40 -106 -58 -253 -142 -268 -153 -16 -12 -9 -16 57 -42 l75
-28 111 62 c119 66 121 67 193 56 l49 -7 -7 79 c-3 43 -8 87 -10 98 -2 10 -4
28 -4 39 -1 16 -14 24 -66 39 -36 10 -65 20 -65 21 0 2 7 38 16 80 9 42 12 81
7 85 -4 4 -37 15 -73 24 -36 8 -75 19 -87 22 -22 6 -23 4 -23 -52z"/>
<path d="M1759 3598 c-1 -29 -1 -57 0 -63 0 -5 -16 -21 -37 -35 -51 -33 -205
-120 -214 -120 -4 0 -22 28 -39 63 -17 34 -33 64 -35 66 -5 6 -134 -22 -134
-30 0 -4 18 -45 39 -92 l39 -84 -94 -54 c-52 -29 -94 -55 -94 -59 0 -3 37 -15
83 -27 77 -19 84 -20 112 -5 17 9 46 17 65 18 19 0 55 6 78 13 43 12 44 13 38
45 l-6 34 130 75 131 75 52 -14 c59 -16 80 -17 74 -6 -3 4 -8 39 -12 77 -4 39
-8 79 -10 90 -1 11 -3 27 -4 37 -1 11 -16 19 -53 26 -29 6 -65 13 -80 16 -28
6 -28 6 -29 -46z"/>
<path d="M10120 3568 c-41 -11 -77 -21 -79 -23 -3 -4 38 -166 44 -173 2 -2 44
7 95 18 85 20 91 24 86 44 -4 11 -14 51 -23 89 -19 76 -14 74 -123 45z"/>
<path d="M10495 3368 c-44 -10 -83 -22 -88 -27 -8 -8 14 -113 33 -158 9 -21
10 -21 57 -7 26 8 64 17 83 20 19 3 38 9 42 12 8 8 -23 138 -38 164 -8 14 -18
13 -89 -4z"/>
<path d="M1932 3300 c6 -23 9 -42 7 -44 -35 -30 -330 -210 -346 -211 -31 -2
-30 -2 -38 -70 -4 -33 -9 -67 -10 -76 -3 -14 11 -19 71 -28 99 -15 94 -16 94
24 0 30 7 40 50 74 81 64 265 171 302 175 18 2 38 4 45 5 11 1 11 10 -6 105
-6 38 -8 39 -76 62 -101 33 -105 33 -93 -16z"/>
<path d="M9758 3292 c-11 -12 -15 -41 -14 -107 l1 -90 265 -177 c145 -98 268
-182 273 -187 6 -6 -9 -12 -42 -17 l-51 -7 0 -68 c0 -37 4 -70 9 -73 5 -3 48
1 95 10 l87 16 -7 77 c-4 42 -8 85 -10 96 -1 11 -3 37 -3 57 l-1 36 -263 175
c-257 170 -307 211 -307 248 0 26 -15 31 -32 11z"/>
<path d="M1995 3005 c-33 -25 -70 -55 -83 -65 -67 -59 -104 -79 -133 -73 -21
4 -29 2 -30 -8 0 -8 -1 -68 -1 -134 l-1 -120 24 1 c54 3 154 16 159 21 3 2 -2
9 -11 14 -12 6 -16 21 -14 59 2 42 7 54 31 73 16 12 78 61 138 110 60 48 112
87 116 87 3 0 16 -28 28 -62 l21 -63 -77 -74 c-128 -122 -203 -181 -232 -181
l-27 0 -1 -90 c-2 -103 -7 -99 93 -74 64 16 86 37 70 65 -9 14 37 61 172 175
67 56 124 97 142 100 17 4 31 10 31 14 0 6 -63 179 -84 231 -7 16 -51 24 -206
35 -64 4 -66 4 -125 -41z"/>
<path d="M9587 2916 l-98 -50 6 -46 c14 -112 11 -109 94 -84 32 9 57 12 64 6
31 -23 174 -137 187 -149 12 -11 8 -19 -33 -58 -26 -24 -47 -50 -47 -58 0 -18
57 -107 69 -107 6 0 38 27 73 60 34 33 65 60 68 60 3 0 42 -30 88 -66 l83 -65
-5 80 c-5 87 -8 97 -43 124 -13 10 -23 25 -23 34 0 12 -31 59 -70 106 -4 4
-18 -2 -32 -13 l-26 -20 -115 90 -115 91 -4 50 c-3 28 -9 53 -14 57 -5 4 -53
-15 -107 -42z"/>
<path d="M2410 2687 c0 -7 6 -24 14 -38 13 -26 12 -28 -147 -180 -113 -109
-168 -155 -187 -157 -27 -3 -27 -3 -26 -82 0 -62 4 -80 16 -82 13 -4 106 -3
147 1 8 1 11 14 8 39 -4 36 -1 40 145 183 82 81 161 150 174 153 14 3 36 10
50 15 l24 10 -23 62 c-25 70 -30 73 -127 82 -50 5 -68 3 -68 -6z"/>
<path d="M9316 2611 c-59 -32 -111 -64 -115 -70 -4 -6 -8 -32 -10 -58 -1 -26
-4 -50 -7 -54 -3 -5 -32 -16 -64 -25 -33 -9 -60 -17 -61 -18 -6 -13 -9 -166
-3 -166 5 0 25 4 45 9 37 8 37 8 163 -114 69 -67 126 -129 126 -138 0 -13 10
-17 43 -18 23 -1 56 -2 72 -3 17 -1 35 2 41 6 6 4 12 42 13 83 l2 75 -45 0
c-45 0 -48 2 -165 119 l-120 119 12 32 c12 31 36 49 85 65 20 6 41 -10 153
-121 71 -70 129 -136 129 -146 0 -16 10 -18 79 -18 54 0 80 4 83 13 3 6 6 42
7 80 l2 67 -41 0 c-37 0 -49 7 -108 62 -140 131 -182 180 -189 223 -4 22 -6
43 -5 48 4 13 -12 6 -122 -52z"/>
<path d="M2769 2456 c-2 -2 -29 -7 -59 -10 -77 -9 -95 -12 -95 -18 0 -2 26
-34 57 -69 31 -35 57 -67 58 -72 11 -39 -31 -99 -169 -247 l-60 -65 -1 78 0
77 -42 1 c-24 1 -63 2 -88 3 l-45 1 0 -115 0 -115 148 -1 147 0 28 30 c15 17
64 74 109 126 98 115 145 161 178 175 25 10 24 11 -65 118 -92 109 -93 110
-101 103z"/>
<path d="M8870 2184 c-68 -25 -126 -46 -127 -48 -1 -1 -3 -18 -4 -37 -1 -18
-19 -72 -41 -118 -21 -46 -38 -89 -38 -96 0 -7 41 -64 90 -127 127 -160 152
-188 170 -198 8 -4 69 -11 135 -15 66 -4 129 -9 140 -10 11 -1 26 -3 33 -4 6
0 12 -14 12 -31 0 -28 2 -29 20 -18 38 24 55 140 23 156 -10 5 -64 19 -120 31
-200 42 -189 36 -297 171 -92 115 -108 140 -86 140 6 0 33 11 62 25 28 14 55
25 59 25 6 0 77 -79 152 -170 60 -73 74 -85 97 -85 22 0 26 -6 30 -40 l5 -39
16 24 c18 28 59 118 59 131 0 4 -37 51 -82 105 -148 174 -163 195 -162 236 1
23 -3 38 -10 37 -6 0 -67 -21 -136 -45z"/>
<path d="M3210 2034 c-122 -26 -113 -20 -106 -62 12 -66 29 -137 37 -146 4 -5
29 -3 56 3 26 6 57 13 68 15 70 14 74 16 64 44 -6 15 -10 28 -9 30 7 10 -25
132 -34 131 -6 -1 -40 -7 -76 -15z"/>
<path d="M8458 1883 c-20 -2 -41 -9 -45 -16 -10 -13 -53 -124 -53 -137 0 -4
19 -7 42 -6 l42 1 102 -153 c68 -102 100 -160 97 -172 -4 -15 2 -21 23 -26 16
-3 45 -10 64 -15 64 -16 67 -14 79 54 15 87 15 85 -24 93 -32 6 -45 20 -131
146 -82 121 -95 146 -98 186 -3 44 -4 47 -32 48 -16 1 -46 -1 -66 -3z"/>
<path d="M3608 1798 c-38 -12 -68 -24 -68 -29 0 -4 40 -44 90 -89 89 -82 89
-82 75 -110 -29 -56 -35 -58 -164 -58 -174 2 -168 8 -186 -243 -5 -74 -3 -89
13 -109 l18 -23 85 28 c46 15 109 29 139 30 32 2 58 9 62 17 5 7 33 67 63 133
31 66 61 131 67 145 19 39 39 60 60 60 10 0 18 1 18 3 12 78 18 67 -90 170
-55 53 -104 97 -108 96 -4 0 -37 -10 -74 -21z m27 -354 c0 -5 -24 -59 -53
-119 -39 -81 -58 -111 -72 -112 -29 -2 -31 9 -16 84 7 37 17 85 20 106 5 24
14 41 26 45 26 10 95 7 95 -4z"/>
<path d="M8120 1702 c-11 -4 -70 -124 -70 -143 0 -6 18 -9 40 -7 22 1 41 0 43
-3 2 -2 42 -73 88 -158 56 -103 83 -163 82 -181 -3 -26 1 -28 65 -44 37 -9 72
-16 78 -16 6 0 16 24 23 53 6 28 14 62 17 74 5 19 1 23 -30 28 -37 7 -40 11
-113 145 -11 19 -36 65 -57 102 -21 37 -37 75 -36 85 1 10 2 30 1 46 -1 27 -2
27 -60 25 -33 -1 -65 -4 -71 -6z"/>
<path d="M2935 1657 c-44 -10 -81 -20 -82 -21 -5 -5 30 -171 38 -180 9 -10
181 23 190 36 3 5 -4 49 -15 97 -22 101 -12 96 -131 68z"/>
<path d="M4020 1594 c-30 -13 -68 -28 -84 -34 l-30 -10 85 -53 c79 -50 84 -55
84 -87 0 -35 -123 -335 -134 -325 -2 3 -6 13 -8 23 -1 9 -10 40 -20 68 l-18
52 -78 -23 c-42 -12 -80 -25 -83 -28 -3 -3 1 -27 9 -54 8 -26 22 -74 31 -105
9 -32 21 -58 25 -58 5 0 62 16 127 36 66 21 126 37 135 36 10 0 32 39 69 126
80 191 127 280 150 287 11 3 20 9 20 13 0 7 -100 78 -185 133 l-40 25 -55 -22z"/>
<path d="M7736 1521 c-15 -27 -46 -154 -40 -161 13 -12 155 -52 161 -46 7 7
52 160 49 164 -8 8 -167 49 -170 43z"/>
<path d="M4577 1415 c-43 -19 -93 -35 -111 -35 -29 0 -36 -4 -45 -32 -11 -33
-133 -347 -156 -403 -7 -16 -22 -57 -35 -90 -13 -33 -26 -64 -30 -68 -4 -5
-16 17 -27 50 -15 44 -24 58 -39 58 -42 -1 -134 -17 -130 -23 2 -4 7 -24 10
-45 3 -22 11 -59 17 -83 10 -40 15 -44 58 -59 45 -15 53 -14 145 8 61 15 102
30 107 40 5 9 34 87 65 174 111 316 157 427 193 460 12 11 39 25 61 32 42 13
47 20 28 39 -17 17 -24 16 -111 -23z"/>
<path d="M7911 1090 c-13 -44 -22 -82 -20 -84 2 -2 41 -15 86 -29 l83 -25 25
82 c14 45 25 84 25 87 0 5 -72 24 -126 35 -6 1 -20 5 -31 8 -17 5 -22 -4 -42
-74z"/>
<path d="M4698 887 c-42 -23 -80 -45 -83 -49 -6 -6 24 -68 71 -145 l20 -31 65
36 c121 67 116 54 61 149 -26 46 -49 83 -52 82 -3 0 -40 -19 -82 -42z"/>
</g>
</svg>
